<svg width="18" height="15" viewBox="0 0 18 15" fill="none" xmlns="http://www.w3.org/2000/svg">
<path d="M17.1668 2.43342C16.558 2.70399 15.9154 2.87309 15.2559 2.95764C15.9493 2.55179 16.4735 1.90921 16.7271 1.14825C16.0676 1.53718 15.3574 1.80774 14.6133 1.95994C13.362 0.624028 11.2651 0.556387 9.91231 1.80774C9.2359 2.43342 8.86387 3.31275 8.86387 4.22591C8.86387 4.47956 8.89769 4.73321 8.94842 4.98687C6.27661 4.83467 3.77389 3.58332 2.08287 1.50336C1.18663 3.00837 1.60939 4.95305 3.06366 5.93384C2.53945 5.91693 2.01523 5.78165 1.55865 5.52799C1.55865 7.11755 2.67473 8.47037 4.23047 8.79167C3.74007 8.92695 3.23277 8.94386 2.72546 8.8424C3.16513 10.229 4.43339 11.176 5.88767 11.176C4.70396 12.1061 3.24968 12.5965 1.76158 12.5965C1.49101 12.6134 1.23736 12.6134 0.966797 12.5965C2.48872 13.5773 4.26429 14.0846 6.07369 14.0846C11.2651 14.1184 15.4927 9.94156 15.5265 4.75012C15.5265 4.68248 15.5265 4.63175 15.5265 4.56411C15.5265 4.41192 15.5265 4.27664 15.5265 4.12445C16.1691 3.68478 16.7271 3.10983 17.1668 2.43342Z" fill="#F2ECE5"/>
</svg>
