<svg width="151" height="38" viewBox="0 0 151 38" fill="none" xmlns="http://www.w3.org/2000/svg">
<path d="M31.8129 4.85389C30.8207 2.37719 28.4041 -0.297626 23.8784 0.0697788C18.1131 0.696554 16.3165 6.22165 17.1876 9.51785C14.8915 7.96297 10.9869 7.27921 7.57885 10.1985C3.17864 14.6095 5.53227 20.5747 7.9512 22.0056C5.28524 21.7586 1.07192 23.5601 0.139781 28.2723C-0.851819 34.123 3.6083 37.5337 7.9512 37.5337H56.1099C61.132 37.5337 63.9185 33.1891 63.6059 29.0918C63.113 23.7443 58.2197 21.6926 55.5504 22.1321C57.7806 20.888 60.7592 15.0433 56.2302 10.4485C52.6352 7.02915 48.0521 8.27316 46.4407 9.76466C47.3095 6.9081 45.8851 1.00327 40.0541 0.0692179C39.6513 0.0241197 39.2633 0 38.8934 0C34.4421 0.000448738 32.4409 3.25414 31.8129 4.85389Z" fill="#1E1F1E"/>
<path d="M8.38119 11.1295C5.83852 13.4312 4.91311 18.6465 9.49664 21.6952L27.7819 34.2402L18.9159 13.9282C17.0581 9.135 11.9757 8.08978 8.38119 11.1295Z" fill="#F2ECE5"/>
<path d="M24.1211 1.25363C21.1489 1.3141 16.6859 4.85363 18.6721 10.2585L27.8416 31.8844L31.0639 9.13808C31.8096 3.4861 27.5323 0.877027 24.1211 1.25363Z" fill="#F2ECE5"/>
<path d="M32.4954 8.27072H34.2292C34.2292 8.27072 35.1552 8.27072 35.2812 8.70745C34.5989 9.26467 32.7414 9.33445 32.988 12.3109L35.903 31.8815L45.0102 10.1987C46.873 5.3574 42.9628 1.31415 39.4943 1.19052C39.3324 1.17886 39.1697 1.16943 39.0017 1.16943C35.8883 1.16932 32.3208 3.43186 32.4954 8.27072Z" fill="#F2ECE5"/>
<path d="M44.6434 14.1121L36.0293 34.1804L54.3094 21.5692C58.5232 18.5803 57.8435 13.802 55.4848 11.4401C54.496 10.3285 52.6804 9.46973 50.757 9.46973C48.4848 9.46939 46.053 10.6746 44.6434 14.1121Z" fill="#F2ECE5"/>
<path d="M52.263 24.4247L35.0957 36.4157H56.2333C60.5699 36.4157 63.3568 31.9442 62.1179 27.841C61.2882 25.262 58.8333 23.2374 55.9839 23.2345C54.7845 23.2351 53.5126 23.5963 52.263 24.4247Z" fill="#F2ECE5"/>
<path d="M7.88843 36.4157H28.7142L11.5427 24.4246C7.57588 21.8758 3.11508 23.3672 1.50479 27.5968C0.139836 32.4387 3.54789 36.4157 7.88843 36.4157Z" fill="#F2ECE5"/>
<path d="M107.453 22.3244H113.497C114.886 22.4118 117.349 23.6249 117.349 26.4978C117.349 29.5027 114.793 30.7151 113.408 30.852H107.453V22.3244ZM107.361 8.94705H112.336C114.036 9.03884 116.047 10.2955 116.047 12.6285C116.047 14.9169 114.527 16.4421 112.56 16.714H107.361V8.94705ZM100.559 3.38013V36.4133H116.587C120.391 36.4133 124.914 32.6004 124.914 27.6181C124.914 22.4125 121.513 19.8559 119.361 18.8229C119.361 18.8229 123.301 16.5342 123.126 11.5958C122.947 4.95285 116.81 3.38013 114.706 3.38013H100.559Z" fill="#F2ECE5"/>
<path d="M75.9752 36.4134V17.3873L96.75 37.67V3.3802H89.769V21.9196L68.9893 2.03687V36.4134H75.9752Z" fill="#F2ECE5"/>
<path d="M126.036 19.539C126.211 29.9853 133.717 37.7954 143.366 37.7954C145.654 37.7954 148.064 37.3625 150.527 36.4133V29.6826C148.575 30.8755 146.403 31.4507 144.275 31.4507C138.435 31.4507 132.926 27.1298 133.154 19.2708C133.547 12.8956 138.766 8.49356 144.391 8.49356C146.451 8.49356 148.569 9.08695 150.527 10.3832V3.83295C148.244 2.9075 145.975 2.49365 143.789 2.49365C134.164 2.49348 126.221 10.6123 126.036 19.539Z" fill="#F2ECE5"/>
</svg>
