<svg width="45" height="31" viewBox="0 0 45 31" fill="none" xmlns="http://www.w3.org/2000/svg">
<path d="M44.082 0C29.862 4.108 23.858 11.218 23.858 21.014C23.858 26.386 27.334 30.81 32.39 30.81C36.814 30.81 40.764 27.492 40.764 23.068C40.764 19.434 38.236 16.432 34.128 16.432C32.39 16.432 31.284 17.222 30.968 17.38C31.758 10.744 34.602 6.32 44.714 2.212L44.082 0ZM20.224 0C6.004 4.108 0 11.218 0 21.014C0 26.386 3.476 30.81 8.532 30.81C12.956 30.81 16.906 27.492 16.906 23.068C16.906 19.434 14.378 16.432 10.27 16.432C8.532 16.432 7.426 17.222 7.11 17.38C7.9 10.744 10.744 6.32 20.856 2.212L20.224 0Z" fill="#F2ECE5"/>
</svg>
