<svg width="18" height="17" viewBox="0 0 18 17" fill="none" xmlns="http://www.w3.org/2000/svg">
<path d="M8.66313 1.53135C10.9332 1.53135 11.1996 1.54147 12.0969 1.58194C12.9266 1.61905 13.3752 1.75734 13.6754 1.8754C14.0734 2.03056 14.3568 2.2127 14.6536 2.50952C14.9504 2.80635 15.1359 3.08968 15.2877 3.4877C15.4024 3.7879 15.5441 4.23651 15.5812 5.06627C15.6217 5.96349 15.6318 6.22996 15.6318 8.5C15.6318 10.77 15.6217 11.0365 15.5812 11.9337C15.5441 12.7635 15.4058 13.2121 15.2877 13.5123C15.1326 13.9103 14.9504 14.1937 14.6536 14.4905C14.3568 14.7873 14.0734 14.9728 13.6754 15.1246C13.3752 15.2393 12.9266 15.381 12.0969 15.4181C11.1996 15.4585 10.9332 15.4686 8.66313 15.4686C6.39309 15.4686 6.12662 15.4585 5.2294 15.4181C4.39964 15.381 3.95103 15.2427 3.65083 15.1246C3.25281 14.9694 2.96948 14.7873 2.67265 14.4905C2.37583 14.1937 2.19031 13.9103 2.03853 13.5123C1.92385 13.2121 1.78218 12.7635 1.74508 11.9337C1.7046 11.0365 1.69448 10.77 1.69448 8.5C1.69448 6.22996 1.7046 5.96349 1.74508 5.06627C1.78218 4.23651 1.92047 3.7879 2.03853 3.4877C2.19369 3.08968 2.37583 2.80635 2.67265 2.50952C2.96948 2.2127 3.25281 2.02718 3.65083 1.8754C3.95103 1.76071 4.39964 1.61905 5.2294 1.58194C6.12662 1.5381 6.39646 1.53135 8.66313 1.53135ZM8.66313 0C6.35599 0 6.06591 0.010119 5.15857 0.0505952C4.2546 0.0910714 3.63734 0.236111 3.09765 0.445238C2.53773 0.661111 2.06551 0.954563 1.59329 1.42679C1.12107 1.89901 0.830988 2.3746 0.611742 2.93115C0.402615 3.47083 0.257575 4.0881 0.217099 4.99544C0.176623 5.8994 0.166504 6.18948 0.166504 8.49663C0.166504 10.8038 0.176623 11.0938 0.217099 12.0012C0.257575 12.9052 0.402615 13.5224 0.611742 14.0655C0.827615 14.6254 1.12107 15.0976 1.59329 15.5698C2.06551 16.0421 2.54111 16.3321 3.09765 16.5514C3.63734 16.7605 4.2546 16.9056 5.16194 16.946C6.06928 16.9865 6.35599 16.9966 8.6665 16.9966C10.977 16.9966 11.2637 16.9865 12.1711 16.946C13.075 16.9056 13.6923 16.7605 14.2354 16.5514C14.7953 16.3355 15.2675 16.0421 15.7397 15.5698C16.2119 15.0976 16.502 14.622 16.7213 14.0655C16.9304 13.5258 17.0754 12.9085 17.1159 12.0012C17.1564 11.0938 17.1665 10.8071 17.1665 8.49663C17.1665 6.18611 17.1564 5.8994 17.1159 4.99206C17.0754 4.0881 16.9304 3.47083 16.7213 2.92778C16.5054 2.36786 16.2119 1.89563 15.7397 1.42341C15.2675 0.95119 14.7919 0.661111 14.2354 0.441865C13.6957 0.232738 13.0784 0.0876984 12.1711 0.0472222C11.2604 0.010119 10.9703 0 8.66313 0Z" fill="#F2ECE5"/>
<path d="M8.66302 4.13525C6.25469 4.13525 4.29834 6.08823 4.29834 8.49994C4.29834 10.9116 6.25132 12.8646 8.66302 12.8646C11.0747 12.8646 13.0277 10.9116 13.0277 8.49994C13.0277 6.08823 11.0747 4.13525 8.66302 4.13525ZM8.66302 11.3299C7.09794 11.3299 5.82969 10.0616 5.82969 8.49656C5.82969 6.93148 7.09794 5.66323 8.66302 5.66323C10.2281 5.66323 11.4964 6.93148 11.4964 8.49656C11.4964 10.0616 10.2281 11.3299 8.66302 11.3299Z" fill="#F2ECE5"/>
<path d="M13.1998 4.97846C13.7624 4.97846 14.2185 4.5224 14.2185 3.95981C14.2185 3.39723 13.7624 2.94116 13.1998 2.94116C12.6372 2.94116 12.1812 3.39723 12.1812 3.95981C12.1812 4.5224 12.6372 4.97846 13.1998 4.97846Z" fill="#F2ECE5"/>
</svg>
