<svg width="128" height="36" viewBox="0 0 128 36" fill="none" xmlns="http://www.w3.org/2000/svg">
<g clip-path="url(#clip0_381_1197)">
<path d="M36.6758 17.9412C36.6758 22.9187 34.8855 27.1626 31.3047 30.6655C27.7239 34.1759 23.4097 35.9273 18.3619 35.9273C13.3096 35.9273 8.98782 34.1744 5.39359 30.667C1.79786 27.1626 0 22.9187 0 17.9397C0 12.9937 1.79637 8.76777 5.39359 5.26036C8.98782 1.75295 13.3126 0 18.3604 0C23.4097 0 27.7239 1.75295 31.3047 5.26036C34.8855 8.76777 36.6743 12.9937 36.6743 17.9397L36.6758 17.9412ZM35.5726 17.9637C34.131 14.8575 31.9065 12.3336 28.8976 10.3845C25.7285 8.28425 22.2076 7.23187 18.3379 7.23187C14.4667 7.23187 10.9279 8.28425 7.72737 10.3845C4.75139 12.3306 2.54336 14.8575 1.10327 17.9637C2.54336 21.0699 4.75139 23.6103 7.72737 25.5893C10.9264 27.6596 14.4637 28.6955 18.3379 28.6955C22.2106 28.6955 25.7315 27.6596 28.8991 25.5893C31.908 23.6103 34.131 21.0699 35.5726 17.9637ZM28.0922 17.9412C28.0922 20.5714 27.1416 22.8169 25.2405 24.6791C23.3393 26.5413 21.0459 27.4739 18.3604 27.4739C15.6763 27.4739 13.3829 26.5443 11.4818 24.6791C9.58063 22.8169 8.62855 20.5714 8.62855 17.9397C8.62855 15.3095 9.58063 13.0731 11.4818 11.2243C13.3829 9.37853 15.6763 8.4534 18.3604 8.4534C21.0459 8.4534 23.3393 9.37554 25.2405 11.2243C27.1416 13.0701 28.0922 15.311 28.0922 17.9412ZM39.9407 17.9637C39.9407 8.68693 47.7534 1.03291 57.9328 1.03291C67.1647 1.03291 71.8996 7.52828 71.8996 7.52828L67.1647 12.1659C67.1647 12.1659 63.8489 7.52977 57.9313 7.52977C52.0138 7.52977 47.2789 12.1674 47.2789 17.9637C47.2789 23.7629 52.0138 28.4006 57.9313 28.4006C64.0854 28.4006 67.4012 23.7629 67.4012 23.7629L72.1361 28.4006C72.1361 28.4006 67.4012 34.8944 57.9328 34.8944C47.7534 34.8944 39.9407 27.2419 39.9407 17.9637ZM74.7858 1.7305H88.7525C95.3811 1.7305 99.405 5.67203 99.405 10.3111C99.405 15.4113 94.9066 17.0355 94.9066 17.0355C94.9066 17.0355 101.059 18.6598 101.059 24.9201C101.059 30.0218 96.8002 34.1968 89.6971 34.1968H74.7828V1.7305H74.7858ZM88.2795 14.2527C90.6447 14.2527 92.0668 12.862 92.0668 11.0072C92.0668 9.15099 90.6477 7.7618 88.2795 7.7618H81.8889V14.2557H88.2795V14.2512V14.2527ZM89.2271 28.1685C92.0668 28.1685 93.7255 26.5443 93.7255 24.2255C93.7255 21.9082 92.0668 20.284 89.2271 20.284H81.8889V28.1685H89.2271ZM101.914 29.7928L106.647 25.1536C106.647 25.1536 109.489 28.6326 114.46 28.6326C118.247 28.6326 119.906 27.0099 119.906 24.9231C119.906 19.3559 103.335 21.9082 103.335 10.5447C103.335 5.44299 107.833 1.03591 115.406 1.03591C122.744 1.03591 126.532 5.44299 126.532 5.44299L121.797 10.0821C121.797 10.0821 119.431 7.29774 115.643 7.29774C112.09 7.29774 110.673 8.68993 110.673 10.5447C110.671 16.1104 127.243 13.5596 127.243 24.9231C127.243 30.2568 122.508 34.8929 114.695 34.8929C106.176 34.8929 101.912 29.7928 101.912 29.7928H101.914Z" fill="#F2ECE5"/>
</g>
<defs>
<clipPath id="clip0_381_1197">
<rect width="127.243" height="35.9273" fill="white"/>
</clipPath>
</defs>
</svg>
