<svg width="15" height="15" viewBox="0 0 15 15" fill="none" xmlns="http://www.w3.org/2000/svg">
<path d="M11.1212 4.8838C9.99861 4.79025 8.87603 5.44509 8.31474 6.38057V6.47412V5.07089H5.22764C5.22764 5.91283 5.22764 14.4257 5.22764 14.4257H8.31474V9.18702C8.31474 8.90638 8.31474 8.71928 8.40829 8.43864C8.59539 7.7838 9.25023 7.31606 9.99861 7.31606C11.1212 7.31606 11.5889 8.15799 11.5889 9.37412V14.3322H14.676V9.09348C14.676 6.19348 13.1793 4.8838 11.1212 4.8838Z" fill="#F2ECE5"/>
<path d="M3.45022 5.07089H0.363125V14.4257H3.45022V5.07089Z" fill="#F2ECE5"/>
<path d="M1.95284 0.579957C1.1109 0.486409 0.268965 1.14125 0.175416 1.98318C0.0818678 2.82512 0.736706 3.66705 1.57864 3.7606C1.67219 3.7606 1.76574 3.7606 1.95284 3.7606C2.79477 3.85415 3.63671 3.19931 3.73025 2.35738C3.8238 1.51544 3.16896 0.673506 2.32703 0.579957C2.23348 0.579957 2.04638 0.579957 1.95284 0.579957Z" fill="#F2ECE5"/>
</svg>
