<svg width="103" height="41" viewBox="0 0 103 41" fill="none" xmlns="http://www.w3.org/2000/svg">
<path d="M54.3079 0H61.0383V39.1904H54.3079V0ZM64.0736 39.418H70.804V0.22247H64.0736V39.418ZM103 9.96871V39.4146H96.8523V37.8709C96.8524 37.8027 96.8346 37.7357 96.8007 37.6771C96.7669 37.6185 96.7183 37.5706 96.6601 37.5383C96.602 37.5061 96.5365 37.4907 96.4706 37.494C96.4047 37.4972 96.3409 37.5189 96.286 37.5567C94.0235 39.1 91.3966 39.9748 88.6888 40.0869C85.9809 40.199 83.2949 39.5441 80.9204 38.1927C78.546 36.8414 76.5733 34.845 75.2152 32.4188C73.8571 29.9927 73.165 27.229 73.2138 24.4259C73.3451 16.3643 79.5667 9.70208 87.3526 9.30129C90.7499 9.11992 94.1042 10.1531 96.8523 12.2274V9.96531L103 9.96871ZM96.8523 24.6942C96.8527 22.9041 96.3398 21.1542 95.3787 19.6657C94.4176 18.1772 93.0514 17.0169 91.4529 16.3318C89.8543 15.6466 88.0953 15.4672 86.3982 15.8164C84.7011 16.1655 83.1422 17.0275 81.9187 18.2932C80.6952 19.559 79.862 21.1717 79.5246 22.9274C79.1871 24.683 79.3604 26.5028 80.0228 28.1565C80.6851 29.8103 81.8066 31.2237 83.2454 32.218C84.6842 33.2123 86.3758 33.7428 88.1061 33.7425C90.4255 33.7398 92.6491 32.7851 94.2889 31.0881C95.9287 29.3911 96.8506 27.0903 96.8523 24.6908V24.6942ZM52.2838 24.4683C52.2827 25.1454 52.2383 25.8216 52.1509 26.4926H28.8669C29.247 28.2047 30.1007 29.7653 31.3239 30.9837C32.5471 32.2022 34.0868 33.0258 35.7549 33.3539C37.4231 33.6821 39.1475 33.5006 40.7176 32.8316C42.2877 32.1626 43.6355 31.0352 44.5964 29.5868L50.1876 32.3346C48.344 35.5368 45.4404 37.9385 42.0153 39.0943C38.5902 40.25 34.8761 40.0814 31.5621 38.6196C28.248 37.1578 25.559 34.502 23.9938 31.1451C22.4286 27.7881 22.0935 23.9577 23.0506 20.3646C24.0077 16.7714 26.1921 13.6593 29.1986 11.6057C32.205 9.55202 35.8295 8.69619 39.3995 9.19694C42.9695 9.69768 46.2428 11.521 48.6122 14.3287C50.9815 17.1364 52.2861 20.7378 52.2838 24.4649V24.4683ZM29.1805 21.3453H45.5961C44.9779 19.608 43.8596 18.1087 42.3919 17.0496C40.9241 15.9905 39.1777 15.4227 37.3883 15.4227C35.5988 15.4227 33.8524 15.9905 32.3847 17.0496C30.917 18.1087 29.7986 19.608 29.1805 21.3453ZM25.7873 6.12727V0H8.51808C6.25895 0 4.09234 0.928428 2.49489 2.58104C0.89744 4.23364 0 6.47506 0 8.8122V39.1904H6.74519V24.6551C6.74563 24.1076 6.95574 23.5825 7.32955 23.1948C7.70336 22.8071 8.21041 22.5885 8.7397 22.5867H20.2421V16.4577H6.74519V8.19743C6.74519 7.64839 6.95602 7.12184 7.33129 6.73361C7.70657 6.34538 8.21555 6.12727 8.74626 6.12727H25.7873Z" fill="#1E1F1E"/>
</svg>
