<svg width="72" height="87" viewBox="0 0 72 87" fill="none" xmlns="http://www.w3.org/2000/svg">
<path d="M60.3748 23.6898H32.8632C29.78 23.6898 26.8231 22.4418 24.643 20.2205C22.4628 17.9991 21.2382 14.9863 21.2382 11.8449C21.2382 8.70343 22.4628 5.69065 24.643 3.46931C26.8231 1.24796 29.78 0 32.8632 0H60.3748C63.458 0 66.4149 1.24796 68.5951 3.46931C70.7752 5.69065 72 8.70343 72 11.8449C72 14.9863 70.7752 17.9991 68.5951 20.2205C66.4149 22.4418 63.458 23.6898 60.3748 23.6898ZM32.8632 2.59108C30.4545 2.59108 28.1444 3.56603 26.4412 5.30146C24.738 7.03688 23.7811 9.39062 23.7811 11.8449C23.7811 14.2991 24.738 16.6529 26.4412 18.3883C28.1444 20.1237 30.4545 21.0987 32.8632 21.0987H60.3748C62.7836 21.0987 65.0938 20.1237 66.797 18.3883C68.5002 16.6529 69.4569 14.2991 69.4569 11.8449C69.4569 9.39062 68.5002 7.03688 66.797 5.30146C65.0938 3.56603 62.7836 2.59108 60.3748 2.59108H32.8632ZM26.0027 87H11.6252C8.542 87 5.58505 85.752 3.40493 83.5307C1.22481 81.3093 0 78.2966 0 75.1551C0 72.0137 1.22481 69.0009 3.40493 66.7795C5.58505 64.5582 8.542 63.3102 11.6252 63.3102H26.0027C29.0858 63.3102 32.0428 64.5582 34.2229 66.7795C36.403 69.0009 37.6278 72.0137 37.6278 75.1551C37.6278 78.2966 36.403 81.3093 34.2229 83.5307C32.0428 85.752 29.0858 87 26.0027 87ZM11.6252 65.9013C9.21644 65.9013 6.90638 66.8763 5.20316 68.6117C3.49994 70.3471 2.54308 72.7009 2.54308 75.1551C2.54308 77.6094 3.49994 79.9631 5.20316 81.6985C6.90638 83.434 9.21644 84.4089 11.6252 84.4089H26.0027C28.4114 84.4089 30.7215 83.434 32.4247 81.6985C34.1279 79.9631 35.0848 77.6094 35.0848 75.1551C35.0848 72.7009 34.1279 70.3471 32.4247 68.6117C30.7215 66.8763 28.4114 65.9013 26.0027 65.9013H11.6252ZM38.4522 44.8026H16.194C13.1788 44.6961 10.322 43.4008 8.22586 41.1898C6.12976 38.9787 4.95824 36.0248 4.95824 32.9507C4.95824 29.8766 6.12976 26.9226 8.22586 24.7115C10.322 22.5005 13.1788 21.2052 16.194 21.0987H38.4522H39.2905V23.6755C37.012 23.8612 34.8853 24.9128 33.3324 26.6217C31.7795 28.3306 30.9138 30.5719 30.907 32.9008C30.9103 35.2322 31.7745 37.477 33.3278 39.1889C34.8811 40.9008 37.0096 42.0541 39.2905 42.24V44.8026H38.4522ZM16.194 23.6898C13.7853 23.6898 11.4752 24.6647 9.77201 26.4001C8.06879 28.1356 7.11192 30.4893 7.11192 32.9436C7.11192 35.3978 8.06879 37.7516 9.77201 39.487C11.4752 41.2224 13.7853 42.1974 16.194 42.1974H32.6955C31.3279 41.0909 30.2232 39.6839 29.4639 38.0816C28.7045 36.4792 28.3102 34.7229 28.3102 32.9436C28.3102 31.1642 28.7045 29.4078 29.4639 27.8055C30.2232 26.2031 31.3279 24.7963 32.6955 23.6898H16.194ZM42.7416 65.9013H20.4277H19.6034V63.3245C22.0121 63.3245 24.3221 62.3495 26.0254 60.6141C27.7286 58.8787 28.6855 56.5249 28.6855 54.0707C28.6855 51.6164 27.7286 49.2627 26.0254 47.5272C24.3221 45.7918 22.0121 44.8169 19.6034 44.8169V42.24H20.4277H42.6439C45.6591 42.3465 48.5159 43.6419 50.612 45.8529C52.7081 48.0639 53.8797 51.018 53.8797 54.0921C53.8797 57.1661 52.7081 60.1202 50.612 62.3312C48.5159 64.5423 45.6591 65.8376 42.6439 65.9441L42.7416 65.9013ZM26.2403 63.3102H42.6439C45.0526 63.3102 47.3627 62.3353 49.0659 60.5999C50.7691 58.8644 51.726 56.5107 51.726 54.0564C51.726 51.6022 50.7691 49.2484 49.0659 47.513C47.3627 45.7776 45.0526 44.8026 42.6439 44.8026H26.1424C27.51 45.9091 28.6148 47.3161 29.3742 48.9184C30.1335 50.5207 30.5279 52.2771 30.5279 54.0564C30.5279 55.8358 30.1335 57.5922 29.3742 59.1945C28.6148 60.7969 27.51 62.2037 26.1424 63.3102H26.2403Z" fill="#F2ECE5"/>
</svg>
