<svg width="79" height="79" viewBox="0 0 79 79" fill="none" xmlns="http://www.w3.org/2000/svg">
<path fill-rule="evenodd" clip-rule="evenodd" d="M39.5 3.29175C19.5031 3.29175 3.29169 19.5032 3.29169 39.5001C3.29169 59.497 19.5031 75.7084 39.5 75.7084C59.4969 75.7084 75.7084 59.497 75.7084 39.5001C75.7084 19.5032 59.4969 3.29175 39.5 3.29175ZM55.1947 33.3776C55.4837 33.0472 55.7037 32.6624 55.8418 32.2458C55.9799 31.8292 56.0332 31.3891 55.9987 30.9516C55.9643 30.514 55.8426 30.0878 55.641 29.6979C55.4393 29.3081 55.1617 28.9625 54.8245 28.6815C54.4873 28.4005 54.0974 28.1898 53.6776 28.0617C53.2577 27.9337 52.8165 27.8909 52.3799 27.9359C51.9433 27.9809 51.5201 28.1127 51.1352 28.3237C50.7503 28.5346 50.4115 28.8204 50.1387 29.1642L35.9845 46.146L28.6606 38.8187C28.0397 38.2191 27.2083 37.8873 26.3452 37.8948C25.4821 37.9023 24.6565 38.2485 24.0462 38.8588C23.4359 39.4691 23.0898 40.2947 23.0823 41.1578C23.0748 42.0208 23.4065 42.8523 24.0061 43.4731L33.8811 53.3481C34.2046 53.6714 34.5918 53.9237 35.0181 54.0889C35.4445 54.2542 35.9006 54.3289 36.3574 54.3081C36.8142 54.2874 37.2616 54.1717 37.6712 53.9684C38.0808 53.7652 38.4436 53.4788 38.7364 53.1276L55.1947 33.3776Z" fill="white"/>
</svg>
