<svg width="176" height="31" viewBox="0 0 176 31" fill="none" xmlns="http://www.w3.org/2000/svg">
<path d="M0.256 30V4.1H6.546V30H0.256ZM3.179 20.084V14.83H16.573V20.084H3.179ZM3.179 9.65V4.1H18.09V9.65H3.179ZM22.8321 30V10.353H28.7521V30H22.8321ZM25.7921 6.468C24.6821 6.468 23.8064 6.209 23.1651 5.691C22.5484 5.14833 22.2401 4.38367 22.2401 3.397C22.2401 2.509 22.5607 1.78133 23.2021 1.214C23.8434 0.646665 24.7067 0.362998 25.7921 0.362998C26.9021 0.362998 27.7654 0.634331 28.3821 1.177C28.9987 1.695 29.3071 2.435 29.3071 3.397C29.3071 4.30967 28.9864 5.04967 28.3451 5.617C27.7284 6.18433 26.8774 6.468 25.7921 6.468ZM34.3145 30V10.353H39.9385L40.1235 14.349L38.9395 14.793C39.2108 13.905 39.6918 13.1033 40.3825 12.388C41.0978 11.648 41.9488 11.056 42.9355 10.612C43.9222 10.168 44.9582 9.946 46.0435 9.946C47.5235 9.946 48.7692 10.2543 49.7805 10.871C50.7918 11.463 51.5565 12.3633 52.0745 13.572C52.5925 14.756 52.8515 16.2113 52.8515 17.938V30H46.8945V18.419C46.8945 17.6297 46.7835 16.976 46.5615 16.458C46.3395 15.94 45.9942 15.5577 45.5255 15.311C45.0815 15.0397 44.5265 14.9163 43.8605 14.941C43.3425 14.941 42.8615 15.0273 42.4175 15.2C41.9735 15.348 41.5912 15.5823 41.2705 15.903C40.9498 16.199 40.6908 16.5443 40.4935 16.939C40.3208 17.3337 40.2345 17.7653 40.2345 18.234V30H37.3115C36.6208 30 36.0288 30 35.5355 30C35.0422 30 34.6352 30 34.3145 30ZM75.6834 30L67.4694 10.353H74.0184L78.9024 25.042L77.4594 25.19L82.4914 10.353H88.9664L80.3454 30H75.6834ZM98.4971 30.37C96.5731 30.37 94.8711 30.0617 93.3911 29.445C91.9357 28.8283 90.7764 28.002 89.9131 26.966L93.5021 23.858C94.2667 24.6227 95.1301 25.19 96.0921 25.56C97.0541 25.9053 97.9667 26.078 98.8301 26.078C99.1754 26.078 99.4837 26.041 99.7551 25.967C100.026 25.893 100.248 25.7943 100.421 25.671C100.618 25.523 100.766 25.3627 100.865 25.19C100.964 24.9927 101.013 24.7707 101.013 24.524C101.013 24.0307 100.791 23.6483 100.347 23.377C100.125 23.2537 99.7551 23.1057 99.2371 22.933C98.7191 22.7603 98.0531 22.563 97.2391 22.341C96.0797 22.045 95.0684 21.6997 94.2051 21.305C93.3664 20.8857 92.6757 20.4047 92.1331 19.862C91.6397 19.344 91.2574 18.7767 90.9861 18.16C90.7147 17.5187 90.5791 16.8033 90.5791 16.014C90.5791 15.1013 90.7887 14.275 91.2081 13.535C91.6521 12.795 92.2317 12.1537 92.9471 11.611C93.6871 11.0683 94.5257 10.6613 95.4631 10.39C96.4251 10.094 97.4117 9.946 98.4231 9.946C99.5084 9.946 100.544 10.0693 101.531 10.316C102.518 10.5627 103.43 10.908 104.269 11.352C105.132 11.796 105.897 12.3263 106.563 12.943L103.455 16.421C103.011 16.0017 102.505 15.6317 101.938 15.311C101.395 14.9657 100.828 14.6943 100.236 14.497C99.6441 14.2997 99.1014 14.201 98.6081 14.201C98.2381 14.201 97.9051 14.238 97.6091 14.312C97.3377 14.3613 97.1034 14.46 96.9061 14.608C96.7087 14.7313 96.5607 14.8917 96.4621 15.089C96.3634 15.2617 96.3141 15.4713 96.3141 15.718C96.3141 15.9647 96.3757 16.199 96.4991 16.421C96.6471 16.643 96.8444 16.828 97.0911 16.976C97.3377 17.124 97.7324 17.2967 98.2751 17.494C98.8177 17.6667 99.5577 17.8887 100.495 18.16C101.654 18.4807 102.653 18.8383 103.492 19.233C104.331 19.6277 104.997 20.0963 105.49 20.639C105.885 21.0583 106.181 21.5517 106.378 22.119C106.575 22.6617 106.674 23.2537 106.674 23.895C106.674 25.153 106.316 26.2753 105.601 27.262C104.91 28.224 103.948 28.9887 102.715 29.556C101.482 30.0987 100.076 30.37 98.4971 30.37ZM122.674 30V4.1H128.964V30H122.674ZM125.597 20.084V14.83H138.991V20.084H125.597ZM125.597 9.65V4.1H140.508V9.65H125.597ZM145.25 30V10.353H151.17V30H145.25ZM148.21 6.468C147.1 6.468 146.224 6.209 145.583 5.691C144.966 5.14833 144.658 4.38367 144.658 3.397C144.658 2.509 144.979 1.78133 145.62 1.214C146.261 0.646665 147.125 0.362998 148.21 0.362998C149.32 0.362998 150.183 0.634331 150.8 1.177C151.417 1.695 151.725 2.435 151.725 3.397C151.725 4.30967 151.404 5.04967 150.763 5.617C150.146 6.18433 149.295 6.468 148.21 6.468ZM156.732 30V10.353H162.356L162.541 14.349L161.357 14.793C161.629 13.905 162.11 13.1033 162.8 12.388C163.516 11.648 164.367 11.056 165.353 10.612C166.34 10.168 167.376 9.946 168.461 9.946C169.941 9.946 171.187 10.2543 172.198 10.871C173.21 11.463 173.974 12.3633 174.492 13.572C175.01 14.756 175.269 16.2113 175.269 17.938V30H169.312V18.419C169.312 17.6297 169.201 16.976 168.979 16.458C168.757 15.94 168.412 15.5577 167.943 15.311C167.499 15.0397 166.944 14.9163 166.278 14.941C165.76 14.941 165.279 15.0273 164.835 15.2C164.391 15.348 164.009 15.5823 163.688 15.903C163.368 16.199 163.109 16.5443 162.911 16.939C162.739 17.3337 162.652 17.7653 162.652 18.234V30H159.729C159.039 30 158.447 30 157.953 30C157.46 30 157.053 30 156.732 30Z" fill="white"/>
</svg>
