<svg width="17" height="17" viewBox="0 0 17 17" fill="none" xmlns="http://www.w3.org/2000/svg">
<path d="M10.6739 7.96883L10.0364 8.6205C9.52643 9.1305 9.20768 9.56258 9.20768 10.6251H7.79102V10.2709C7.79102 9.48466 8.10977 8.77633 8.61977 8.26633L9.4981 7.37383C9.76018 7.11883 9.91602 6.76467 9.91602 6.37508C9.91602 5.99936 9.76676 5.63902 9.50108 5.37335C9.23541 5.10767 8.87507 4.95842 8.49935 4.95842C8.12363 4.95842 7.76329 5.10767 7.49761 5.37335C7.23194 5.63902 7.08268 5.99936 7.08268 6.37508H5.66602C5.66602 5.62363 5.96453 4.90297 6.49588 4.37161C7.02723 3.84026 7.7479 3.54175 8.49935 3.54175C9.2508 3.54175 9.97147 3.84026 10.5028 4.37161C11.0342 4.90297 11.3327 5.62363 11.3327 6.37508C11.3317 6.97238 11.0949 7.54513 10.6739 7.96883ZM9.20768 13.4584H7.79102V12.0417H9.20768M8.49935 1.41675C7.56915 1.41675 6.64806 1.59996 5.78867 1.95593C4.92929 2.31191 4.14842 2.83366 3.49068 3.49141C2.16229 4.81979 1.41602 6.62146 1.41602 8.50008C1.41602 10.3787 2.16229 12.1804 3.49068 13.5088C4.14842 14.1665 4.92929 14.6883 5.78867 15.0442C6.64806 15.4002 7.56915 15.5834 8.49935 15.5834C10.378 15.5834 12.1796 14.8371 13.508 13.5088C14.8364 12.1804 15.5827 10.3787 15.5827 8.50008C15.5827 4.583 12.3952 1.41675 8.49935 1.41675Z" fill="#1FADD1"/>
</svg>
