<svg width="9" height="11" viewBox="0 0 9 11" fill="none" xmlns="http://www.w3.org/2000/svg">
<path d="M8.81038 6.84628L4.95465 10.8059C4.89495 10.8674 4.82401 10.9162 4.7459 10.9495C4.66779 10.9829 4.58404 11 4.49946 11C4.41489 11 4.33114 10.9829 4.25303 10.9495C4.17492 10.9162 4.10398 10.8674 4.04427 10.8059L0.188546 6.84628C0.0678221 6.72231 -1.79893e-09 6.55416 0 6.37883C1.79893e-09 6.2035 0.0678221 6.03535 0.188546 5.91138C0.30927 5.7874 0.473007 5.71775 0.643736 5.71775C0.814466 5.71775 0.978202 5.7874 1.09893 5.91138L3.85738 8.74415V0.659936C3.85738 0.48491 3.92508 0.317053 4.0456 0.193291C4.16611 0.0695288 4.32957 0 4.5 0C4.67043 0 4.83389 0.0695288 4.9544 0.193291C5.07492 0.317053 5.14262 0.48491 5.14262 0.659936V8.74415L7.90107 5.91082C8.0218 5.78685 8.18553 5.7172 8.35626 5.7172C8.52699 5.7172 8.69073 5.78685 8.81145 5.91082C8.93218 6.0348 9 6.20295 9 6.37828C9 6.55361 8.93218 6.72176 8.81145 6.84573L8.81038 6.84628Z" fill="white"/>
</svg>
