<svg width="104" height="19" viewBox="0 0 104 19" fill="none" xmlns="http://www.w3.org/2000/svg">
<g clip-path="url(#clip0_59_232)">
<path d="M10.1135 0.376416L12.9388 5.97438L18.3766 6.51316C18.506 6.52392 18.6297 6.57155 18.7329 6.65041C18.8361 6.72928 18.9146 6.83607 18.959 6.95816C19.0034 7.08023 19.012 7.21249 18.9835 7.33926C18.9551 7.46603 18.891 7.58201 18.7988 7.67345L14.3235 12.1094L15.9827 18.1372C16.0167 18.2651 16.013 18.4001 15.972 18.5259C15.9311 18.6517 15.8548 18.7629 15.7521 18.8463C15.6494 18.9298 15.5248 18.9817 15.3933 18.996C15.2618 19.0103 15.1291 18.9862 15.0109 18.9269L9.49786 16.1966L3.99252 18.9234C3.87435 18.9829 3.74152 19.0069 3.61002 18.9926C3.47853 18.9783 3.35395 18.9264 3.25129 18.8429C3.14862 18.7596 3.07224 18.6483 3.03132 18.5225C2.99039 18.3967 2.98669 18.2617 3.02064 18.1338L4.67984 12.1061L0.201246 7.67008C0.108982 7.57863 0.0448516 7.46265 0.0164481 7.33588C-0.0119553 7.20912 -0.00344256 7.07686 0.0409785 6.95478C0.0853995 6.83269 0.163869 6.7259 0.267095 6.64703C0.370322 6.56817 0.493983 6.52054 0.623437 6.50978L6.06125 5.97101L8.88234 0.376416C8.94037 0.263089 9.02856 0.167977 9.1371 0.101561C9.24572 0.0351442 9.37056 0 9.49786 0C9.62516 0 9.75001 0.0351442 9.85863 0.101561C9.96724 0.167977 10.0554 0.263089 10.1135 0.376416Z" fill="#FFD35E"/>
</g>
<g clip-path="url(#clip1_59_232)">
<path d="M30.9034 0.376416L33.7287 5.97438L39.1665 6.51316C39.296 6.52392 39.4196 6.57155 39.5229 6.65041C39.6261 6.72928 39.7046 6.83607 39.749 6.95816C39.7934 7.08023 39.8019 7.21249 39.7735 7.33926C39.7451 7.46603 39.681 7.58201 39.5887 7.67345L35.1135 12.1094L36.7727 18.1372C36.8067 18.2651 36.8029 18.4001 36.762 18.5259C36.7211 18.6517 36.6448 18.7629 36.5421 18.8463C36.4394 18.9298 36.3148 18.9817 36.1833 18.996C36.0518 19.0103 35.919 18.9862 35.8009 18.9269L30.2878 16.1966L24.7825 18.9234C24.6643 18.9829 24.5315 19.0069 24.4 18.9926C24.2685 18.9783 24.1439 18.9264 24.0413 18.8429C23.9386 18.7596 23.8622 18.6483 23.8213 18.5225C23.7804 18.3967 23.7767 18.2617 23.8106 18.1338L25.4698 12.1061L20.9912 7.67008C20.899 7.57863 20.8348 7.46265 20.8064 7.33588C20.778 7.20912 20.7865 7.07686 20.831 6.95478C20.8754 6.83269 20.9538 6.7259 21.0571 6.64703C21.1603 6.56817 21.284 6.52054 21.4134 6.50978L26.8512 5.97101L29.6723 0.376416C29.7303 0.263089 29.8185 0.167977 29.9271 0.101561C30.0357 0.0351442 30.1605 0 30.2878 0C30.4151 0 30.54 0.0351442 30.6486 0.101561C30.7572 0.167977 30.8454 0.263089 30.9034 0.376416Z" fill="#FFD35E"/>
</g>
<g clip-path="url(#clip2_59_232)">
<path d="M51.6935 0.376416L54.5188 5.97438L59.9566 6.51316C60.086 6.52392 60.2097 6.57155 60.3129 6.65041C60.4161 6.72928 60.4946 6.83607 60.539 6.95816C60.5834 7.08023 60.592 7.21249 60.5636 7.33926C60.5351 7.46603 60.471 7.58201 60.3788 7.67345L55.9036 12.1094L57.5627 18.1372C57.5967 18.2651 57.593 18.4001 57.5521 18.5259C57.5111 18.6517 57.4348 18.7629 57.3321 18.8463C57.2294 18.9298 57.1048 18.9817 56.9733 18.996C56.8418 19.0103 56.7091 18.9862 56.5909 18.9269L51.0779 16.1966L45.5725 18.9234C45.4544 18.9829 45.3215 19.0069 45.19 18.9926C45.0585 18.9783 44.934 18.9264 44.8313 18.8429C44.7286 18.7596 44.6523 18.6483 44.6113 18.5225C44.5704 18.3967 44.5667 18.2617 44.6007 18.1338L46.2599 12.1061L41.7813 7.67008C41.689 7.57863 41.6249 7.46265 41.5965 7.33588C41.5681 7.20912 41.5766 7.07686 41.621 6.95478C41.6654 6.83269 41.7439 6.7259 41.8471 6.64703C41.9503 6.56817 42.074 6.52054 42.2035 6.50978L47.6413 5.97101L50.4624 0.376416C50.5204 0.263089 50.6086 0.167977 50.7171 0.101561C50.8257 0.0351442 50.9506 0 51.0779 0C51.2052 0 51.33 0.0351442 51.4386 0.101561C51.5473 0.167977 51.6355 0.263089 51.6935 0.376416Z" fill="#FFD35E"/>
</g>
<g clip-path="url(#clip3_59_232)">
<path d="M72.4835 0.376416L75.3088 5.97438L80.7466 6.51316C80.876 6.52392 80.9997 6.57155 81.1029 6.65041C81.2061 6.72928 81.2846 6.83607 81.329 6.95816C81.3734 7.08023 81.382 7.21249 81.3535 7.33926C81.3251 7.46603 81.261 7.58201 81.1688 7.67345L76.6935 12.1094L78.3527 18.1372C78.3867 18.2651 78.383 18.4001 78.342 18.5259C78.3011 18.6517 78.2248 18.7629 78.1221 18.8463C78.0194 18.9298 77.8948 18.9817 77.7633 18.996C77.6318 19.0103 77.4991 18.9862 77.3809 18.9269L71.8679 16.1966L66.3625 18.9234C66.2443 18.9829 66.1115 19.0069 65.98 18.9926C65.8485 18.9783 65.7239 18.9264 65.6213 18.8429C65.5186 18.7596 65.4422 18.6483 65.4013 18.5225C65.3604 18.3967 65.3567 18.2617 65.3906 18.1338L67.0498 12.1061L62.5712 7.67008C62.479 7.57863 62.4148 7.46265 62.3864 7.33588C62.358 7.20912 62.3666 7.07686 62.411 6.95478C62.4554 6.83269 62.5339 6.7259 62.6371 6.64703C62.7403 6.56817 62.864 6.52054 62.9934 6.50978L68.4312 5.97101L71.2523 0.376416C71.3104 0.263089 71.3986 0.167977 71.5071 0.101561C71.6157 0.0351442 71.7406 0 71.8679 0C71.9952 0 72.12 0.0351442 72.2286 0.101561C72.3372 0.167977 72.4254 0.263089 72.4835 0.376416Z" fill="#FFD35E"/>
</g>
<path d="M93.2834 0.376416L96.1087 5.97438L101.547 6.51316C101.676 6.52392 101.8 6.57155 101.903 6.65041C102.006 6.72928 102.085 6.83607 102.129 6.95816C102.173 7.08023 102.182 7.21249 102.154 7.33926C102.125 7.46603 102.061 7.58201 101.969 7.67345L97.4935 12.1094L99.1527 18.1372C99.1867 18.2651 99.1829 18.4001 99.142 18.5259C99.1011 18.6517 99.0248 18.7629 98.9221 18.8463C98.8194 18.9298 98.6948 18.9817 98.5633 18.996C98.4318 19.0103 98.2991 18.9862 98.1809 18.9269L92.6678 16.1966L87.1625 18.9234C87.0443 18.9829 86.9115 19.0069 86.78 18.9926C86.6485 18.9783 86.5239 18.9264 86.4213 18.8429C86.3186 18.7596 86.2422 18.6483 86.2013 18.5225C86.1604 18.3967 86.1567 18.2617 86.1906 18.1338L87.8498 12.1061L83.3712 7.67008C83.279 7.57863 83.2148 7.46265 83.1864 7.33588C83.158 7.20912 83.1665 7.07686 83.211 6.95478C83.2554 6.83269 83.3339 6.7259 83.4371 6.64703C83.5403 6.56817 83.664 6.52054 83.7934 6.50978L89.2312 5.97101L92.0523 0.376416C92.1104 0.263089 92.1985 0.167977 92.3071 0.101561C92.4157 0.0351442 92.5405 0 92.6678 0C92.7951 0 92.92 0.0351442 93.0286 0.101561C93.1372 0.167977 93.2254 0.263089 93.2834 0.376416Z" fill="#E5E5E5"/>
<mask id="mask0_59_232" style="mask-type:alpha" maskUnits="userSpaceOnUse" x="83" y="0" width="17" height="19">
<rect x="83.17" width="16" height="19" fill="#D9D9D9"/>
</mask>
<g mask="url(#mask0_59_232)">
<path d="M93.2834 0.376416L96.1087 5.97438L101.547 6.51316C101.676 6.52392 101.8 6.57155 101.903 6.65041C102.006 6.72928 102.085 6.83607 102.129 6.95816C102.173 7.08023 102.182 7.21249 102.154 7.33926C102.125 7.46603 102.061 7.58201 101.969 7.67345L97.4935 12.1094L99.1527 18.1372C99.1867 18.2651 99.1829 18.4001 99.142 18.5259C99.1011 18.6517 99.0248 18.7629 98.9221 18.8463C98.8194 18.9298 98.6948 18.9817 98.5633 18.996C98.4318 19.0103 98.2991 18.9862 98.1809 18.9269L92.6678 16.1966L87.1625 18.9234C87.0443 18.9829 86.9115 19.0069 86.78 18.9926C86.6485 18.9783 86.5239 18.9264 86.4213 18.8429C86.3186 18.7596 86.2422 18.6483 86.2013 18.5225C86.1604 18.3967 86.1567 18.2617 86.1906 18.1338L87.8498 12.1061L83.3712 7.67008C83.279 7.57863 83.2148 7.46265 83.1864 7.33588C83.158 7.20911 83.1665 7.07686 83.211 6.95478C83.2554 6.83269 83.3339 6.7259 83.4371 6.64703C83.5403 6.56817 83.664 6.52054 83.7934 6.50978L89.2312 5.97101L92.0523 0.376416C92.1104 0.263089 92.1985 0.167977 92.3071 0.101561C92.4157 0.0351442 92.5405 0 92.6678 0C92.7951 0 92.92 0.0351442 93.0286 0.101561C93.1372 0.167977 93.2254 0.263089 93.2834 0.376416Z" fill="#FFD35E"/>
</g>
<defs>
<clipPath id="clip0_59_232">
<rect width="19" height="19" fill="white"/>
</clipPath>
<clipPath id="clip1_59_232">
<rect width="19" height="19" fill="white" transform="translate(20.79)"/>
</clipPath>
<clipPath id="clip2_59_232">
<rect width="19" height="19" fill="white" transform="translate(41.58)"/>
</clipPath>
<clipPath id="clip3_59_232">
<rect width="19" height="19" fill="white" transform="translate(62.37)"/>
</clipPath>
</defs>
</svg>
