<svg width="16" height="16" viewBox="0 0 16 16" fill="none" xmlns="http://www.w3.org/2000/svg">
<path d="M1.10214 0.531649C1.5584 0.0753879 2.2979 0.0753879 2.75392 0.531649L8.25995 6.03771L13.7659 0.531649C14.2222 0.0753879 14.9617 0.0753879 15.4177 0.531649C15.874 0.987909 15.874 1.72741 15.4177 2.18343L9.91172 7.6895L15.4177 13.1956C15.874 13.6519 15.874 14.3914 15.4177 14.8474C14.9614 15.3037 14.2219 15.3034 13.7659 14.8474L8.25995 9.34129L2.75392 14.8474C2.29766 15.3034 1.55816 15.3034 1.10214 14.8474C0.645884 14.3911 0.645884 13.6516 1.10214 13.1956L6.60817 7.6895L1.10214 2.18343C0.645884 1.72717 0.645884 0.987666 1.10214 0.531649Z" fill="#B33030"/>
</svg>
