<svg width="122" height="33" viewBox="0 0 122 33" fill="none" xmlns="http://www.w3.org/2000/svg">
<g clip-path="url(#clip0_1718_2241)">
<path d="M12.6524 6.85535L15.7424 13.1153L22.6524 14.1253L17.6524 18.9953L18.8324 25.8753L12.6524 22.6253L6.47234 25.8753L7.65234 18.9953L2.65234 14.1253L9.56234 13.1153L12.6524 6.85535Z" fill="#FD7122"/>
<path d="M36.6523 6.85535L39.7423 13.1153L46.6523 14.1253L41.6523 18.9953L42.8323 25.8753L36.6523 22.6253L30.4723 25.8753L31.6523 18.9953L26.6523 14.1253L33.5623 13.1153L36.6523 6.85535Z" fill="#FD7122"/>
<path d="M60.6523 6.85535L63.7423 13.1153L70.6523 14.1253L65.6523 18.9953L66.8323 25.8753L60.6523 22.6253L54.4723 25.8753L55.6523 18.9953L50.6523 14.1253L57.5623 13.1153L60.6523 6.85535Z" fill="#FD7122"/>
<path d="M84.6523 6.85535L87.7423 13.1153L94.6523 14.1253L89.6523 18.9953L90.8323 25.8753L84.6523 22.6253L78.4723 25.8753L79.6523 18.9953L74.6523 14.1253L81.5623 13.1153L84.6523 6.85535Z" fill="#FD7122"/>
<path d="M108.652 6.85535L111.742 13.1153L118.652 14.1253L113.652 18.9953L114.832 25.8753L108.652 22.6253L102.472 25.8753L103.652 18.9953L98.6523 14.1253L105.562 13.1153L108.652 6.85535Z" fill="#FD7122"/>
<path d="M111.742 13.1153L108.652 6.85535V22.6253L114.832 25.8753L113.652 18.9953L118.652 14.1253L111.742 13.1153Z" fill="#243454"/>
</g>
<defs>
<clipPath id="clip0_1718_2241">
<rect width="121" height="32" fill="white" transform="translate(0.503906 0.855347)"/>
</clipPath>
</defs>
</svg>
