<svg width="64" height="64" viewBox="0 0 64 64" fill="none" xmlns="http://www.w3.org/2000/svg">
<path d="M24 19C27.859 19 31 15.859 31 12V8C31 4.141 27.859 1 24 1C20.141 1 17 4.141 17 8V12C17 15.859 20.141 19 24 19ZM19 8C19 5.243 21.243 3 24 3C26.757 3 29 5.243 29 8V12C29 14.757 26.757 17 24 17C21.243 17 19 14.757 19 12V8Z" fill="#333333"/>
<path d="M40 1C36.141 1 33 4.141 33 8V19H35V12H45V19H47V8C47 4.141 43.859 1 40 1ZM45 10H35V8C35 5.243 37.243 3 40 3C42.757 3 45 5.243 45 8V10Z" fill="#333333"/>
<path d="M51 17V1H49V19H63V17H51Z" fill="#333333"/>
<path d="M8 19C9.958 19 11.728 18.19 13 16.889V19H15V10H9V12H13C13 14.757 10.757 17 8 17C5.243 17 3 14.757 3 12V8C3 5.243 5.243 3 8 3C10.757 3 13 5.243 13 8H15V1H13V3.105C11.729 1.807 9.957 1 8 1C4.141 1 1 4.141 1 8V12C1 15.859 4.141 19 8 19Z" fill="#333333"/>
<path d="M43 31C41.807 31 40.733 31.525 40 32.357C39.267 31.525 38.193 31 37 31C35.807 31 34.733 31.525 34 32.357C33.267 31.525 32.193 31 31 31C30.272 31 29.589 31.195 29 31.537V25C29 22.794 27.206 21 25 21C22.794 21 21 22.794 21 25V38.434L17.455 40.56C16.558 41.1 16 42.086 16 43.133V53C16 55.139 16.958 57.131 18.627 58.467L21 60.364V63H23V59.403L19.877 56.904C18.684 55.951 18 54.527 18 53V43.133C18 42.783 18.187 42.454 18.485 42.275L21 40.766V47H23V25C23 23.897 23.897 23 25 23C26.103 23 27 23.897 27 25V38H29V35C29 33.897 29.897 33 31 33C32.103 33 33 33.897 33 35V38H35V35C35 33.897 35.897 33 37 33C38.103 33 39 33.897 39 35V38H41V35C41 33.897 41.897 33 43 33C44.103 33 45 33.897 45 35V54.172C45 55.706 44.378 57.208 43.293 58.293L43 58.586V63H45V59.397C46.275 57.97 47 56.089 47 54.171V35C47 32.794 45.206 31 43 31Z" fill="#333333"/>
<path d="M47.6064 25.081L48.3944 26.919L49.0004 26.659V59H51.0004V25.802L55.0004 24.088L59.0004 25.802V57H61.0004V26.659L61.6064 26.919L62.3944 25.081L55.0004 21.912L47.6064 25.081Z" fill="#333333"/>
<path d="M51 61H49V63H51V61Z" fill="#333333"/>
<path d="M61 59H59V61H61V59Z" fill="#333333"/>
<path d="M56 27H54V55H56V27Z" fill="#333333"/>
<path d="M56 57H54V59H56V57Z" fill="#333333"/>
<path d="M16.3944 31.081L9.00045 27.912L1.60645 31.081L2.39445 32.919L4.00045 32.231V59H6.00045V31.373L9.00045 30.088L12.0004 31.373V57H14.0004V32.231L15.6064 32.919L16.3944 31.081Z" fill="#333333"/>
<path d="M6 61H4V63H6V61Z" fill="#333333"/>
<path d="M14 59H12V61H14V59Z" fill="#333333"/>
<path d="M10 33H8V55H10V33Z" fill="#333333"/>
<path d="M10 57H8V59H10V57Z" fill="#333333"/>
</svg>
