<svg width="64" height="64" viewBox="0 0 64 64" fill="none" xmlns="http://www.w3.org/2000/svg">
<path d="M57.826 25C55.122 25 52.907 27.031 52.673 29.726L51.04 48.498L45.638 53H38V50.377C40.461 48.948 42.364 46.674 43.318 43.951L45.115 43.501C46.813 43.077 48 41.558 48 39.808C48 37.708 46.292 36 44.192 36H43.819C42.863 30.334 37.934 26 32 26C26.066 26 21.137 30.334 20.181 36H19.808C17.708 36 16 37.708 16 39.808C16 41.558 17.187 43.078 18.884 43.501L20.682 43.951C21.636 46.674 23.539 48.948 26 50.377V53H18.362L12.96 48.498L11.327 29.726C11.093 27.031 8.878 25 6.174 25C3.321 25 1 27.321 1 30.174C1 32.756 1.177 35.364 1.525 37.926L4.065 56.549L12 62.5V63H14V61.5L6.522 55.892L12.061 50.353L17.638 55H23.764L32 59.118L40.236 55H46.362L51.939 50.353L57.431 55.845L49 61.465V63H51V62.535L59.93 56.582L62.475 37.926C62.823 35.364 63 32.756 63 30.174C63 27.321 60.679 25 57.826 25ZM3.508 37.656C3.171 35.184 3 32.666 3 30.174C3 28.424 4.424 27 6.174 27C7.832 27 9.192 28.246 9.335 29.899L10.964 48.622L5.719 53.867L3.508 37.656ZM44.192 38C45.189 38 46 38.811 46 39.808C46 40.639 45.437 41.36 44.63 41.562L43.857 41.755C43.942 41.181 44 40.598 44 40V38H44.192ZM32 28C36.987 28 41.121 31.674 41.868 36.454L39.879 34.465C38.935 33.521 37.679 33 36.343 33H27.657C26.321 33 25.065 33.521 24.121 34.465L22.132 36.454C22.879 31.674 27.013 28 32 28ZM19.369 41.562C18.563 41.359 18 40.639 18 39.808C18 38.811 18.811 38 19.808 38H20V40C20 40.598 20.058 41.181 20.143 41.755L19.369 41.562ZM22 40V39.414L25.535 35.879C26.102 35.313 26.855 35 27.657 35H36.343C37.145 35 37.899 35.313 38.465 35.879L42 39.414V40C42 45.514 37.514 50 32 50C26.486 50 22 45.514 22 40ZM28 51.3C29.253 51.745 30.596 52 32 52C33.404 52 34.747 51.745 36 51.3V53H28V51.3ZM32 56.882L28.236 55H35.763L32 56.882ZM60.492 37.656L58.281 53.867L53.036 48.622L54.665 29.899C54.809 28.246 56.168 27 57.826 27C59.576 27 61 28.424 61 30.174C61 32.666 60.829 35.184 60.492 37.656Z" fill="#333333"/>
<path d="M13.7127 15.157C15.4997 13.767 17.7327 13 19.9997 13C22.2667 13 24.4997 13.767 26.2867 15.157L37.3857 23.789L38.6147 22.211L34.6557 19.132L41.7757 14.601C43.4207 13.554 45.3217 13 47.3447 13C49.5237 13 51.6067 13.678 53.3677 14.959L61.4117 20.809L62.5877 19.192L54.5437 13.342C52.4377 11.81 49.9487 11 47.2727 11C45.1957 11 43.1687 11.528 41.3607 12.526C39.9247 8.636 36.2247 6 31.9997 6C28.2117 6 24.8317 8.097 23.1257 11.414C22.1087 11.144 21.0577 11 19.9997 11C17.2907 11 14.6207 11.916 12.4837 13.579L1.38574 22.211L2.61474 23.789L13.7127 15.157ZM31.9997 8C35.5157 8 38.5787 10.282 39.6177 13.604L32.9787 17.828L27.5157 13.579C26.7507 12.983 25.9147 12.488 25.0357 12.092C26.4367 9.579 29.0637 8 31.9997 8Z" fill="#333333"/>
<path d="M33 1H31V4H33V1Z" fill="#333333"/>
<path d="M25.3668 2.50887L23.6348 3.50907L25.1351 6.10707L26.8671 5.10687L25.3668 2.50887Z" fill="#333333"/>
<path d="M19.51 7.63455L18.5098 9.36655L21.1078 10.8668L22.108 9.13485L19.51 7.63455Z" fill="#333333"/>
<path d="M44.4919 7.63484L41.8936 9.13454L42.8934 10.8667L45.4917 9.36704L44.4919 7.63484Z" fill="#333333"/>
<path d="M38.6325 2.50805L37.1328 5.10635L38.865 6.10615L40.3647 3.50785L38.6325 2.50805Z" fill="#333333"/>
</svg>
