<svg width="64" height="64" viewBox="0 0 64 64" fill="none" xmlns="http://www.w3.org/2000/svg">
<path d="M17.2998 57.7C11.1998 57.7 6.2998 52.8 6.2998 46.7H8.2998C8.2998 51.7 12.2998 55.7 17.2998 55.7V57.7Z" fill="#333333"/>
<path d="M17.3 63C8.3 63 1 55.7 1 46.7H3C3 54.6 9.4 61 17.3 61C22.8 61 27.9 57.8 30.3 52.7L30.8 51.5L31.8 52.3C33.7 53.9 36.1 54.7 38.5 54.7C42.7 54.7 45.4 53.3 49 49.3C52 45.9 57.2 45.4 58.9 45.4C60.2 43.1 60.9 40.3 60.9 36.9C61.1 22.6 48.4 4.8 45.8 4.1C44.9 3.9 43.1 4.1 40.9 4.4C38.6 4.7 35.7 5.1 32.6 5.1C31.8 6.3 29.6 9.9 29.6 12.9C31.2 13.8 36.8 16.7 42.4 15.3C42.6 15.1 43.1 13.6 43.3 12.2L43.4 11.7L43.8 11.5C45.2 10.7 46.8 10.9 48.1 12.2C51.1 15.3 53.5 25 50.6 29.6C48.5 33 48 33.9 47.8 36.2L47.7 38.3L46 36.8C44.2 35.1 41.8 34.3 38.5 34.3C35 34.3 32 35.6 30.2 38L29.4 39L28.6 38C25.9 34.4 21.7 32.4 17.3 32.4C14.4 32.4 11.7 33.2 9.3 34.8L8.1 33.2H8.2C10.9 31.4 14.1 30.4 17.3 30.4C22 30.4 26.4 32.4 29.4 35.8C31.6 33.5 34.8 32.3 38.5 32.3C41.5 32.3 43.9 32.9 45.9 34.2C46.3 32.4 47.1 31.1 48.8 28.5C51 25 49.3 16.4 46.6 13.6C46.2 13.1 45.7 13 45.2 13.1C44.9 14.7 44.2 16.9 42.9 17.3C35.5 19.2 28.4 14.6 28.1 14.4L27.6 14V13.5C27.3 9.1 31.1 3.7 31.3 3.5L31.6 3.1H32.1C35.3 3.2 38.3 2.7 40.7 2.4C43.2 2 45.1 1.8 46.4 2.2C50 3.2 63.1 21.8 63 37C63 40.9 62.1 44.3 60.4 47L60.1 47.5H59.5C59.4 47.5 53.5 47.5 50.5 50.8C46.5 55.2 43.3 56.9 38.5 56.9C36 56.9 33.5 56.1 31.5 54.7C28.7 59.8 23.2 63 17.3 63Z" fill="#333333"/>
<path d="M8 9H6V20H8V9Z" fill="#333333"/>
<path d="M8 22H6V24H8V22Z" fill="#333333"/>
<path d="M8 26H6V28H8V26Z" fill="#333333"/>
<path d="M13 6H11V16H13V6Z" fill="#333333"/>
<path d="M13 18H11V20H13V18Z" fill="#333333"/>
<path d="M13 22H11V24H13V22Z" fill="#333333"/>
<path d="M18 9H16V22H18V9Z" fill="#333333"/>
<path d="M18 24H16V26H18V24Z" fill="#333333"/>
<path d="M20.2998 10.7L11.9998 3.3L3.6998 10.7L2.2998 9.3L11.9998 0.699997L21.6998 9.3L20.2998 10.7Z" fill="#333333"/>
</svg>
