<svg width="64" height="64" viewBox="0 0 64 64" fill="none" xmlns="http://www.w3.org/2000/svg">
<path d="M13 45H15C16.103 45 17 45.897 17 47H19C19 44.794 17.206 43 15 43V41H13V43C10.794 43 9 44.794 9 47C9 49.206 10.794 51 13 51H15C16.103 51 17 51.897 17 53C17 54.103 16.103 55 15 55H13C11.898 55 11 54.103 11 53H9C9 55.206 10.794 57 13 57V59H15V57C17.206 57 19 55.206 19 53C19 50.794 17.206 49 15 49H13C11.898 49 11 48.103 11 47C11 45.897 11.898 45 13 45Z" fill="#333333"/>
<path d="M60.071 3.929C56.173 0.0310009 49.827 0.0310009 45.928 3.929L45.221 4.636L51.586 11L51.239 11.347C46.962 7.41 41.258 5 35 5C28.742 5 23.038 7.41 18.761 11.347L18.414 11L24.778 4.636L24.071 3.929C20.173 0.0310009 13.827 0.0310009 9.928 3.929C6.029 7.828 6.029 14.172 9.928 18.072L10.635 18.779L17 12.414L17.347 12.761C13.41 17.038 11 22.742 11 29C11 31.767 11.483 34.486 12.432 37.104C6.002 37.882 1 43.364 1 50C1 57.168 6.832 63 14 63C18.633 63 22.697 60.556 25 56.896V63H51V46.869C56.087 42.312 59 35.829 59 29C59 22.742 56.59 17.038 52.653 12.761L53 12.414L59.364 18.778L60.071 18.071C63.971 14.172 63.971 7.828 60.071 3.929ZM11.343 5.343C12.902 3.783 14.951 3.003 17 3.003C18.734 3.003 20.469 3.563 21.906 4.68L10.68 15.906C8.242 12.771 8.463 8.223 11.343 5.343ZM14 61C7.935 61 3 56.065 3 50C3 43.935 7.935 39 14 39C14.451 39 14.896 39.035 15.338 39.09C15.44 39.102 15.54 39.121 15.642 39.136C16.008 39.192 16.371 39.263 16.727 39.356C16.798 39.374 16.87 39.391 16.941 39.411C17.812 39.656 18.648 40.005 19.431 40.451C19.477 40.477 19.522 40.506 19.568 40.533C19.93 40.747 20.281 40.979 20.617 41.233C20.647 41.255 20.677 41.277 20.706 41.3C21.027 41.547 21.331 41.818 21.624 42.1C21.693 42.167 21.763 42.233 21.83 42.301C22.114 42.589 22.384 42.893 22.636 43.214C22.689 43.281 22.739 43.351 22.79 43.419C23.033 43.743 23.262 44.079 23.471 44.432C23.515 44.506 23.562 44.576 23.604 44.651L23.686 44.793C24.523 46.345 25 48.117 25 50C25 56.065 20.065 61 14 61ZM49 48.609V49H27V45H29V47H31V45H33V47H35V45H37V47H39V45H41V47H43V45H45V47H47V45H49V48.609ZM27 55V51H29V53H31V51H33V53H35V51H37V53H39V51H41V53H43V51H45V53H47V51H49V55H27ZM46.285 43H25H24.943C24.937 42.991 24.93 42.983 24.924 42.974C24.915 42.961 24.905 42.948 24.897 42.934C24.786 42.763 24.668 42.597 24.549 42.432C24.462 42.311 24.372 42.191 24.281 42.073C24.149 41.902 24.017 41.732 23.876 41.568C23.823 41.506 23.765 41.448 23.711 41.386C23.479 41.124 23.24 40.87 22.988 40.629C22.941 40.584 22.892 40.543 22.845 40.499C22.817 40.473 22.789 40.448 22.761 40.422C22.68 40.348 22.6 40.273 22.518 40.201C22.345 40.05 22.168 39.905 21.987 39.763C21.926 39.715 21.865 39.668 21.804 39.622C21.759 39.588 21.713 39.557 21.667 39.524C21.395 39.325 21.116 39.136 20.829 38.958C20.671 38.859 20.514 38.759 20.352 38.668C20.189 38.576 20.022 38.493 19.856 38.408C19.767 38.363 19.68 38.312 19.59 38.269C17.894 35.471 17 32.272 17 29C17 19.075 25.075 11 35 11C44.925 11 53 19.075 53 29C53 34.474 50.557 39.557 46.285 43ZM27 61V57H29V59H31V57H33V59H35V57H37V59H39V57H41V59H43V57H45V59H47V57H49V61H27ZM51 44.091V43H49.253C52.93 39.277 55 34.306 55 29C55 17.972 46.028 9 35 9C23.972 9 15 17.972 15 29C15 31.886 15.632 34.718 16.83 37.32C16.644 37.278 16.455 37.245 16.266 37.211C16.124 37.186 15.982 37.166 15.839 37.146C15.509 37.099 15.176 37.065 14.838 37.043C14.735 37.036 14.634 37.015 14.53 37.011C13.515 34.432 13 31.739 13 29C13 16.869 22.869 7 35 7C47.131 7 57 16.869 57 29C57 34.639 54.837 40.023 51 44.091ZM59.32 15.906L48.094 4.68C51.23 2.244 55.778 2.464 58.657 5.343C61.537 8.223 61.758 12.771 59.32 15.906Z" fill="#333333"/>
<path d="M37.816 28C37.514 27.153 36.847 26.486 36 26.184V13H34V26.184C32.839 26.598 32 27.698 32 29C32 30.654 33.346 32 35 32C36.302 32 37.402 31.162 37.816 30H49V28H37.816ZM35 30C34.448 30 34 29.552 34 29C34 28.448 34.448 28 35 28C35.552 28 36 28.448 36 29C36 29.552 35.552 30 35 30Z" fill="#333333"/>
</svg>
