<svg width="64" height="64" viewBox="0 0 64 64" fill="none" xmlns="http://www.w3.org/2000/svg">
<path d="M40.82 40.936L33 39.198V36.727C35.918 34.621 37.85 31.242 37.979 27.407C40.568 24.674 42 21.122 42 17.343V13C42 10.468 40.107 8.368 37.662 8.044C35.564 3.745 31.204 1 26.384 1H24.701C21.449 1 18.243 2.1 15.675 4.097C12.068 6.902 10 11.132 10 15.701V17.343C10 21.122 11.432 24.674 14.021 27.407C14.15 31.242 16.082 34.621 19 36.727V39.198L11.18 40.935C5.186 42.268 1 47.485 1 53.626V63H51V53.626C51 47.485 46.814 42.268 40.82 40.936ZM33.891 41.445L32.26 49.596L27.562 47.582L32.412 41.116L33.891 41.445ZM33.737 17H36V21H33.737C33.903 20.359 34 19.692 34 19C34 18.308 33.903 17.641 33.737 17ZM12 15.701C12 11.753 13.787 8.098 16.903 5.675C19.122 3.95 21.892 3 24.701 3H26.384C30.61 3 34.416 5.51 36.081 9.394L36.341 10H37C38.654 10 40 11.346 40 13V17.343C40 19.799 39.297 22.145 38 24.163V23V22V15H32.917C31.531 12.613 28.953 11 26 11C23.047 11 20.468 12.613 19.083 15H14V22V23V24.163C12.703 22.145 12 19.799 12 17.343V15.701ZM32 19C32 22.309 29.309 25 26 25C22.691 25 20 22.309 20 19C20 15.691 22.691 13 26 13C29.309 13 32 15.691 32 19ZM18.263 21H16V17H18.263C18.097 17.641 18 18.308 18 19C18 19.692 18.097 20.359 18.263 21ZM16 27V23H19.083C20.469 25.387 23.047 27 26 27C28.953 27 31.532 25.387 32.917 23H36V27C36 32.514 31.514 37 26 37C20.486 37 16 32.514 16 27ZM26 39C27.786 39 29.476 38.597 31 37.895V39.668L26 46.335L21 39.668V37.895C22.524 38.597 24.214 39 26 39ZM19.587 41.116L24.437 47.582L19.739 49.596L18.108 41.445L19.587 41.116ZM3 53.626C3 48.431 6.542 44.015 11.613 42.889L16.156 41.879L18.261 52.405L25 49.516V61H13V57H11V61H3V53.626ZM49 61H41V57H39V61H27V49.516L33.739 52.404L35.844 41.878L40.387 42.888C45.458 44.015 49 48.431 49 53.626V61Z" fill="#333333"/>
<path d="M26 16C24.346 16 23 17.346 23 19C23 20.654 24.346 22 26 22C27.654 22 29 20.654 29 19C29 17.346 27.654 16 26 16ZM26 20C25.448 20 25 19.552 25 19C25 18.448 25.448 18 26 18C26.552 18 27 18.448 27 19C27 19.552 26.552 20 26 20Z" fill="#333333"/>
<path d="M59 43C56.794 43 55 44.794 55 47C55 48.859 56.279 50.411 58 50.858V59C58 60.103 57.103 61 56 61C54.897 61 54 60.103 54 59V37.931C57.94 37.436 61 34.072 61 30V24H57V23H55V27H57V26H59V30C59 33.309 56.309 36 53 36C49.691 36 47 33.309 47 30V26H49V27H51V23H49V24H45V30C45 34.072 48.06 37.436 52 37.931V59C52 61.206 53.794 63 56 63C58.206 63 60 61.206 60 59V50.858C61.721 50.411 63 48.859 63 47C63 44.794 61.206 43 59 43ZM59 49C57.897 49 57 48.103 57 47C57 45.897 57.897 45 59 45C60.103 45 61 45.897 61 47C61 48.103 60.103 49 59 49Z" fill="#333333"/>
</svg>
