<svg width="64" height="64" viewBox="0 0 64 64" fill="none" xmlns="http://www.w3.org/2000/svg">
<path d="M18.0002 54C15.0002 54 12.8002 54 9.7002 52.9L10.3002 51C13.2002 52 15.1002 52 18.0002 52V54Z" fill="#333333"/>
<path d="M23.1004 54L22.9004 52C32.9004 50.7 41.9004 44.9 48.2004 35.4L49.9004 36.5C43.2004 46.5 33.7004 52.7 23.1004 54Z" fill="#333333"/>
<path d="M21 60C5.7 60 4 53.8 4 51.1C4 49.2 4.6 47.6 5.8 46.4C7.4 44.8 9.8 44 13 44C30.3 43.3 43.9 29.2 44 12C44 7.1 46.3 4 50 4C51.5 4 53 4.8 54.3 6.4C57.2 9.9 59.4 18 57 30.2L55 29.8C57.3 18.3 55.2 10.7 52.7 7.6C52.1 6.9 51.2 6 50 6C46.4 6 46 10.2 46 12C45.9 30.3 31.4 45.3 13 46C10.3 46 8.3 46.6 7.2 47.8C6.4 48.6 6 49.7 6 51.1C6 55.4 11.6 58 21 58C32.1 58 45.5 51.7 50.8 44L52.4 45.1C46.8 53.4 32.7 60 21 60Z" fill="#333333"/>
<path d="M55.5 30.9C48 26.6 40.8 30.7 40.5 30.9L39.5 29.2C39.8 29 48 24.3 56.5 29.2L55.5 30.9Z" fill="#333333"/>
<path d="M54.0004 57C53.0004 57 52.3004 56.7 51.7004 56.1C50.9004 55.2 50.9004 53.9 51.0004 52.9C51.3004 49.3 50.9004 44.7 50.0004 41.2C49.0004 37.2 44.9004 31.5 38.9004 31L39.1004 29C46.1004 29.6 50.9004 36.2 52.0004 40.8C52.9004 44.4 53.3004 49.4 53.0004 53.1C52.9004 54 53.0004 54.6 53.2004 54.8C53.4004 55 53.7004 55 54.0004 55C56.1004 55 58.6004 51.2 59.0004 44.9C59.3004 38.9 57.9004 33.2 55.3004 30.7L56.7004 29.3C59.7004 32.3 61.4004 38.5 61.0004 45.1C60.6004 52 57.7004 57 54.0004 57Z" fill="#333333"/>
<path d="M24.8 32.5L23.5 31C29.9 25.6 40.3 29.1 40.4 29.2L40 30L39.7 30.9C39.6 30.9 30.2 27.9 24.8 32.5Z" fill="#333333"/>
<path d="M24.9 41C23.9 41 23 40.6 22.3 40C21.5 39.2 21 38.1 21 37C21 34.5 22.7 31.4 25.5 28.8C30 24.6 36.4 22.5 43 23L42.8 25C36.7 24.5 30.9 26.4 26.8 30.2C24.5 32.4 23 35.1 23 37C23 37.4 23.2 38.1 23.7 38.5C24 38.9 24.5 39 25 39C26.1 39 27.1 37.6 28.3 36C30.4 33.1 33.2 29.2 39.2 30L38.9 32C34.1 31.3 31.9 34.3 29.9 37.1C28.5 39 27.2 40.9 25.1 41C25 41 24.9 41 24.9 41Z" fill="#333333"/>
<path d="M60.8002 42.6L59.2002 41.4C60.4002 39.7 61.0002 37.9 61.0002 36C61.0002 31.6 57.8002 27.7 55.7002 27L56.3002 25.1C59.1002 26 63.0002 30.6 63.0002 36C63.0002 38.4 62.3002 40.6 60.8002 42.6Z" fill="#333333"/>
<path d="M4.7 52.9L1 51.7V48.6L2.6 47H6V49H3.4L3 49.4V50.3L5.3 51.1L4.7 52.9Z" fill="#343433"/>
</svg>
