<svg id="Layer_1" data-name="Layer 1" xmlns="http://www.w3.org/2000/svg" viewBox="0 0 57 55"><defs><style>.cls-1{fill:none;stroke:#333;stroke-miterlimit:10;stroke-width:2px;}</style></defs><path class="cls-1" d="M9.45,8.56H8.34A3.63,3.63,0,0,0,5,12.41v3.85c0,8.49,6,15.38,13.36,15.38h0c7.38,0,13.37-6.89,13.37-15.38V12.41a3.63,3.63,0,0,0-3.34-3.85H27.27" transform="translate(-4 -5)"/><path class="cls-1" d="M7.45,1h4.68a0,0,0,0,1,0,0V6.13a0,0,0,0,1,0,0H7.45a2,2,0,0,1-2-2V3a2,2,0,0,1,2-2Z"/><path class="cls-1" d="M17.7,1h4.68a2,2,0,0,1,2,2V4.13a2,2,0,0,1-2,2H17.7a0,0,0,0,1,0,0V1A0,0,0,0,1,17.7,1Z"/><path class="cls-1" d="M18.36,32V53.32c0,3.14,2,5.68,4.46,5.68H49.55C52,59,54,56.46,54,53.32V47.63" transform="translate(-4 -5)"/><circle class="cls-1" cx="50" cy="37" r="6"/><circle class="cls-1" cx="50" cy="37" r="2"/></svg>