<svg width="121" height="32" viewBox="0 0 121 32" fill="none" xmlns="http://www.w3.org/2000/svg">
<path d="M12.1475 6L15.2375 12.26L22.1475 13.27L17.1475 18.14L18.3275 25.02L12.1475 21.77L5.96746 25.02L7.14746 18.14L2.14746 13.27L9.05746 12.26L12.1475 6Z" fill="#FFC43B"/>
<path d="M36.1475 6L39.2375 12.26L46.1475 13.27L41.1475 18.14L42.3275 25.02L36.1475 21.77L29.9675 25.02L31.1475 18.14L26.1475 13.27L33.0575 12.26L36.1475 6Z" fill="#FFC43B"/>
<path d="M60.1475 6L63.2375 12.26L70.1475 13.27L65.1475 18.14L66.3275 25.02L60.1475 21.77L53.9675 25.02L55.1475 18.14L50.1475 13.27L57.0575 12.26L60.1475 6Z" fill="#FFC43B"/>
<path d="M84.1475 6L87.2375 12.26L94.1475 13.27L89.1475 18.14L90.3275 25.02L84.1475 21.77L77.9675 25.02L79.1475 18.14L74.1475 13.27L81.0575 12.26L84.1475 6Z" fill="#FFC43B"/>
<path d="M108.147 6L111.237 12.26L118.147 13.27L113.147 18.14L114.327 25.02L108.147 21.77L101.967 25.02L103.147 18.14L98.1475 13.27L105.057 12.26L108.147 6Z" fill="#FFC43B"/>
<path d="M111.237 12.26L108.147 6V21.77L114.327 25.02L113.147 18.14L118.147 13.27L111.237 12.26Z" fill="#FFC43B"/>
</svg>
