<svg width="99" height="38" viewBox="0 0 99 38" fill="none" xmlns="http://www.w3.org/2000/svg">
<path d="M52.1989 0H58.6679V37.1388H52.1989V0ZM61.5853 37.3545H68.0543V0.210824H61.5853V37.3545ZM99 9.44684V37.3512H93.091V35.8883C93.0911 35.8237 93.074 35.7602 93.0415 35.7047C93.009 35.6492 92.9623 35.6038 92.9063 35.5732C92.8505 35.5426 92.7875 35.528 92.7242 35.5312C92.6608 35.5342 92.5995 35.5548 92.5467 35.5906C90.3721 37.0531 87.8472 37.8821 85.2446 37.9883C82.6418 38.0946 80.0602 37.4739 77.7779 36.1933C75.4957 34.9127 73.5996 33.0208 72.2942 30.7217C70.9889 28.4226 70.3236 25.8035 70.3705 23.1472C70.4967 15.5076 76.4767 9.19417 83.9603 8.81436C87.2256 8.64249 90.4497 9.62158 93.091 11.5873V9.44362L99 9.44684ZM93.091 23.4014C93.0914 21.7051 92.5984 20.0468 91.6747 18.6362C90.7509 17.2256 89.4378 16.1261 87.9013 15.4768C86.3648 14.8275 84.6741 14.6575 83.0429 14.9884C81.4117 15.3192 79.9134 16.1361 78.7374 17.3355C77.5614 18.5351 76.7606 20.0634 76.4363 21.7271C76.1119 23.3908 76.2784 25.1154 76.9151 26.6825C77.5517 28.2497 78.6296 29.5891 80.0126 30.5314C81.3955 31.4736 83.0214 31.9763 84.6845 31.9761C86.9138 31.9735 89.0511 31.0688 90.6272 29.4606C92.2033 27.8525 93.0894 25.6721 93.091 23.3982V23.4014ZM50.2534 23.1874C50.2523 23.829 50.2096 24.4698 50.1256 25.1057H27.7459C28.1112 26.7282 28.9317 28.2071 30.1074 29.3617C31.2831 30.5164 32.763 31.2969 34.3664 31.6078C35.9698 31.9188 37.6272 31.7468 39.1363 31.1129C40.6455 30.4789 41.9409 29.4105 42.8645 28.0379L48.2386 30.6419C46.4666 33.6764 43.6757 35.9524 40.3836 37.0477C37.0916 38.1429 33.5217 37.9831 30.3364 36.5978C27.151 35.2126 24.5664 32.6958 23.062 29.5146C21.5576 26.3334 21.2355 22.7035 22.1554 19.2985C23.0754 15.8934 25.1749 12.9442 28.0647 10.9981C30.9543 9.05197 34.4381 8.24094 37.8694 8.71548C41.3008 9.19 44.447 10.9179 46.7243 13.5786C49.0016 16.2393 50.2556 19.6522 50.2534 23.1842V23.1874ZM28.0473 20.2279H43.8254C43.2312 18.5815 42.1563 17.1607 40.7456 16.157C39.3348 15.1534 37.6562 14.6153 35.9363 14.6153C34.2163 14.6153 32.5377 15.1534 31.127 16.157C29.7163 17.1607 28.6414 18.5815 28.0473 20.2279ZM24.7859 5.8065V0H8.18728C6.01588 0 3.93341 0.879824 2.398 2.44592C0.862588 4.01201 0 6.13609 0 8.35088V37.1388H6.48324V23.3644C6.48366 22.8456 6.68561 22.3479 7.04491 21.9805C7.4042 21.6131 7.89156 21.406 8.40029 21.4043H19.456V15.5961H6.48324V7.76829C6.48324 7.24799 6.68588 6.74901 7.04658 6.3811C7.40729 6.0132 7.8965 5.8065 8.4066 5.8065H24.7859Z" fill="#F2ECE5"/>
</svg>
