<svg width="351" height="136" viewBox="0 0 351 136" fill="none" xmlns="http://www.w3.org/2000/svg">
<path d="M185.069 0H208.004V132.918H185.069V0ZM218.348 133.689H241.283V0.754526H218.348V133.689ZM351 33.8097V133.678H330.05V128.442C330.05 128.211 329.99 127.984 329.874 127.785C329.759 127.586 329.593 127.424 329.395 127.314C329.197 127.205 328.974 127.153 328.749 127.164C328.525 127.175 328.307 127.249 328.12 127.377C320.41 132.611 311.458 135.578 302.231 135.958C293.003 136.338 283.85 134.117 275.758 129.534C267.667 124.951 260.944 118.18 256.316 109.951C251.688 101.723 249.329 92.3495 249.496 82.8425C249.943 55.5009 271.145 32.9054 297.677 31.5461C309.255 30.931 320.685 34.4351 330.05 41.4702V33.7982L351 33.8097ZM330.05 83.7525C330.051 77.6813 328.304 71.7463 325.029 66.6978C321.753 61.6494 317.098 57.7144 311.65 55.3906C306.203 53.0667 300.208 52.4584 294.425 53.6425C288.642 54.8267 283.329 57.7501 279.16 62.043C274.991 66.3359 272.151 71.8056 271.001 77.7601C269.851 83.7146 270.442 89.8866 272.699 95.4953C274.956 101.104 278.778 105.898 283.681 109.27C288.584 112.642 294.349 114.442 300.245 114.44C308.149 114.431 315.727 111.194 321.315 105.438C326.903 99.6824 330.044 91.8791 330.05 83.741V83.7525ZM178.171 82.9865C178.167 85.2828 178.016 87.5763 177.718 89.8521H98.3718C99.6669 95.6588 102.576 100.952 106.745 105.084C110.913 109.216 116.16 112.01 121.844 113.123C127.529 114.236 133.405 113.62 138.756 111.351C144.106 109.082 148.7 105.258 151.974 100.346L171.028 109.666C164.745 120.526 154.85 128.672 143.178 132.592C131.506 136.511 118.85 135.939 107.556 130.982C96.2627 126.024 87.0991 117.017 81.7653 105.631C76.4314 94.2456 75.2894 81.2547 78.551 69.0681C81.8127 56.8816 89.2566 46.3268 99.5019 39.3616C109.747 32.3965 122.098 29.4939 134.264 31.1922C146.43 32.8905 157.585 39.0745 165.659 48.597C173.733 58.1196 178.179 70.3341 178.171 82.9749V82.9865ZM99.4402 72.3943H155.381C153.274 66.5021 149.463 61.417 144.462 57.8251C139.46 54.2332 133.509 52.3074 127.411 52.3074C121.313 52.3074 115.361 54.2332 110.36 57.8251C105.358 61.417 101.547 66.5021 99.4402 72.3943ZM87.8773 20.7812V0H29.0276C21.329 0 13.9457 3.14884 8.502 8.7538C3.05827 14.3588 0 21.9607 0 29.8873V132.918H22.9861V83.62C22.9875 81.7629 23.7036 79.982 24.9774 78.6672C26.2513 77.3524 27.9792 76.6107 29.7829 76.6046H68.9805V55.8177H22.9861V27.8023C22.9861 25.9402 23.7045 24.1543 24.9833 22.8376C26.2622 21.5209 27.9967 20.7812 29.8052 20.7812H87.8773Z" fill="#1E1F1E"/>
</svg>
