<svg width="16" height="16" viewBox="0 0 16 16" fill="none" xmlns="http://www.w3.org/2000/svg">
<path d="M9.87818 7.9996L15.606 2.28431C15.8568 2.03344 15.9977 1.6932 15.9977 1.33842C15.9977 0.983642 15.8568 0.643397 15.606 0.392532C15.3552 0.141667 15.015 0.000732422 14.6602 0.000732422C14.3055 0.000732422 13.9653 0.141667 13.7145 0.392532L8 6.12114L2.28552 0.392532C2.03469 0.141667 1.6945 0.000732419 1.33977 0.000732422C0.985044 0.000732425 0.644846 0.141667 0.394017 0.392532C0.143188 0.643397 0.00227327 0.983642 0.00227327 1.33842C0.00227327 1.6932 0.143188 2.03344 0.394017 2.28431L6.12182 7.9996L0.394017 13.7149C0.269166 13.8387 0.17007 13.9861 0.102444 14.1484C0.0348177 14.3108 0 14.4849 0 14.6608C0 14.8366 0.0348177 15.0108 0.102444 15.1731C0.17007 15.3355 0.269166 15.4828 0.394017 15.6067C0.517848 15.7315 0.665174 15.8306 0.827496 15.8983C0.989818 15.9659 1.16392 16.0007 1.33977 16.0007C1.51562 16.0007 1.68972 15.9659 1.85204 15.8983C2.01437 15.8306 2.16169 15.7315 2.28552 15.6067L8 9.87805L13.7145 15.6067C13.8383 15.7315 13.9856 15.8306 14.148 15.8983C14.3103 15.9659 14.4844 16.0007 14.6602 16.0007C14.8361 16.0007 15.0102 15.9659 15.1725 15.8983C15.3348 15.8306 15.4822 15.7315 15.606 15.6067C15.7308 15.4828 15.8299 15.3355 15.8976 15.1731C15.9652 15.0108 16 14.8366 16 14.6608C16 14.4849 15.9652 14.3108 15.8976 14.1484C15.8299 13.9861 15.7308 13.8387 15.606 13.7149L9.87818 7.9996Z" fill="#231F20"/>
</svg>
