<svg width="1266" height="2" viewBox="0 0 1266 2" fill="none" xmlns="http://www.w3.org/2000/svg">
<g clip-path="url(#clip0_18_79)">
<rect width="2" height="2" fill="#1E201E" fill-opacity="0.2"/>
<rect x="4" width="2" height="2" fill="#1E201E" fill-opacity="0.2"/>
<rect x="8" width="2" height="2" fill="#1E201E" fill-opacity="0.2"/>
<rect x="12" width="2" height="2" fill="#1E201E" fill-opacity="0.2"/>
<rect x="16" width="2" height="2" fill="#1E201E" fill-opacity="0.2"/>
<rect x="20" width="2" height="2" fill="#1E201E" fill-opacity="0.2"/>
<rect x="24" width="2" height="2" fill="#1E201E" fill-opacity="0.2"/>
<rect x="28" width="2" height="2" fill="#1E201E" fill-opacity="0.2"/>
<rect x="32" width="2" height="2" fill="#1E201E" fill-opacity="0.2"/>
<rect x="36" width="2" height="2" fill="#1E201E" fill-opacity="0.2"/>
<rect x="40" width="2" height="2" fill="#1E201E" fill-opacity="0.2"/>
<rect x="44" width="2" height="2" fill="#1E201E" fill-opacity="0.2"/>
<rect x="48" width="2" height="2" fill="#1E201E" fill-opacity="0.2"/>
<rect x="52" width="2" height="2" fill="#1E201E" fill-opacity="0.2"/>
<rect x="56" width="2" height="2" fill="#1E201E" fill-opacity="0.2"/>
<rect x="60" width="2" height="2" fill="#1E201E" fill-opacity="0.2"/>
<rect x="64" width="2" height="2" fill="#1E201E" fill-opacity="0.2"/>
<rect x="68" width="2" height="2" fill="#1E201E" fill-opacity="0.2"/>
<rect x="72" width="2" height="2" fill="#1E201E" fill-opacity="0.2"/>
<rect x="76" width="2" height="2" fill="#1E201E" fill-opacity="0.2"/>
<rect x="80" width="2" height="2" fill="#1E201E" fill-opacity="0.2"/>
<rect x="84" width="2" height="2" fill="#1E201E" fill-opacity="0.2"/>
<rect x="88" width="2" height="2" fill="#1E201E" fill-opacity="0.2"/>
<rect x="92" width="2" height="2" fill="#1E201E" fill-opacity="0.2"/>
<rect x="96" width="2" height="2" fill="#1E201E" fill-opacity="0.2"/>
<rect x="100" width="2" height="2" fill="#1E201E" fill-opacity="0.2"/>
<rect x="104" width="2" height="2" fill="#1E201E" fill-opacity="0.2"/>
<rect x="108" width="2" height="2" fill="#1E201E" fill-opacity="0.2"/>
<rect x="112" width="2" height="2" fill="#1E201E" fill-opacity="0.2"/>
<rect x="116" width="2" height="2" fill="#1E201E" fill-opacity="0.2"/>
<rect x="120" width="2" height="2" fill="#1E201E" fill-opacity="0.2"/>
<rect x="124" width="2" height="2" fill="#1E201E" fill-opacity="0.2"/>
<rect x="128" width="2" height="2" fill="#1E201E" fill-opacity="0.2"/>
<rect x="132" width="2" height="2" fill="#1E201E" fill-opacity="0.2"/>
<rect x="136" width="2" height="2" fill="#1E201E" fill-opacity="0.2"/>
<rect x="140" width="2" height="2" fill="#1E201E" fill-opacity="0.2"/>
<rect x="144" width="2" height="2" fill="#1E201E" fill-opacity="0.2"/>
<rect x="148" width="2" height="2" fill="#1E201E" fill-opacity="0.2"/>
<rect x="152" width="2" height="2" fill="#1E201E" fill-opacity="0.2"/>
<rect x="156" width="2" height="2" fill="#1E201E" fill-opacity="0.2"/>
<rect x="160" width="2" height="2" fill="#1E201E" fill-opacity="0.2"/>
<rect x="164" width="2" height="2" fill="#1E201E" fill-opacity="0.2"/>
<rect x="168" width="2" height="2" fill="#1E201E" fill-opacity="0.2"/>
<rect x="172" width="2" height="2" fill="#1E201E" fill-opacity="0.2"/>
<rect x="176" width="2" height="2" fill="#1E201E" fill-opacity="0.2"/>
<rect x="180" width="2" height="2" fill="#1E201E" fill-opacity="0.2"/>
<rect x="184" width="2" height="2" fill="#1E201E" fill-opacity="0.2"/>
<rect x="188" width="2" height="2" fill="#1E201E" fill-opacity="0.2"/>
<rect x="192" width="2" height="2" fill="#1E201E" fill-opacity="0.2"/>
<rect x="196" width="2" height="2" fill="#1E201E" fill-opacity="0.2"/>
<rect x="200" width="2" height="2" fill="#1E201E" fill-opacity="0.2"/>
<rect x="204" width="2" height="2" fill="#1E201E" fill-opacity="0.2"/>
<rect x="208" width="2" height="2" fill="#1E201E" fill-opacity="0.2"/>
<rect x="212" width="2" height="2" fill="#1E201E" fill-opacity="0.2"/>
<rect x="216" width="2" height="2" fill="#1E201E" fill-opacity="0.2"/>
<rect x="220" width="2" height="2" fill="#1E201E" fill-opacity="0.2"/>
<rect x="224" width="2" height="2" fill="#1E201E" fill-opacity="0.2"/>
<rect x="228" width="2" height="2" fill="#1E201E" fill-opacity="0.2"/>
<rect x="232" width="2" height="2" fill="#1E201E" fill-opacity="0.2"/>
<rect x="236" width="2" height="2" fill="#1E201E" fill-opacity="0.2"/>
<rect x="240" width="2" height="2" fill="#1E201E" fill-opacity="0.2"/>
<rect x="244" width="2" height="2" fill="#1E201E" fill-opacity="0.2"/>
<rect x="248" width="2" height="2" fill="#1E201E" fill-opacity="0.2"/>
<rect x="252" width="2" height="2" fill="#1E201E" fill-opacity="0.2"/>
<rect x="256" width="2" height="2" fill="#1E201E" fill-opacity="0.2"/>
<rect x="260" width="2" height="2" fill="#1E201E" fill-opacity="0.2"/>
<rect x="264" width="2" height="2" fill="#1E201E" fill-opacity="0.2"/>
<rect x="268" width="2" height="2" fill="#1E201E" fill-opacity="0.2"/>
<rect x="272" width="2" height="2" fill="#1E201E" fill-opacity="0.2"/>
<rect x="276" width="2" height="2" fill="#1E201E" fill-opacity="0.2"/>
<rect x="280" width="2" height="2" fill="#1E201E" fill-opacity="0.2"/>
<rect x="284" width="2" height="2" fill="#1E201E" fill-opacity="0.2"/>
<rect x="288" width="2" height="2" fill="#1E201E" fill-opacity="0.2"/>
<rect x="292" width="2" height="2" fill="#1E201E" fill-opacity="0.2"/>
<rect x="296" width="2" height="2" fill="#1E201E" fill-opacity="0.2"/>
<rect x="300" width="2" height="2" fill="#1E201E" fill-opacity="0.2"/>
<rect x="304" width="2" height="2" fill="#1E201E" fill-opacity="0.2"/>
<rect x="308" width="2" height="2" fill="#1E201E" fill-opacity="0.2"/>
<rect x="312" width="2" height="2" fill="#1E201E" fill-opacity="0.2"/>
<rect x="316" width="2" height="2" fill="#1E201E" fill-opacity="0.2"/>
<rect x="320" width="2" height="2" fill="#1E201E" fill-opacity="0.2"/>
<rect x="324" width="2" height="2" fill="#1E201E" fill-opacity="0.2"/>
<rect x="328" width="2" height="2" fill="#1E201E" fill-opacity="0.2"/>
<rect x="332" width="2" height="2" fill="#1E201E" fill-opacity="0.2"/>
<rect x="336" width="2" height="2" fill="#1E201E" fill-opacity="0.2"/>
<rect x="340" width="2" height="2" fill="#1E201E" fill-opacity="0.2"/>
<rect x="344" width="2" height="2" fill="#1E201E" fill-opacity="0.2"/>
<rect x="348" width="2" height="2" fill="#1E201E" fill-opacity="0.2"/>
<rect x="352" width="2" height="2" fill="#1E201E" fill-opacity="0.2"/>
<rect x="356" width="2" height="2" fill="#1E201E" fill-opacity="0.2"/>
<rect x="360" width="2" height="2" fill="#1E201E" fill-opacity="0.2"/>
<rect x="364" width="2" height="2" fill="#1E201E" fill-opacity="0.2"/>
<rect x="368" width="2" height="2" fill="#1E201E" fill-opacity="0.2"/>
<rect x="372" width="2" height="2" fill="#1E201E" fill-opacity="0.2"/>
<rect x="376" width="2" height="2" fill="#1E201E" fill-opacity="0.2"/>
<rect x="380" width="2" height="2" fill="#1E201E" fill-opacity="0.2"/>
<rect x="384" width="2" height="2" fill="#1E201E" fill-opacity="0.2"/>
<rect x="388" width="2" height="2" fill="#1E201E" fill-opacity="0.2"/>
<rect x="392" width="2" height="2" fill="#1E201E" fill-opacity="0.2"/>
<rect x="396" width="2" height="2" fill="#1E201E" fill-opacity="0.2"/>
<rect x="400" width="2" height="2" fill="#1E201E" fill-opacity="0.2"/>
<rect x="404" width="2" height="2" fill="#1E201E" fill-opacity="0.2"/>
<rect x="408" width="2" height="2" fill="#1E201E" fill-opacity="0.2"/>
<rect x="412" width="2" height="2" fill="#1E201E" fill-opacity="0.2"/>
<rect x="416" width="2" height="2" fill="#1E201E" fill-opacity="0.2"/>
<rect x="420" width="2" height="2" fill="#1E201E" fill-opacity="0.2"/>
<rect x="424" width="2" height="2" fill="#1E201E" fill-opacity="0.2"/>
<rect x="428" width="2" height="2" fill="#1E201E" fill-opacity="0.2"/>
<rect x="432" width="2" height="2" fill="#1E201E" fill-opacity="0.2"/>
<rect x="436" width="2" height="2" fill="#1E201E" fill-opacity="0.2"/>
<rect x="440" width="2" height="2" fill="#1E201E" fill-opacity="0.2"/>
<rect x="444" width="2" height="2" fill="#1E201E" fill-opacity="0.2"/>
<rect x="448" width="2" height="2" fill="#1E201E" fill-opacity="0.2"/>
<rect x="452" width="2" height="2" fill="#1E201E" fill-opacity="0.2"/>
<rect x="456" width="2" height="2" fill="#1E201E" fill-opacity="0.2"/>
<rect x="460" width="2" height="2" fill="#1E201E" fill-opacity="0.2"/>
<rect x="464" width="2" height="2" fill="#1E201E" fill-opacity="0.2"/>
<rect x="468" width="2" height="2" fill="#1E201E" fill-opacity="0.2"/>
<rect x="472" width="2" height="2" fill="#1E201E" fill-opacity="0.2"/>
<rect x="476" width="2" height="2" fill="#1E201E" fill-opacity="0.2"/>
<rect x="480" width="2" height="2" fill="#1E201E" fill-opacity="0.2"/>
<rect x="484" width="2" height="2" fill="#1E201E" fill-opacity="0.2"/>
<rect x="488" width="2" height="2" fill="#1E201E" fill-opacity="0.2"/>
<rect x="492" width="2" height="2" fill="#1E201E" fill-opacity="0.2"/>
<rect x="496" width="2" height="2" fill="#1E201E" fill-opacity="0.2"/>
<rect x="500" width="2" height="2" fill="#1E201E" fill-opacity="0.2"/>
<rect x="504" width="2" height="2" fill="#1E201E" fill-opacity="0.2"/>
<rect x="508" width="2" height="2" fill="#1E201E" fill-opacity="0.2"/>
<rect x="512" width="2" height="2" fill="#1E201E" fill-opacity="0.2"/>
<rect x="516" width="2" height="2" fill="#1E201E" fill-opacity="0.2"/>
<rect x="520" width="2" height="2" fill="#1E201E" fill-opacity="0.2"/>
<rect x="524" width="2" height="2" fill="#1E201E" fill-opacity="0.2"/>
<rect x="528" width="2" height="2" fill="#1E201E" fill-opacity="0.2"/>
<rect x="532" width="2" height="2" fill="#1E201E" fill-opacity="0.2"/>
<rect x="536" width="2" height="2" fill="#1E201E" fill-opacity="0.2"/>
<rect x="540" width="2" height="2" fill="#1E201E" fill-opacity="0.2"/>
<rect x="544" width="2" height="2" fill="#1E201E" fill-opacity="0.2"/>
<rect x="548" width="2" height="2" fill="#1E201E" fill-opacity="0.2"/>
<rect x="552" width="2" height="2" fill="#1E201E" fill-opacity="0.2"/>
<rect x="556" width="2" height="2" fill="#1E201E" fill-opacity="0.2"/>
<rect x="560" width="2" height="2" fill="#1E201E" fill-opacity="0.2"/>
<rect x="564" width="2" height="2" fill="#1E201E" fill-opacity="0.2"/>
<rect x="568" width="2" height="2" fill="#1E201E" fill-opacity="0.2"/>
<rect x="572" width="2" height="2" fill="#1E201E" fill-opacity="0.2"/>
<rect x="576" width="2" height="2" fill="#1E201E" fill-opacity="0.2"/>
<rect x="580" width="2" height="2" fill="#1E201E" fill-opacity="0.2"/>
<rect x="584" width="2" height="2" fill="#1E201E" fill-opacity="0.2"/>
<rect x="588" width="2" height="2" fill="#1E201E" fill-opacity="0.2"/>
<rect x="592" width="2" height="2" fill="#1E201E" fill-opacity="0.2"/>
<rect x="596" width="2" height="2" fill="#1E201E" fill-opacity="0.2"/>
<rect x="600" width="2" height="2" fill="#1E201E" fill-opacity="0.2"/>
<rect x="604" width="2" height="2" fill="#1E201E" fill-opacity="0.2"/>
<rect x="608" width="2" height="2" fill="#1E201E" fill-opacity="0.2"/>
<rect x="612" width="2" height="2" fill="#1E201E" fill-opacity="0.2"/>
<rect x="616" width="2" height="2" fill="#1E201E" fill-opacity="0.2"/>
<rect x="620" width="2" height="2" fill="#1E201E" fill-opacity="0.2"/>
<rect x="624" width="2" height="2" fill="#1E201E" fill-opacity="0.2"/>
<rect x="628" width="2" height="2" fill="#1E201E" fill-opacity="0.2"/>
<rect x="632" width="2" height="2" fill="#1E201E" fill-opacity="0.2"/>
<rect x="636" width="2" height="2" fill="#1E201E" fill-opacity="0.2"/>
<rect x="640" width="2" height="2" fill="#1E201E" fill-opacity="0.2"/>
<rect x="644" width="2" height="2" fill="#1E201E" fill-opacity="0.2"/>
<rect x="648" width="2" height="2" fill="#1E201E" fill-opacity="0.2"/>
<rect x="652" width="2" height="2" fill="#1E201E" fill-opacity="0.2"/>
<rect x="656" width="2" height="2" fill="#1E201E" fill-opacity="0.2"/>
<rect x="660" width="2" height="2" fill="#1E201E" fill-opacity="0.2"/>
<rect x="664" width="2" height="2" fill="#1E201E" fill-opacity="0.2"/>
<rect x="668" width="2" height="2" fill="#1E201E" fill-opacity="0.2"/>
<rect x="672" width="2" height="2" fill="#1E201E" fill-opacity="0.2"/>
<rect x="676" width="2" height="2" fill="#1E201E" fill-opacity="0.2"/>
<rect x="680" width="2" height="2" fill="#1E201E" fill-opacity="0.2"/>
<rect x="684" width="2" height="2" fill="#1E201E" fill-opacity="0.2"/>
<rect x="688" width="2" height="2" fill="#1E201E" fill-opacity="0.2"/>
<rect x="692" width="2" height="2" fill="#1E201E" fill-opacity="0.2"/>
<rect x="696" width="2" height="2" fill="#1E201E" fill-opacity="0.2"/>
<rect x="700" width="2" height="2" fill="#1E201E" fill-opacity="0.2"/>
<rect x="704" width="2" height="2" fill="#1E201E" fill-opacity="0.2"/>
<rect x="708" width="2" height="2" fill="#1E201E" fill-opacity="0.2"/>
<rect x="712" width="2" height="2" fill="#1E201E" fill-opacity="0.2"/>
<rect x="716" width="2" height="2" fill="#1E201E" fill-opacity="0.2"/>
<rect x="720" width="2" height="2" fill="#1E201E" fill-opacity="0.2"/>
<rect x="724" width="2" height="2" fill="#1E201E" fill-opacity="0.2"/>
<rect x="728" width="2" height="2" fill="#1E201E" fill-opacity="0.2"/>
<rect x="732" width="2" height="2" fill="#1E201E" fill-opacity="0.2"/>
<rect x="736" width="2" height="2" fill="#1E201E" fill-opacity="0.2"/>
<rect x="740" width="2" height="2" fill="#1E201E" fill-opacity="0.2"/>
<rect x="744" width="2" height="2" fill="#1E201E" fill-opacity="0.2"/>
<rect x="748" width="2" height="2" fill="#1E201E" fill-opacity="0.2"/>
<rect x="752" width="2" height="2" fill="#1E201E" fill-opacity="0.2"/>
<rect x="756" width="2" height="2" fill="#1E201E" fill-opacity="0.2"/>
<rect x="760" width="2" height="2" fill="#1E201E" fill-opacity="0.2"/>
<rect x="764" width="2" height="2" fill="#1E201E" fill-opacity="0.2"/>
<rect x="768" width="2" height="2" fill="#1E201E" fill-opacity="0.2"/>
<rect x="772" width="2" height="2" fill="#1E201E" fill-opacity="0.2"/>
<rect x="776" width="2" height="2" fill="#1E201E" fill-opacity="0.2"/>
<rect x="780" width="2" height="2" fill="#1E201E" fill-opacity="0.2"/>
<rect x="784" width="2" height="2" fill="#1E201E" fill-opacity="0.2"/>
<rect x="788" width="2" height="2" fill="#1E201E" fill-opacity="0.2"/>
<rect x="792" width="2" height="2" fill="#1E201E" fill-opacity="0.2"/>
<rect x="796" width="2" height="2" fill="#1E201E" fill-opacity="0.2"/>
<rect x="800" width="2" height="2" fill="#1E201E" fill-opacity="0.2"/>
<rect x="804" width="2" height="2" fill="#1E201E" fill-opacity="0.2"/>
<rect x="808" width="2" height="2" fill="#1E201E" fill-opacity="0.2"/>
<rect x="812" width="2" height="2" fill="#1E201E" fill-opacity="0.2"/>
<rect x="816" width="2" height="2" fill="#1E201E" fill-opacity="0.2"/>
<rect x="820" width="2" height="2" fill="#1E201E" fill-opacity="0.2"/>
<rect x="824" width="2" height="2" fill="#1E201E" fill-opacity="0.2"/>
<rect x="828" width="2" height="2" fill="#1E201E" fill-opacity="0.2"/>
<rect x="832" width="2" height="2" fill="#1E201E" fill-opacity="0.2"/>
<rect x="836" width="2" height="2" fill="#1E201E" fill-opacity="0.2"/>
<rect x="840" width="2" height="2" fill="#1E201E" fill-opacity="0.2"/>
<rect x="844" width="2" height="2" fill="#1E201E" fill-opacity="0.2"/>
<rect x="848" width="2" height="2" fill="#1E201E" fill-opacity="0.2"/>
<rect x="852" width="2" height="2" fill="#1E201E" fill-opacity="0.2"/>
<rect x="856" width="2" height="2" fill="#1E201E" fill-opacity="0.2"/>
<rect x="860" width="2" height="2" fill="#1E201E" fill-opacity="0.2"/>
<rect x="864" width="2" height="2" fill="#1E201E" fill-opacity="0.2"/>
<rect x="868" width="2" height="2" fill="#1E201E" fill-opacity="0.2"/>
<rect x="872" width="2" height="2" fill="#1E201E" fill-opacity="0.2"/>
<rect x="876" width="2" height="2" fill="#1E201E" fill-opacity="0.2"/>
<rect x="880" width="2" height="2" fill="#1E201E" fill-opacity="0.2"/>
<rect x="884" width="2" height="2" fill="#1E201E" fill-opacity="0.2"/>
<rect x="888" width="2" height="2" fill="#1E201E" fill-opacity="0.2"/>
<rect x="892" width="2" height="2" fill="#1E201E" fill-opacity="0.2"/>
<rect x="896" width="2" height="2" fill="#1E201E" fill-opacity="0.2"/>
<rect x="900" width="2" height="2" fill="#1E201E" fill-opacity="0.2"/>
<rect x="904" width="2" height="2" fill="#1E201E" fill-opacity="0.2"/>
<rect x="908" width="2" height="2" fill="#1E201E" fill-opacity="0.2"/>
<rect x="912" width="2" height="2" fill="#1E201E" fill-opacity="0.2"/>
<rect x="916" width="2" height="2" fill="#1E201E" fill-opacity="0.2"/>
<rect x="920" width="2" height="2" fill="#1E201E" fill-opacity="0.2"/>
<rect x="924" width="2" height="2" fill="#1E201E" fill-opacity="0.2"/>
<rect x="928" width="2" height="2" fill="#1E201E" fill-opacity="0.2"/>
<rect x="932" width="2" height="2" fill="#1E201E" fill-opacity="0.2"/>
<rect x="936" width="2" height="2" fill="#1E201E" fill-opacity="0.2"/>
<rect x="940" width="2" height="2" fill="#1E201E" fill-opacity="0.2"/>
<rect x="944" width="2" height="2" fill="#1E201E" fill-opacity="0.2"/>
<rect x="948" width="2" height="2" fill="#1E201E" fill-opacity="0.2"/>
<rect x="952" width="2" height="2" fill="#1E201E" fill-opacity="0.2"/>
<rect x="956" width="2" height="2" fill="#1E201E" fill-opacity="0.2"/>
<rect x="960" width="2" height="2" fill="#1E201E" fill-opacity="0.2"/>
<rect x="964" width="2" height="2" fill="#1E201E" fill-opacity="0.2"/>
<rect x="968" width="2" height="2" fill="#1E201E" fill-opacity="0.2"/>
<rect x="972" width="2" height="2" fill="#1E201E" fill-opacity="0.2"/>
<rect x="976" width="2" height="2" fill="#1E201E" fill-opacity="0.2"/>
<rect x="980" width="2" height="2" fill="#1E201E" fill-opacity="0.2"/>
<rect x="984" width="2" height="2" fill="#1E201E" fill-opacity="0.2"/>
<rect x="988" width="2" height="2" fill="#1E201E" fill-opacity="0.2"/>
<rect x="992" width="2" height="2" fill="#1E201E" fill-opacity="0.2"/>
<rect x="996" width="2" height="2" fill="#1E201E" fill-opacity="0.2"/>
<rect x="1000" width="2" height="2" fill="#1E201E" fill-opacity="0.2"/>
<rect x="1004" width="2" height="2" fill="#1E201E" fill-opacity="0.2"/>
<rect x="1008" width="2" height="2" fill="#1E201E" fill-opacity="0.2"/>
<rect x="1012" width="2" height="2" fill="#1E201E" fill-opacity="0.2"/>
<rect x="1016" width="2" height="2" fill="#1E201E" fill-opacity="0.2"/>
<rect x="1020" width="2" height="2" fill="#1E201E" fill-opacity="0.2"/>
<rect x="1024" width="2" height="2" fill="#1E201E" fill-opacity="0.2"/>
<rect x="1028" width="2" height="2" fill="#1E201E" fill-opacity="0.2"/>
<rect x="1032" width="2" height="2" fill="#1E201E" fill-opacity="0.2"/>
<rect x="1036" width="2" height="2" fill="#1E201E" fill-opacity="0.2"/>
<rect x="1040" width="2" height="2" fill="#1E201E" fill-opacity="0.2"/>
<rect x="1044" width="2" height="2" fill="#1E201E" fill-opacity="0.2"/>
<rect x="1048" width="2" height="2" fill="#1E201E" fill-opacity="0.2"/>
<rect x="1052" width="2" height="2" fill="#1E201E" fill-opacity="0.2"/>
<rect x="1056" width="2" height="2" fill="#1E201E" fill-opacity="0.2"/>
<rect x="1060" width="2" height="2" fill="#1E201E" fill-opacity="0.2"/>
<rect x="1064" width="2" height="2" fill="#1E201E" fill-opacity="0.2"/>
<rect x="1068" width="2" height="2" fill="#1E201E" fill-opacity="0.2"/>
<rect x="1072" width="2" height="2" fill="#1E201E" fill-opacity="0.2"/>
<rect x="1076" width="2" height="2" fill="#1E201E" fill-opacity="0.2"/>
<rect x="1080" width="2" height="2" fill="#1E201E" fill-opacity="0.2"/>
<rect x="1084" width="2" height="2" fill="#1E201E" fill-opacity="0.2"/>
<rect x="1088" width="2" height="2" fill="#1E201E" fill-opacity="0.2"/>
<rect x="1092" width="2" height="2" fill="#1E201E" fill-opacity="0.2"/>
<rect x="1096" width="2" height="2" fill="#1E201E" fill-opacity="0.2"/>
<rect x="1100" width="2" height="2" fill="#1E201E" fill-opacity="0.2"/>
<rect x="1104" width="2" height="2" fill="#1E201E" fill-opacity="0.2"/>
<rect x="1108" width="2" height="2" fill="#1E201E" fill-opacity="0.2"/>
<rect x="1112" width="2" height="2" fill="#1E201E" fill-opacity="0.2"/>
<rect x="1116" width="2" height="2" fill="#1E201E" fill-opacity="0.2"/>
<rect x="1120" width="2" height="2" fill="#1E201E" fill-opacity="0.2"/>
<rect x="1124" width="2" height="2" fill="#1E201E" fill-opacity="0.2"/>
<rect x="1128" width="2" height="2" fill="#1E201E" fill-opacity="0.2"/>
<rect x="1132" width="2" height="2" fill="#1E201E" fill-opacity="0.2"/>
<rect x="1136" width="2" height="2" fill="#1E201E" fill-opacity="0.2"/>
<rect x="1140" width="2" height="2" fill="#1E201E" fill-opacity="0.2"/>
<rect x="1144" width="2" height="2" fill="#1E201E" fill-opacity="0.2"/>
<rect x="1148" width="2" height="2" fill="#1E201E" fill-opacity="0.2"/>
<rect x="1152" width="2" height="2" fill="#1E201E" fill-opacity="0.2"/>
<rect x="1156" width="2" height="2" fill="#1E201E" fill-opacity="0.2"/>
<rect x="1160" width="2" height="2" fill="#1E201E" fill-opacity="0.2"/>
<rect x="1164" width="2" height="2" fill="#1E201E" fill-opacity="0.2"/>
<rect x="1168" width="2" height="2" fill="#1E201E" fill-opacity="0.2"/>
<rect x="1172" width="2" height="2" fill="#1E201E" fill-opacity="0.2"/>
<rect x="1176" width="2" height="2" fill="#1E201E" fill-opacity="0.2"/>
<rect x="1180" width="2" height="2" fill="#1E201E" fill-opacity="0.2"/>
<rect x="1184" width="2" height="2" fill="#1E201E" fill-opacity="0.2"/>
<rect x="1188" width="2" height="2" fill="#1E201E" fill-opacity="0.2"/>
<rect x="1192" width="2" height="2" fill="#1E201E" fill-opacity="0.2"/>
<rect x="1196" width="2" height="2" fill="#1E201E" fill-opacity="0.2"/>
<rect x="1200" width="2" height="2" fill="#1E201E" fill-opacity="0.2"/>
<rect x="1204" width="2" height="2" fill="#1E201E" fill-opacity="0.2"/>
<rect x="1208" width="2" height="2" fill="#1E201E" fill-opacity="0.2"/>
<rect x="1212" width="2" height="2" fill="#1E201E" fill-opacity="0.2"/>
<rect x="1216" width="2" height="2" fill="#1E201E" fill-opacity="0.2"/>
<rect x="1220" width="2" height="2" fill="#1E201E" fill-opacity="0.2"/>
<rect x="1224" width="2" height="2" fill="#1E201E" fill-opacity="0.2"/>
<rect x="1228" width="2" height="2" fill="#1E201E" fill-opacity="0.2"/>
<rect x="1232" width="2" height="2" fill="#1E201E" fill-opacity="0.2"/>
<rect x="1236" width="2" height="2" fill="#1E201E" fill-opacity="0.2"/>
<rect x="1240" width="2" height="2" fill="#1E201E" fill-opacity="0.2"/>
<rect x="1244" width="2" height="2" fill="#1E201E" fill-opacity="0.2"/>
<rect x="1248" width="2" height="2" fill="#1E201E" fill-opacity="0.2"/>
<rect x="1252" width="2" height="2" fill="#1E201E" fill-opacity="0.2"/>
<rect x="1256" width="2" height="2" fill="#1E201E" fill-opacity="0.2"/>
<rect x="1260" width="2" height="2" fill="#1E201E" fill-opacity="0.2"/>
<rect x="1264" width="2" height="2" fill="#1E201E" fill-opacity="0.2"/>
</g>
<defs>
<clipPath id="clip0_18_79">
<rect width="1266" height="2" fill="white"/>
</clipPath>
</defs>
</svg>
