<?xml version="1.0" encoding="UTF-8"?>
<svg version="1.1" xmlns="http://www.w3.org/2000/svg" width="500" height="250">
<path d="M0 0 C1.86495117 0.01450195 1.86495117 0.01450195 3.76757812 0.02929688 C12.89406406 0.14406406 12.89406406 0.14406406 14.0625 1.3125 C14.34575004 4.78317132 14.29447631 8.26917537 14.3125 11.75 C14.333125 12.71099609 14.35375 13.67199219 14.375 14.66210938 C14.41532365 22.13710575 13.85316096 29.59955237 9.23046875 35.75 C8.57691406 36.265625 7.92335938 36.78125 7.25 37.3125 C6.60417969 37.84875 5.95835937 38.385 5.29296875 38.9375 C-0.33995907 42.4099879 -5.69269974 42.5827486 -12.09765625 42.55078125 C-13.87826291 42.56619163 -15.65886203 42.58249457 -17.43945312 42.59960938 C-20.22648855 42.61609197 -23.01296839 42.62496721 -25.80004883 42.61791992 C-28.50404928 42.61530046 -31.20637918 42.64339984 -33.91015625 42.67578125 C-34.74047867 42.66557449 -35.57080109 42.65536774 -36.42628479 42.64485168 C-40.72844045 42.71748847 -42.44454966 42.93148789 -45.9597168 45.6484375 C-48.39984161 48.93527146 -48.59492692 50.94067058 -48.6875 55 C-48.88429565 61.20609129 -48.88429565 61.20609129 -49.9375 63.3125 C-41.45608434 63.06913092 -41.45608434 63.06913092 -33.3125 60.9375 C-30.21263875 57.51133756 -29.72091777 54.32563738 -28.70703125 49.890625 C-27.9375 47.3125 -27.9375 47.3125 -25.5625 44.5625 C-22.43019352 43.07092548 -21.21388774 43.50162143 -17.9375 44.3125 C-17.1946977 60.57161708 -17.1946977 60.57161708 -22.34375 67.09375 C-31.58296107 75.98431159 -44.12859523 74.68962359 -56.03320312 74.47363281 C-57.9375 74.3125 -57.9375 74.3125 -59.9375 73.3125 C-60.02488991 68.93762669 -60.078024 64.56297922 -60.125 60.1875 C-60.15013672 58.95 -60.17527344 57.7125 -60.20117188 56.4375 C-60.21083984 55.23867187 -60.22050781 54.03984375 -60.23046875 52.8046875 C-60.2461792 51.70495605 -60.26188965 50.60522461 -60.27807617 49.47216797 C-59.6089671 43.26456247 -56.51843883 39.34808897 -51.9375 35.3125 C-46.64258424 31.78255616 -42.50496659 31.17407604 -36.25 31.25 C-35.54810547 31.25451172 -34.84621094 31.25902344 -34.12304688 31.26367188 C-32.39449462 31.27543073 -30.66598635 31.29336546 -28.9375 31.3125 C-28.98970703 30.06146484 -28.98970703 30.06146484 -29.04296875 28.78515625 C-29.24724244 20.29320732 -28.71433424 13.47775136 -23.9375 6.3125 C-23.2775 6.3125 -22.6175 6.3125 -21.9375 6.3125 C-21.9375 5.6525 -21.9375 4.9925 -21.9375 4.3125 C-14.68916121 -0.27539983 -8.42850069 -0.20099763 0 0 Z M-14.9375 13.3125 C-17.7464555 16.75573577 -18.06068454 18.97930263 -17.9375 23.3125 C-11.62047042 19.90329434 -11.62047042 19.90329434 -5.5625 16.0625 C-2.9375 14.3125 -2.9375 14.3125 0.0625 13.3125 C-2.5314335 18.39660965 -5.34046693 21.97026586 -9.546875 25.83203125 C-11.16571483 27.21693178 -11.16571483 27.21693178 -10.9375 29.3125 C-11.5975 29.3125 -12.2575 29.3125 -12.9375 29.3125 C-12.9375 29.9725 -12.9375 30.6325 -12.9375 31.3125 C-8.16988247 31.78926175 -4.30517485 32.15074 -0.4375 29 C3.34205554 24.9369778 3.17806779 21.98484696 3.125 16.625 C3.11597656 15.44550781 3.10695313 14.26601563 3.09765625 13.05078125 C3.08605469 12.14714844 3.07445312 11.24351563 3.0625 10.3125 C-3.65013054 9.98475854 -9.07933515 9.77319207 -14.9375 13.3125 Z " fill="#6EB24E" transform="translate(255.9375,15.6875)"/>
<path d="M0 0 C1.15693359 0.00644531 2.31386719 0.01289062 3.50585938 0.01953125 C4.70404297 0.03628906 5.90222656 0.05304687 7.13671875 0.0703125 C8.96299805 0.08384766 8.96299805 0.08384766 10.82617188 0.09765625 C13.82572149 0.12118213 16.82486919 0.15405597 19.82421875 0.1953125 C19.97034062 4.69496687 20.05857105 9.19400488 20.13671875 13.6953125 C20.17861328 14.96375 20.22050781 16.2321875 20.26367188 17.5390625 C20.37719393 26.25755627 19.29938082 31.27613542 13.45117188 37.70458984 C7.08573353 43.743983 -0.6190264 43.40792954 -8.83203125 43.265625 C-9.9921875 43.23082031 -9.9921875 43.23082031 -11.17578125 43.1953125 C-11.12357422 44.44634766 -11.12357422 44.44634766 -11.0703125 45.72265625 C-10.6965563 61.26023534 -10.6965563 61.26023534 -16.203125 67.48828125 C-22.08528866 73.01810233 -26.05921477 74.31919056 -34.09765625 74.328125 C-35.20496094 74.32941406 -36.31226563 74.33070312 -37.453125 74.33203125 C-38.59910156 74.32816406 -39.74507812 74.32429688 -40.92578125 74.3203125 C-42.08722656 74.32417969 -43.24867188 74.32804687 -44.4453125 74.33203125 C-45.54746094 74.33074219 -46.64960938 74.32945313 -47.78515625 74.328125 C-48.79545898 74.32699707 -49.80576172 74.32586914 -50.84667969 74.32470703 C-53.17578125 74.1953125 -53.17578125 74.1953125 -54.17578125 73.1953125 C-54.45846962 69.70368285 -54.40773132 66.19699967 -54.42578125 62.6953125 C-54.44640625 61.7259375 -54.46703125 60.7565625 -54.48828125 59.7578125 C-54.53066792 51.87389245 -53.369438 45.51713557 -48.98828125 38.8828125 C-42.92691787 33.09084305 -37.03842862 31.60555867 -28.8203125 31.65625 C-27.95564865 31.64445709 -27.0909848 31.63266418 -26.20011902 31.62051392 C-23.46265291 31.58548459 -20.72595246 31.576106 -17.98828125 31.5703125 C-15.24012824 31.55393007 -12.49231168 31.53184058 -9.74430847 31.49868774 C-8.04152603 31.47916734 -6.33858949 31.46971092 -4.63569641 31.47177124 C-0.41838137 31.43388485 3.04818782 31.3119361 6.82421875 29.1953125 C9.66853312 23.7911152 9.45558475 17.1904655 9.82421875 11.1953125 C7.59431148 11.25566182 5.36516515 11.34454 3.13671875 11.4453125 C1.89535156 11.49171875 0.65398437 11.538125 -0.625 11.5859375 C-4.72232514 12.28910881 -6.35648957 13.16849666 -9.17578125 16.1953125 C-10.50888242 19.1308246 -10.50888242 19.1308246 -11.30078125 22.3203125 C-12.86708994 27.98951829 -12.86708994 27.98951829 -16.17578125 30.1953125 C-19.36328125 30.3203125 -19.36328125 30.3203125 -22.17578125 30.1953125 C-22.94082639 13.44932454 -22.94082639 13.44932454 -17.37109375 7.15625 C-11.93239083 2.16906204 -7.48555055 -0.07374927 0 0 Z M-40.23828125 45.5078125 C-43.27649614 49.72211057 -43.28853449 52.80723487 -43.23828125 57.8828125 C-43.22925781 59.06230469 -43.22023437 60.24179688 -43.2109375 61.45703125 C-43.19933594 62.36066406 -43.18773437 63.26429687 -43.17578125 64.1953125 C-35.64413881 64.55715297 -30.71148646 64.32338506 -24.36328125 59.9453125 C-22.51939926 57.22801272 -22.47872669 54.4065342 -22.17578125 51.1953125 C-26.39596235 53.15100618 -29.88423088 55.3796798 -33.46484375 58.3046875 C-35.17578125 59.1953125 -35.17578125 59.1953125 -37.38671875 58.8359375 C-37.97710937 58.62453125 -38.5675 58.413125 -39.17578125 58.1953125 C-38.59828125 57.56882812 -38.02078125 56.94234375 -37.42578125 56.296875 C-36.68328125 55.47960937 -35.94078125 54.66234375 -35.17578125 53.8203125 C-34.43328125 53.00820312 -33.69078125 52.19609375 -32.92578125 51.359375 C-30.96618312 49.39997258 -30.96618312 49.39997258 -31.17578125 47.1953125 C-30.51578125 47.1953125 -29.85578125 47.1953125 -29.17578125 47.1953125 C-28.51578125 45.8753125 -27.85578125 44.5553125 -27.17578125 43.1953125 C-34.1610433 42.5013991 -34.1610433 42.5013991 -40.23828125 45.5078125 Z " fill="#5FA04D" transform="translate(281.17578125,46.8046875)"/>
<path d="M0 0 C0.94488281 -0.03996094 1.88976562 -0.07992187 2.86328125 -0.12109375 C7.65539253 0.82672356 9.80191702 4.22371961 12.57421875 8.0234375 C13.16847656 8.94382813 13.76273437 9.86421875 14.375 10.8125 C15.04917969 11.84632813 15.72335937 12.88015625 16.41796875 13.9453125 C16.77810059 14.5012207 17.13823242 15.05712891 17.50927734 15.62988281 C19.70682066 19.00133137 21.95105582 22.34178907 24.1875 25.6875 C25.05226373 26.98425472 25.91686251 28.28111946 26.78125 29.578125 C27.4103125 30.52171875 28.039375 31.4653125 28.6875 32.4375 C28.72508423 31.03673218 28.72508423 31.03673218 28.76342773 29.60766602 C28.85836928 26.15424811 28.95761258 22.7010104 29.05981445 19.24780273 C29.10321813 17.75110731 29.14488913 16.25436061 29.18481445 14.75756836 C29.24238616 12.61035688 29.30611716 10.46340479 29.37109375 8.31640625 C29.40775146 7.0229126 29.44440918 5.72941895 29.48217773 4.39672852 C29.6875 1.4375 29.6875 1.4375 30.6875 0.4375 C32.85230797 0.3385706 35.02043785 0.307789 37.1875 0.3125 C38.3734375 0.30992187 39.559375 0.30734375 40.78125 0.3046875 C43.6875 0.4375 43.6875 0.4375 44.6875 1.4375 C44.78136381 3.3093094 44.80493804 5.1846806 44.80102539 7.05883789 C44.80094986 8.26000748 44.80087433 9.46117706 44.80079651 10.69874573 C44.79563522 12.0060112 44.79047394 13.31327667 44.78515625 14.66015625 C44.78329198 16.00394132 44.78186812 17.34772707 44.78086853 18.69151306 C44.77704402 22.23432277 44.76721432 25.7770917 44.75616455 29.31988525 C44.74594899 32.93265227 44.7413706 36.54542584 44.73632812 40.15820312 C44.72559198 47.2513188 44.70851636 54.34440674 44.6875 61.4375 C40.55047195 63.50601402 36.13424703 63.43439302 31.6875 62.4375 C28.19711501 59.6638905 26.05033848 56.1833491 23.6875 52.4375 C22.92889707 51.28135996 22.16841376 50.12645198 21.40625 48.97265625 C19.53394897 46.11436425 17.71286422 43.2263527 15.89746094 40.33154297 C13.55297484 36.66154234 11.11582365 33.052356 8.6875 29.4375 C8.66244385 30.40163818 8.6373877 31.36577637 8.61157227 32.35913086 C8.51764694 35.92437842 8.41739061 39.48942433 8.31518555 43.05444336 C8.27178015 44.59964289 8.23010929 46.14489214 8.19018555 47.69018555 C8.13261801 49.90689096 8.06888576 52.1233448 8.00390625 54.33984375 C7.97883751 55.38204323 7.97883751 55.38204323 7.95326233 56.44529724 C7.80137171 61.32362829 7.80137171 61.32362829 6.6875 62.4375 C4.71130553 62.56264928 2.73011827 62.6132276 0.75 62.625 C-0.33152344 62.63917969 -1.41304688 62.65335938 -2.52734375 62.66796875 C-5.3125 62.4375 -5.3125 62.4375 -7.3125 60.4375 C-7.56646729 58.00854492 -7.56646729 58.00854492 -7.57128906 54.91796875 C-7.57759338 53.76337158 -7.58389771 52.60877441 -7.59039307 51.41918945 C-7.5863446 50.16710693 -7.58229614 48.91502441 -7.578125 47.625 C-7.58003845 46.34520264 -7.5819519 45.06540527 -7.58392334 43.74682617 C-7.58687382 41.03657207 -7.58257955 38.32644973 -7.57324219 35.61621094 C-7.56184753 32.13900769 -7.56840743 28.66211318 -7.58038712 25.18492126 C-7.58934425 21.87325596 -7.58307635 18.56167409 -7.578125 15.25 C-7.58217346 13.99791748 -7.58622192 12.74583496 -7.59039307 11.45581055 C-7.58408875 10.30121338 -7.57778442 9.14661621 -7.57128906 7.95703125 C-7.56969788 6.93714111 -7.56810669 5.91725098 -7.56646729 4.86645508 C-7.06066352 0.02892409 -4.20248801 0.09667428 0 0 Z " fill="#4BB243" transform="translate(340.3125,139.5625)"/>
<path d="M0 0 C5.65204233 0.09320211 5.65204233 0.09320211 8.33984375 2.0703125 C10.22138593 4.49009535 11.78195201 7.00472234 13.375 9.625 C14.74311214 11.64188064 16.13669584 13.63982771 17.53100586 15.63867188 C18.94370498 17.66908935 20.33751444 19.71116575 21.7265625 21.7578125 C24.22098815 25.42086455 26.78679422 29.02767428 29.375 32.625 C29.35928955 31.38411621 29.35928955 31.38411621 29.34326172 30.11816406 C29.30169088 26.3704736 29.27567008 22.62283168 29.25 18.875 C29.23324219 17.57304687 29.21648437 16.27109375 29.19921875 14.9296875 C29.18955078 13.05410156 29.18955078 13.05410156 29.1796875 11.140625 C29.16397705 9.41247559 29.16397705 9.41247559 29.14794922 7.64941406 C29.36741238 4.72607034 29.84771878 3.08767491 31.375 0.625 C33.33266281 0.54417906 35.29126728 0.48589222 37.25 0.4375 C38.88582031 0.38529297 38.88582031 0.38529297 40.5546875 0.33203125 C41.48539062 0.42871094 42.41609375 0.52539062 43.375 0.625 C45.61994728 3.99242092 45.62738738 5.11937143 45.63378906 9.05859375 C45.64009338 10.16984619 45.64639771 11.28109863 45.65289307 12.42602539 C45.6488446 13.62606201 45.64479614 14.82609863 45.640625 16.0625 C45.64349518 17.90992798 45.64349518 17.90992798 45.64642334 19.79467773 C45.64813434 23.06839019 45.6400772 26.34191329 45.62890625 29.61560059 C45.62500384 31.62302699 45.62889219 33.63027853 45.63574219 35.63769531 C45.64807287 39.48771321 45.64660643 43.33747142 45.640625 47.1875 C45.64467346 48.38753662 45.64872192 49.58757324 45.65289307 50.82397461 C45.64658875 51.93522705 45.64028442 53.04647949 45.63378906 54.19140625 C45.63219788 55.17052979 45.63060669 56.14965332 45.62896729 57.15844727 C45.375 59.625 45.375 59.625 43.375 62.625 C40.94921875 63.09375 40.94921875 63.09375 38.0625 63.125 C37.11761719 63.1559375 36.17273438 63.186875 35.19921875 63.21875 C29.54032604 62.02905195 26.48078447 56.59051477 23.45703125 51.9921875 C22.76029297 50.93902344 22.06355469 49.88585937 21.34570312 48.80078125 C20.27739258 47.16689453 20.27739258 47.16689453 19.1875 45.5 C18.46369141 44.40300781 17.73988281 43.30601562 16.99414062 42.17578125 C15.65727018 40.14871257 14.32277831 38.12007172 12.99145508 36.08935547 C11.79346384 34.26296617 10.58659537 32.44239306 9.375 30.625 C9.34994385 31.48778564 9.3248877 32.35057129 9.29907227 33.23950195 C9.20388615 36.44323769 9.10465556 39.64681537 9.00268555 42.8503418 C8.95939782 44.23635983 8.91771836 45.62242906 8.87768555 47.00854492 C8.81983416 49.00191798 8.75570224 50.99510565 8.69140625 52.98828125 C8.63641968 54.78712769 8.63641968 54.78712769 8.58032227 56.62231445 C8.375 59.625 8.375 59.625 7.375 62.625 C5.22923363 62.65185938 3.08337355 62.67133088 0.9375 62.6875 C-0.25746094 62.69910156 -1.45242188 62.71070313 -2.68359375 62.72265625 C-5.625 62.625 -5.625 62.625 -6.625 61.625 C-6.7241056 59.75864212 -6.75299261 57.88851806 -6.75439453 56.01953125 C-6.75754669 54.82158936 -6.76069885 53.62364746 -6.76394653 52.3894043 C-6.7619223 51.08527588 -6.75989807 49.78114746 -6.7578125 48.4375 C-6.7584856 47.09610985 -6.75945568 45.75471981 -6.76071167 44.41333008 C-6.76218836 41.59878379 -6.76003504 38.78426918 -6.75537109 35.96972656 C-6.74967381 32.35459369 -6.75295297 28.73953505 -6.75894356 25.12440491 C-6.76254997 22.35355058 -6.76141022 19.58271398 -6.75881577 16.81185913 C-6.75782033 14.82810417 -6.76086741 12.84434853 -6.76394653 10.8605957 C-6.76079437 9.66265381 -6.75764221 8.46471191 -6.75439453 7.23046875 C-6.75359894 6.16981201 -6.75280334 5.10915527 -6.75198364 4.01635742 C-6.51676721 -0.41324118 -3.94772969 0.26448809 0 0 Z " fill="#4BBA42" transform="translate(283.625,139.375)"/>
<path d="M0 0 C5.80852949 4.61928315 10.84381169 11.17985563 12.21240234 18.61352539 C12.38307389 20.86353698 12.41947026 23.06050712 12.375 25.31640625 C12.35856445 26.50049072 12.35856445 26.50049072 12.34179688 27.70849609 C12.01331718 36.57927281 9.00473357 42.30371826 3.0625 48.81640625 C-5.44671475 56.55775448 -13.53798051 57.23549019 -24.70703125 56.8203125 C-33.77149067 56.22448259 -40.07493452 52.02523528 -46.1875 45.44140625 C-51.78438595 37.9512117 -53.00883956 29.54030859 -52.1875 20.44140625 C-50.91734382 14.27916416 -48.21016537 8.31374352 -44.1875 3.44140625 C-43.5275 3.44140625 -42.8675 3.44140625 -42.1875 3.44140625 C-42.1875 2.78140625 -42.1875 2.12140625 -42.1875 1.44140625 C-29.24953749 -8.49840628 -13.58960835 -9.17846531 0 0 Z M-33.5625 15.50390625 C-36.14155515 20.1660444 -36.71032072 24.18415345 -36.1875 29.44140625 C-34.53706223 34.8511745 -32.16068236 38.64128835 -27.1875 41.44140625 C-22.63550317 43.28749385 -18.67435408 43.94289962 -13.9375 42.44140625 C-8.82866628 40.13123642 -6.26711329 36.64970616 -3.8125 31.62890625 C-2.69135513 25.9110674 -3.19437174 21.25643376 -6 16.12890625 C-10.11019566 10.70101924 -10.11019566 10.70101924 -16.1875 8.44140625 C-23.95639078 7.80461192 -28.69251999 9.22419518 -33.5625 15.50390625 Z " fill="#4CB943" transform="translate(261.1875,145.55859375)"/>
<path d="M0 0 C4.62 0 9.24 0 14 0 C21.11459701 13.51773432 26.44278457 27.75802331 31.83203125 42.03125 C33.47149152 46.19843997 35.31250488 50.27396273 37.1796875 54.34375 C38.10569003 57.34223437 37.87370799 59.02292091 37 62 C34.70839681 62.02692484 32.41670454 62.04636124 30.125 62.0625 C28.84882813 62.07410156 27.57265625 62.08570313 26.2578125 62.09765625 C23 62 23 62 21 61 C19.46151667 57.40084738 18.2769088 53.70303553 17 50 C10.73 50 4.46 50 -2 50 C-2.61875 51.60875 -3.2375 53.2175 -3.875 54.875 C-5.75 59.75 -5.75 59.75 -8 62 C-10.96875 62.23046875 -10.96875 62.23046875 -14.5 62.1875 C-15.6653125 62.18105469 -16.830625 62.17460937 -18.03125 62.16796875 C-21 62 -21 62 -23 61 C-22.44602827 54.52369971 -20.26959672 49.0267052 -17.8515625 43.02734375 C-17.43836761 41.98606827 -17.02517273 40.94479279 -16.59945679 39.8719635 C-15.72712056 37.67777893 -14.85111801 35.48504885 -13.97167969 33.29370117 C-12.62933162 29.94829528 -11.29807572 26.59864579 -9.96875 23.24804688 C-9.11783258 21.11172211 -8.26629097 18.97564585 -7.4140625 16.83984375 C-6.81859116 15.34432228 -6.81859116 15.34432228 -6.21109009 13.81858826 C-5.83415009 12.88063919 -5.45721008 11.94269012 -5.06884766 10.97631836 C-4.57706528 9.74890175 -4.57706528 9.74890175 -4.0753479 8.49668884 C-2.83277356 5.61174203 -1.40477109 2.80954218 0 0 Z M7 21 C5.35 25.62 3.7 30.24 2 35 C5.3 35 8.6 35 12 35 C11.319375 32.64875 11.319375 32.64875 10.625 30.25 C10.36976563 29.36828125 10.11453125 28.4865625 9.8515625 27.578125 C8.96860208 24.69699893 8.96860208 24.69699893 7 21 Z " fill="#4CBA44" transform="translate(127,140)"/>
<path d="M0 0 C4.95 0 9.9 0 15 0 C16.84075696 4.58681675 18.67357735 9.17669663 20.49926758 13.76953125 C21.12081837 15.32995852 21.74449011 16.88954277 22.37036133 18.44824219 C23.27209927 20.69505462 24.16604487 22.94483649 25.05859375 25.1953125 C25.3377916 25.8861795 25.61698944 26.57704651 25.90464783 27.28884888 C27.43824537 31.18028624 28.47754944 34.84863609 29 39 C29.66 39 30.32 39 31 39 C31.11553223 38.31228516 31.23106445 37.62457031 31.35009766 36.91601562 C32.092562 33.58468799 33.19345492 30.53746536 34.3984375 27.34375 C34.63406403 26.7189978 34.86969055 26.09424561 35.11245728 25.45056152 C35.60979845 24.13540739 36.10913352 22.82100573 36.61035156 21.50732422 C37.37173277 19.50857701 38.12373033 17.50647258 38.875 15.50390625 C39.36141519 14.22114017 39.8483764 12.93858097 40.3359375 11.65625 C40.77470215 10.49931641 41.2134668 9.34238281 41.66552734 8.15039062 C42.91484599 5.20102952 44.1109822 2.58832196 46 0 C49.35546875 -0.48828125 49.35546875 -0.48828125 53.1875 -0.3125 C54.45980469 -0.26738281 55.73210937 -0.22226563 57.04296875 -0.17578125 C58.01878906 -0.11777344 58.99460938 -0.05976563 60 0 C61.20997428 4.21718444 60.75304376 6.54841979 59.12573242 10.5847168 C58.69165573 11.67902512 58.25757904 12.77333344 57.81034851 13.90080261 C57.33023819 15.07177994 56.85012787 16.24275726 56.35546875 17.44921875 C55.87048416 18.65818314 55.38549957 19.86714752 54.88581848 21.11274719 C53.86039949 23.66706047 52.82653832 26.21772387 51.78588867 28.76586914 C50.45191087 32.03279516 49.13387709 35.30585229 47.82140636 38.58146954 C46.56807981 41.70654974 45.30553237 44.82785811 44.04296875 47.94921875 C43.56893112 49.12626877 43.09489349 50.30331879 42.60649109 51.51603699 C42.16295792 52.60088882 41.71942474 53.68574066 41.26245117 54.8034668 C40.87304855 55.76101364 40.48364594 56.71856049 40.08244324 57.7051239 C39 60 39 60 37 62 C33.8125 62.23046875 33.8125 62.23046875 30 62.1875 C28.741875 62.18105469 27.48375 62.17460937 26.1875 62.16796875 C23 62 23 62 21 61 C19.83888873 58.42087092 18.78321769 55.85971797 17.76953125 53.22265625 C17.45602219 52.42331161 17.14251312 51.62396698 16.81950378 50.80039978 C15.81064626 48.22359332 14.81147039 45.64315343 13.8125 43.0625 C13.15883514 41.38842496 12.50454478 39.71459401 11.84960938 38.04101562 C10.54320066 34.70126629 9.24687983 31.35781804 7.95556641 28.01220703 C6.64502414 24.62771986 5.2955218 21.26250718 3.91552734 17.90576172 C3.41976448 16.68269569 3.41976448 16.68269569 2.91398621 15.43492126 C2.28759584 13.89205345 1.65134668 12.35313814 1.00361633 10.81910706 C-0.77717008 6.3946617 -0.97861034 4.89305168 0 0 Z " fill="#4DB744" transform="translate(153,140)"/>
<path d="M0 0 C1.97909398 -0.02686553 3.95828971 -0.04633375 5.9375 -0.0625 C7.03964844 -0.07410156 8.14179688 -0.08570313 9.27734375 -0.09765625 C12 0 12 0 13 1 C13.09386381 2.8718094 13.11743804 4.7471806 13.11352539 6.62133789 C13.11344986 7.82250748 13.11337433 9.02367706 13.11329651 10.26124573 C13.10813522 11.5685112 13.10297394 12.87577667 13.09765625 14.22265625 C13.09579198 15.56644132 13.09436812 16.91022707 13.09336853 18.25401306 C13.08954402 21.79682277 13.07971432 25.3395917 13.06866455 28.88238525 C13.05844899 32.49515227 13.0538706 36.10792584 13.04882812 39.72070312 C13.03809198 46.8138188 13.02101636 53.90690674 13 61 C8.86297195 63.06851402 4.44674703 62.99689302 0 62 C-3.49038499 59.2263905 -5.63716152 55.7458491 -8 52 C-8.75860293 50.84385996 -9.51908624 49.68895198 -10.28125 48.53515625 C-12.15355103 45.67686425 -13.97463578 42.7888527 -15.79003906 39.89404297 C-18.13452516 36.22404234 -20.57167635 32.614856 -23 29 C-23.02505615 29.96413818 -23.0501123 30.92827637 -23.07592773 31.92163086 C-23.16985306 35.48687842 -23.27010939 39.05192433 -23.37231445 42.61694336 C-23.41571985 44.16214289 -23.45739071 45.70739214 -23.49731445 47.25268555 C-23.55488199 49.46939096 -23.61861424 51.6858448 -23.68359375 53.90234375 C-23.70866249 54.94454323 -23.70866249 54.94454323 -23.73423767 56.00779724 C-23.88612829 60.88612829 -23.88612829 60.88612829 -25 62 C-27.01964199 62.07244053 -29.04167124 62.08377188 -31.0625 62.0625 C-32.16722656 62.05347656 -33.27195312 62.04445312 -34.41015625 62.03515625 C-35.69212891 62.01775391 -35.69212891 62.01775391 -37 62 C-37 61.34 -37 60.68 -37 60 C-33.37 60 -29.74 60 -26 60 C-26 47.79 -26 35.58 -26 23 C-24.68 22.67 -23.36 22.34 -22 22 C-21.67 24.31 -21.34 26.62 -21 29 C-20.01 29.33 -19.02 29.66 -18 30 C-18 30.66 -18 31.32 -18 32 C-17.34 32 -16.68 32 -16 32 C-14.7109375 33.64453125 -14.7109375 33.64453125 -13.375 35.8125 C-12.92898438 36.52019531 -12.48296875 37.22789062 -12.0234375 37.95703125 C-11 40 -11 40 -11 43 C-10.34 43 -9.68 43 -9 43 C-8.67 43.66 -8.34 44.32 -8 45 C-6.515 44.505 -6.515 44.505 -5 44 C-4.9175 44.9075 -4.835 45.815 -4.75 46.75 C-3.89073449 50.47348388 -2.72010026 51.44990601 0 54 C0.495 55.98 0.495 55.98 1 58 C4.3 58.33 7.6 58.66 11 59 C11 40.19 11 21.38 11 2 C3.71626405 2.07908908 3.71626405 2.07908908 2 4 C1.84174742 5.99782126 1.74880829 8.00088834 1.68359375 10.00390625 C1.62075195 11.82631836 1.62075195 11.82631836 1.55664062 13.68554688 C1.51732422 14.96494141 1.47800781 16.24433594 1.4375 17.5625 C1.37272461 19.48739258 1.37272461 19.48739258 1.30664062 21.45117188 C1.200152 24.63399853 1.09814038 27.81690674 1 31 C0.01 31.495 0.01 31.495 -1 32 C-1.02469321 27.7641643 -1.04285671 23.52836658 -1.05493164 19.29248047 C-1.05996474 17.8510668 -1.06679173 16.40965824 -1.07543945 14.96826172 C-1.08754983 12.89809915 -1.09323847 10.82800399 -1.09765625 8.7578125 C-1.10289307 7.5114502 -1.10812988 6.26508789 -1.11352539 4.98095703 C-1 2 -1 2 0 0 Z " fill="#699A65" transform="translate(372,140)"/>
<path d="M0 0 C5.78866751 4.60348774 11.00604468 11.23696925 12.1640625 18.71020508 C12.27489221 21.05024587 12.26163868 23.35018465 12.1875 25.69140625 C12.18621094 26.4803125 12.18492187 27.26921875 12.18359375 28.08203125 C12.12423536 31.98649438 12.062175 35.09388985 9.8125 38.44140625 C9.1525 38.44140625 8.4925 38.44140625 7.8125 38.44140625 C7.8125 36.79140625 7.8125 35.14140625 7.8125 33.44140625 C8.4725 33.44140625 9.1325 33.44140625 9.8125 33.44140625 C9.72504425 31.04391241 9.61812925 28.64992404 9.5 26.25390625 C9.46616211 25.24360352 9.46616211 25.24360352 9.43164062 24.21289062 C9.19397386 19.7836463 8.31194058 17.07169912 5.8125 13.44140625 C5.3175 11.89453125 5.3175 11.89453125 4.8125 10.31640625 C3.81841215 7.45840368 2.98673102 6.4179799 0.8125 4.44140625 C0.8125 3.78140625 0.8125 3.12140625 0.8125 2.44140625 C-1.1675 2.11140625 -3.1475 1.78140625 -5.1875 1.44140625 C-5.6825 -0.04359375 -5.6825 -0.04359375 -6.1875 -1.55859375 C-16.15675775 -3.33090624 -25.63489813 -3.88756899 -34.3515625 1.87109375 C-37.00148551 3.80794657 -39.51142653 5.70200437 -41.73046875 8.12890625 C-43.1875 9.44140625 -43.1875 9.44140625 -46.1875 9.44140625 C-46.31125 9.95703125 -46.435 10.47265625 -46.5625 11.00390625 C-47.1875 13.44140625 -47.1875 13.44140625 -48.25 16.53515625 C-49.49793483 20.88703089 -49.19530505 24.91157133 -48.8125 29.37890625 C-48.75578125 30.15814453 -48.6990625 30.93738281 -48.640625 31.74023438 C-48.50065654 33.64147264 -48.34563968 35.54159311 -48.1875 37.44140625 C-47.1975 37.77140625 -46.2075 38.10140625 -45.1875 38.44140625 C-45.1875 39.10140625 -45.1875 39.76140625 -45.1875 40.44140625 C-44.5275 40.44140625 -43.8675 40.44140625 -43.1875 40.44140625 C-43.084375 41.08078125 -42.98125 41.72015625 -42.875 42.37890625 C-42.648125 43.05953125 -42.42125 43.74015625 -42.1875 44.44140625 C-41.1975 44.77140625 -40.2075 45.10140625 -39.1875 45.44140625 C-39.1875 46.10140625 -39.1875 46.76140625 -39.1875 47.44140625 C-37.8675 47.77140625 -36.5475 48.10140625 -35.1875 48.44140625 C-35.1875 49.10140625 -35.1875 49.76140625 -35.1875 50.44140625 C-34.465625 50.73015625 -33.74375 51.01890625 -33 51.31640625 C-31.31477533 51.99049612 -29.6417525 52.69868721 -28 53.47265625 C-24.47540047 54.68668498 -21.06504085 54.89691155 -17.375 55.06640625 C-16.33569336 55.12441406 -16.33569336 55.12441406 -15.27539062 55.18359375 C-13.57982985 55.27714193 -11.88370288 55.36032989 -10.1875 55.44140625 C-10.1875 55.77140625 -10.1875 56.10140625 -10.1875 56.44140625 C-32.43255783 57.25607775 -32.43255783 57.25607775 -42.5 49.12890625 C-48.43842335 43.59188726 -51.70136101 37.05332654 -52.41015625 28.87109375 C-52.71320735 19.41062903 -50.30264881 10.84820365 -44.1875 3.44140625 C-43.5275 3.44140625 -42.8675 3.44140625 -42.1875 3.44140625 C-42.1875 2.78140625 -42.1875 2.12140625 -42.1875 1.44140625 C-29.24953749 -8.49840628 -13.58960835 -9.17846531 0 0 Z " fill="#669963" transform="translate(261.1875,145.55859375)"/>
<path d="M0 0 C0.7428023 16.25911708 0.7428023 16.25911708 -4.40625 22.78125 C-13.64546107 31.67181159 -26.19109523 30.37712359 -38.09570312 30.16113281 C-40 30 -40 30 -42 29 C-42 20.09 -42 11.18 -42 2 C-41.34 2 -40.68 2 -40 2 C-39.67 1.34 -39.34 0.68 -39 0 C-39 8.58 -39 17.16 -39 26 C-36.009375 25.87625 -33.01875 25.7525 -29.9375 25.625 C-29.00929443 25.59100098 -28.08108887 25.55700195 -27.12475586 25.52197266 C-22.08817009 25.28410847 -17.80143975 24.51882278 -13 23 C-10.0625 22.875 -10.0625 22.875 -8 23 C-8 21.68 -8 20.36 -8 19 C-7.34 19 -6.68 19 -6 19 C-4.29915181 13.67067568 -3.47986031 8.56890517 -3 3 C-3.99 3.33 -4.98 3.66 -6 4 C-6.66 7.96 -7.32 11.92 -8 16 C-9.32 16.33 -10.64 16.66 -12 17 C-12.33 17.99 -12.66 18.98 -13 20 C-17.87724068 22.37609161 -23.65780568 22.89356847 -29 22 C-29.66 21.01 -30.32 20.02 -31 19 C-30.20335937 18.97421875 -29.40671875 18.9484375 -28.5859375 18.921875 C-19.93036381 18.64099415 -19.93036381 18.64099415 -13 14 C-12.08679989 11.21812189 -11.42189115 8.43172267 -10.76953125 5.578125 C-10 3 -10 3 -7.625 0.25 C-4.49269352 -1.24157452 -3.27638774 -0.81087857 0 0 Z " fill="#6D965A" transform="translate(238,60)"/>
<path d="M0 0 C0.66 0.66 1.32 1.32 2 2 C4.06874034 2.6425235 4.06874034 2.6425235 6 3 C6 3.66 6 4.32 6 5 C5.34 5 4.68 5 4 5 C3.71125 5.598125 3.4225 6.19625 3.125 6.8125 C2 9 2 9 0 12 C-0.36433373 14.12337771 -0.36433373 14.12337771 -0.4140625 16.44921875 C-0.45273438 17.29677734 -0.49140625 18.14433594 -0.53125 19.01757812 C-0.57765625 20.33918945 -0.57765625 20.33918945 -0.625 21.6875 C-0.66367188 22.58017578 -0.70234375 23.47285156 -0.7421875 24.39257812 C-0.83640218 26.5948462 -0.92201588 28.79710722 -1 31 C1.37531394 31.0543965 3.74935883 31.09385864 6.125 31.125 C7.12273437 31.15013672 7.12273437 31.15013672 8.140625 31.17578125 C12.48449575 31.21836822 16.00698285 30.73556672 20 29 C20.33 28.34 20.66 27.68 21 27 C21.99 26.67 22.98 26.34 24 26 C24.66 22.04 25.32 18.08 26 14 C27.32 13.67 28.64 13.34 30 13 C30.37952295 19.19887485 29.8352113 23.4477112 27 29 C26.34 29 25.68 29 25 29 C25 30.32 25 31.64 25 33 C14.65608586 36.46861792 4.75820351 36.30384048 -6 36 C-6.02505615 35.2886792 -6.0501123 34.5773584 -6.07592773 33.84448242 C-6.19188439 30.62530483 -6.31461245 27.40642015 -6.4375 24.1875 C-6.47681641 23.06794922 -6.51613281 21.94839844 -6.55664062 20.79492188 C-6.61948242 19.18520508 -6.61948242 19.18520508 -6.68359375 17.54296875 C-6.72025146 16.55321045 -6.75690918 15.56345215 -6.79467773 14.54370117 C-6.90790331 11.8781649 -6.90790331 11.8781649 -8 9 C-7.109375 7.24609375 -7.109375 7.24609375 -5.75 5.4375 C-5.31171875 4.83808594 -4.8734375 4.23867188 -4.421875 3.62109375 C-3 2 -3 2 0 0 Z " fill="#6DB94A" transform="translate(205,50)"/>
<path d="M0 0 C1.93166016 0.01740234 1.93166016 0.01740234 3.90234375 0.03515625 C5.19269531 0.04417969 6.48304688 0.05320313 7.8125 0.0625 C8.81152344 0.07410156 9.81054688 0.08570313 10.83984375 0.09765625 C18.05422607 13.54264148 23.29113447 27.87820779 28.671875 42.12890625 C30.31133527 46.29609622 32.15234863 50.37161898 34.01953125 54.44140625 C34.83984375 57.09765625 34.83984375 57.09765625 33.83984375 62.09765625 C29.21984375 62.09765625 24.59984375 62.09765625 19.83984375 62.09765625 C17.58984375 56.47265625 17.58984375 56.47265625 18.83984375 53.09765625 C20.83984375 55.09765625 20.83984375 55.09765625 20.83984375 59.09765625 C23.80984375 59.09765625 26.77984375 59.09765625 29.83984375 59.09765625 C29.65520009 54.75581423 29.65520009 54.75581423 27.83984375 51.09765625 C27.79920543 49.4314851 27.79712275 47.7637753 27.83984375 46.09765625 C27.17984375 46.09765625 26.51984375 46.09765625 25.83984375 46.09765625 C23.23482512 39.48568148 20.72267628 32.9565462 18.83984375 26.09765625 C18.37244716 24.82244706 17.89242256 23.55182148 17.40234375 22.28515625 C15.61215986 17.63615829 14.22194681 12.88110515 12.83984375 8.09765625 C12.17984375 8.09765625 11.51984375 8.09765625 10.83984375 8.09765625 C10.83984375 7.10765625 10.83984375 6.11765625 10.83984375 5.09765625 C10.17984375 5.09765625 9.51984375 5.09765625 8.83984375 5.09765625 C8.83984375 4.10765625 8.83984375 3.11765625 8.83984375 2.09765625 C5.20984375 2.42765625 1.57984375 2.75765625 -2.16015625 3.09765625 C-2.26972656 3.9896875 -2.37929687 4.88171875 -2.4921875 5.80078125 C-2.65074219 6.97125 -2.80929688 8.14171875 -2.97265625 9.34765625 C-3.12347656 10.5078125 -3.27429688 11.66796875 -3.4296875 12.86328125 C-4.16630037 16.12486124 -5.02829862 17.60292923 -7.16015625 20.09765625 C-7.86530471 22.24499552 -7.86530471 22.24499552 -8.16015625 24.09765625 C-8.82015625 24.09765625 -9.48015625 24.09765625 -10.16015625 24.09765625 C-10.49015625 26.40765625 -10.82015625 28.71765625 -11.16015625 31.09765625 C-12.15015625 31.42765625 -13.14015625 31.75765625 -14.16015625 32.09765625 C-14.49015625 32.75765625 -14.82015625 33.41765625 -15.16015625 34.09765625 C-14.71368233 26.49829813 -12.0526683 20.14637633 -9.16015625 13.16015625 C-8.4640625 11.43829102 -8.4640625 11.43829102 -7.75390625 9.68164062 C-3.8587442 0.11924426 -3.8587442 0.11924426 0 0 Z " fill="#659C60" transform="translate(130.16015625,139.90234375)"/>
<path d="M0 0 C0.99 0 1.98 0 3 0 C3 0.99 3 1.98 3 3 C4.32 3.33 5.64 3.66 7 4 C7 4.99 7 5.98 7 7 C7.66 7 8.32 7 9 7 C9.4125 7.9075 9.825 8.815 10.25 9.75 C11.79970751 13.01886824 11.79970751 13.01886824 14.1875 15.125 C16 17 16 17 16 21 C16.66 21 17.32 21 18 21 C22 26.41176471 22 26.41176471 22 29 C22.99 29.33 23.98 29.66 25 30 C25 30.99 25 31.98 25 33 C25.66 33 26.32 33 27 33 C27 33.66 27 34.32 27 35 C29.475 34.505 29.475 34.505 32 34 C32.33 34.66 32.66 35.32 33 36 C34.32 36.33 35.64 36.66 37 37 C37 31.06 37 25.12 37 19 C37.33 19 37.66 19 38 19 C38.06058594 20.13179687 38.12117188 21.26359375 38.18359375 22.4296875 C38.26799917 23.91147145 38.35264717 25.3932416 38.4375 26.875 C38.47681641 27.62136719 38.51613281 28.36773437 38.55664062 29.13671875 C38.71573624 33.19986864 38.71573624 33.19986864 40 37 C39.34 37.99 38.68 38.98 38 40 C35.57421875 40.46875 35.57421875 40.46875 32.6875 40.5 C31.74261719 40.5309375 30.79773438 40.561875 29.82421875 40.59375 C24.16532604 39.40405195 21.10578447 33.96551477 18.08203125 29.3671875 C17.38529297 28.31402344 16.68855469 27.26085937 15.97070312 26.17578125 C15.25849609 25.08652344 14.54628906 23.99726563 13.8125 22.875 C13.08869141 21.77800781 12.36488281 20.68101562 11.61914062 19.55078125 C10.28227018 17.52371257 8.94777831 15.49507172 7.61645508 13.46435547 C6.41846384 11.63796617 5.21159537 9.81739306 4 8 C3.97494385 8.86278564 3.9498877 9.72557129 3.92407227 10.61450195 C3.82888615 13.81823769 3.72965556 17.02181537 3.62768555 20.2253418 C3.58439782 21.61135983 3.54271836 22.99742906 3.50268555 24.38354492 C3.44483416 26.37691798 3.38070224 28.37010565 3.31640625 30.36328125 C3.27974854 31.56251221 3.24309082 32.76174316 3.20532227 33.99731445 C3 37 3 37 2 40 C-2.29 40 -6.58 40 -11 40 C-11 37.69 -11 35.38 -11 33 C-10.34 33.99 -9.68 34.98 -9 36 C-6.79274927 36.36362818 -6.79274927 36.36362818 -4.375 36.1875 C-3.55773437 36.16042969 -2.74046875 36.13335937 -1.8984375 36.10546875 C-0.95871094 36.05326172 -0.95871094 36.05326172 0 36 C0.15088266 26.96380488 -0.19085087 18.00433487 -0.73217773 8.9855957 C-0.78059814 8.10991943 -0.82901855 7.23424316 -0.87890625 6.33203125 C-0.9260376 5.54546143 -0.97316895 4.7588916 -1.02172852 3.94848633 C-1 2 -1 2 0 0 Z " fill="#5B9A5E" transform="translate(289,162)"/>
<path d="M0 0 C3.2578125 -0.29296875 3.2578125 -0.29296875 7.125 -0.1875 C9.04699219 -0.14689453 9.04699219 -0.14689453 11.0078125 -0.10546875 C11.99523437 -0.07066406 12.98265625 -0.03585938 14 0 C15.20997428 4.21718444 14.75304376 6.54841979 13.12573242 10.5847168 C12.69165573 11.67902512 12.25757904 12.77333344 11.81034851 13.90080261 C11.33023819 15.07177994 10.85012787 16.24275726 10.35546875 17.44921875 C9.87048416 18.65818314 9.38549957 19.86714752 8.88581848 21.11274719 C7.86039949 23.66706047 6.82653832 26.21772387 5.78588867 28.76586914 C4.45191087 32.03279516 3.13387709 35.30585229 1.82140636 38.58146954 C0.56807981 41.70654974 -0.69446763 44.82785811 -1.95703125 47.94921875 C-2.66808769 49.71479378 -2.66808769 49.71479378 -3.39350891 51.51603699 C-3.83704208 52.60088882 -4.28057526 53.68574066 -4.73754883 54.8034668 C-5.12695145 55.76101364 -5.51635406 56.71856049 -5.91755676 57.7051239 C-7 60 -7 60 -9 62 C-12.2578125 62.1953125 -12.2578125 62.1953125 -16.125 62.125 C-18.04699219 62.09792969 -18.04699219 62.09792969 -20.0078125 62.0703125 C-20.99523437 62.04710937 -21.98265625 62.02390625 -23 62 C-23 61.67 -23 61.34 -23 61 C-22.25234375 60.93941406 -21.5046875 60.87882812 -20.734375 60.81640625 C-19.74953125 60.73261719 -18.7646875 60.64882812 -17.75 60.5625 C-16.77546875 60.48128906 -15.8009375 60.40007812 -14.796875 60.31640625 C-12.43538247 60.04925416 -10.28098935 59.64628032 -8 59 C-8 56.36 -8 53.72 -8 51 C-7.34 51 -6.68 51 -6 51 C-5.67 48.69 -5.34 46.38 -5 44 C-4.34 44 -3.68 44 -3 44 C-3.04125 43.071875 -3.0825 42.14375 -3.125 41.1875 C-3 38 -3 38 -1 35 C-0.34 35 0.32 35 1 35 C1 33.35 1 31.7 1 30 C1.66 30 2.32 30 3 30 C3.2165625 28.081875 3.2165625 28.081875 3.4375 26.125 C3.70642746 23.74307106 3.92226346 22.15547309 5 20 C5.66 20 6.32 20 7 20 C7 18.35 7 16.7 7 15 C7.66 15 8.32 15 9 15 C9.495 8.565 9.495 8.565 10 2 C7.36 2.33 4.72 2.66 2 3 C1.01 5.64 0.02 8.28 -1 11 C-1.66 11 -2.32 11 -3 11 C-2.6596875 12.6396875 -2.6596875 12.6396875 -2.3125 14.3125 C-2 18 -2 18 -3.3125 19.9375 C-5 21 -5 21 -7 21 C-7.2165625 22.1446875 -7.2165625 22.1446875 -7.4375 23.3125 C-8 26 -8 26 -9 29 C-9.66 29 -10.32 29 -11 29 C-10.37596301 23.19165571 -8.25440018 18.17004717 -6.0625 12.8125 C-5.70220703 11.91080078 -5.34191406 11.00910156 -4.97070312 10.08007812 C-3.5079469 6.46224828 -2.17320329 3.25980493 0 0 Z " fill="#5A964A" transform="translate(199,140)"/>
<path d="M0 0 C3.7981861 -0.55633467 7.21310462 -0.70585669 11 0 C14.16895803 2.40112015 15.92447073 5.64987185 18 9 C19.37149116 11.01493255 20.76482184 13.01382557 22.15820312 15.01367188 C23.56921053 17.04469585 24.96260317 19.08666777 26.3515625 21.1328125 C28.84598815 24.79586455 31.41179422 28.40267428 34 32 C33.98428955 30.75911621 33.98428955 30.75911621 33.96826172 29.49316406 C33.92669088 25.7454736 33.90067008 21.99783168 33.875 18.25 C33.85824219 16.94804687 33.84148437 15.64609375 33.82421875 14.3046875 C33.81455078 12.42910156 33.81455078 12.42910156 33.8046875 10.515625 C33.78897705 8.78747559 33.78897705 8.78747559 33.77294922 7.02441406 C33.99241238 4.10107034 34.47271878 2.46267491 36 0 C37.95766281 -0.08082094 39.91626728 -0.13910778 41.875 -0.1875 C43.51082031 -0.23970703 43.51082031 -0.23970703 45.1796875 -0.29296875 C46.11039062 -0.19628906 47.04109375 -0.09960938 48 0 C50.42130331 3.63195496 50.21022785 5.38349348 50.125 9.6875 C50.10695313 10.86699219 50.08890625 12.04648438 50.0703125 13.26171875 C50.04710937 14.16535156 50.02390625 15.06898438 50 16 C49.34 16 48.68 16 48 16 C48 11.38 48 6.76 48 2 C44.37 2 40.74 2 37 2 C37.0407666 3.0194873 37.0815332 4.03897461 37.12353516 5.08935547 C37.2717847 8.86472831 37.406509 12.6404827 37.53710938 16.41650391 C37.59558 18.05205718 37.65773919 19.68748287 37.72363281 21.32275391 C37.8176061 23.67066214 37.89838991 26.01870678 37.9765625 28.3671875 C38.00875885 29.10057343 38.0409552 29.83395935 38.0741272 30.58956909 C38.12756428 32.39242355 38.07280193 34.19782365 38 36 C37.34 36.66 36.68 37.32 36 38 C31.74276521 34.71031857 28.69177199 31.76236582 26 27 C26 26.01 26 25.02 26 24 C25.34 24 24.68 24 24 24 C23.566875 23.05125 23.13375 22.1025 22.6875 21.125 C21.20697799 17.79958063 21.20697799 17.79958063 18 16 C18 14.68 18 13.36 18 12 C17.01 11.67 16.02 11.34 15 11 C15 10.01 15 9.02 15 8 C14.01 7.67 13.02 7.34 12 7 C12 6.01 12 5.02 12 4 C6.06 3.01 6.06 3.01 0 2 C0 1.34 0 0.68 0 0 Z " fill="#6AA162" transform="translate(279,140)"/>
<path d="M0 0 C0.95390625 -0.04898438 1.9078125 -0.09796875 2.890625 -0.1484375 C7.72766911 0.73703232 9.85021034 4.14174792 12.63671875 7.9609375 C13.23097656 8.88132813 13.82523437 9.80171875 14.4375 10.75 C15.44876953 12.30460938 15.44876953 12.30460938 16.48046875 13.890625 C16.84060059 14.44685547 17.20073242 15.00308594 17.57177734 15.57617188 C18.8572711 17.53877403 20.16985423 19.48125344 21.48828125 21.421875 C21.9469458 22.09943848 22.40561035 22.77700195 22.87817383 23.47509766 C23.7826138 24.81010835 24.68994103 26.14316818 25.6003418 27.47412109 C28.75 32.15068016 28.75 32.15068016 28.75 34.375 C29.41 34.375 30.07 34.375 30.75 34.375 C30.75 35.035 30.75 35.695 30.75 36.375 C29.43 36.045 28.11 35.715 26.75 35.375 C26.42 33.725 26.09 32.075 25.75 30.375 C25.09 30.375 24.43 30.375 23.75 30.375 C23.75 29.715 23.75 29.055 23.75 28.375 C23.09 28.375 22.43 28.375 21.75 28.375 C21.42 27.385 21.09 26.395 20.75 25.375 C20.28335937 24.90835938 19.81671875 24.44171875 19.3359375 23.9609375 C17.49961366 22.12461366 16.54990981 20.31039312 15.375 18 C13.28637373 14.13008285 11.04678322 11.33365161 7.75 8.375 C7.110625 7.6325 6.47125 6.89 5.8125 6.125 C3.17575557 3.8877623 1.15832082 3.60222139 -2.25 3.375 C-4.05803684 5.18303684 -3.46644116 7.9696552 -3.53125 10.41015625 C-3.56806885 11.68431396 -3.6048877 12.95847168 -3.64282227 14.27124023 C-3.66031525 14.95145233 -3.67780823 15.63166443 -3.6958313 16.33248901 C-3.78660415 19.85994774 -3.89241256 23.3869638 -3.99609375 26.9140625 C-4.026782 27.98094551 -4.026782 27.98094551 -4.05809021 29.06938171 C-4.25504405 35.81941326 -4.52207653 42.56585905 -4.8125 49.3125 C-4.85632813 50.33545166 -4.90015625 51.35840332 -4.9453125 52.41235352 C-5.04559883 54.73329462 -5.14702155 57.05417705 -5.25 59.375 C-5.58 59.375 -5.91 59.375 -6.25 59.375 C-6.27312851 51.83001767 -6.29091769 44.28503899 -6.30181217 36.74002934 C-6.30703989 33.23691115 -6.3141355 29.73381715 -6.32543945 26.23071289 C-6.33834206 22.20719159 -6.34322912 18.18369586 -6.34765625 14.16015625 C-6.35539818 12.26487938 -6.35539818 12.26487938 -6.36329651 10.33131409 C-6.36337204 9.170186 -6.36344757 8.00905792 -6.36352539 6.81274414 C-6.36685631 5.2705294 -6.36685631 5.2705294 -6.37025452 3.69715881 C-6.14785379 -0.59748082 -3.79919916 0.13205772 0 0 Z " fill="#77B16C" transform="translate(340.25,139.625)"/>
<path d="M0 0 C-1.04166667 1.69270833 -2.08333333 3.38541667 -3.125 5.078125 C-4.27624023 7.25479385 -4.27624023 7.25479385 -4 11 C-3.02417969 10.3503125 -2.04835937 9.700625 -1.04296875 9.03125 C0.24195203 8.18714146 1.52712129 7.34341106 2.8125 6.5 C3.45509766 6.07074219 4.09769531 5.64148437 4.75976562 5.19921875 C9.66015625 2 9.66015625 2 13 2 C12.41137121 5.56359052 11.05734911 7.37265244 8.625 10 C6.75549035 12.03657222 5.00294163 13.99586736 3.3984375 16.25 C2.93695313 16.8275 2.47546875 17.405 2 18 C1.34 18 0.68 18 0 18 C0 18.66 0 19.32 0 20 C7.04207705 19.2812193 7.04207705 19.2812193 14 18 C14 18.99 14 19.98 14 21 C13 22 13 22 9.18359375 22.09765625 C7.60153318 22.09098089 6.01948841 22.07901875 4.4375 22.0625 C3.63119141 22.05798828 2.82488281 22.05347656 1.99414062 22.04882812 C-0.00393756 22.03700518 -2.00197783 22.01906914 -4 22 C-4 20.02 -4 18.04 -4 16 C-4.99 15.67 -5.98 15.34 -7 15 C-7.02693575 12.87506859 -7.04636628 10.75004088 -7.0625 8.625 C-7.07410156 7.44164062 -7.08570313 6.25828125 -7.09765625 5.0390625 C-7 2 -7 2 -6 0 C-3 -1 -3 -1 0 0 Z " fill="#70A157" transform="translate(243,27)"/>
<path d="M0 0 C4.95 0 9.9 0 15 0 C16.84075696 4.58681675 18.67357735 9.17669663 20.49926758 13.76953125 C21.12081837 15.32995852 21.74449011 16.88954277 22.37036133 18.44824219 C23.27209927 20.69505462 24.16604487 22.94483649 25.05859375 25.1953125 C25.3377916 25.8861795 25.61698944 26.57704651 25.90464783 27.28884888 C27.43824537 31.18028624 28.47754944 34.84863609 29 39 C29.66 39 30.32 39 31 39 C31.1546875 37.824375 31.1546875 37.824375 31.3125 36.625 C32 34 32 34 35 32 C34.88541307 33.43836751 34.75790884 34.87570966 34.625 36.3125 C34.55539063 37.11300781 34.48578125 37.91351563 34.4140625 38.73828125 C34 41 34 41 32 44 C30.35 43.67 28.7 43.34 27 43 C26.75765625 41.98679688 26.5153125 40.97359375 26.265625 39.9296875 C25.92769604 38.57797167 25.58911976 37.22641757 25.25 35.875 C25.01410156 34.87726563 25.01410156 34.87726563 24.7734375 33.859375 C23.59046097 29.21846707 21.739944 25.98024787 19 22 C18.4609375 19.875 18.4609375 19.875 18.375 18 C18.09335776 14.4279521 17.26429763 11.37146035 16 8 C15.34 8 14.68 8 14 8 C14 6.02 14 4.04 14 2 C8.06 2.495 8.06 2.495 2 3 C2.66 4.32 3.32 5.64 4 7 C5.62942711 11.31318942 6.45103392 15.42528266 7 20 C3.31323246 17.54215497 2.82434749 15.77617305 1.25 11.6875 C0.80140625 10.55699219 0.3528125 9.42648438 -0.109375 8.26171875 C-1 5 -1 5 0 0 Z " fill="#62A05E" transform="translate(153,140)"/>
<path d="M0 0 C1.10601562 -0.00580078 1.10601562 -0.00580078 2.234375 -0.01171875 C7.7466804 -0.0016598 7.7466804 -0.0016598 10 1.125 C10.103125 1.90875 10.20625 2.6925 10.3125 3.5 C10.539375 4.36625 10.76625 5.2325 11 6.125 C11.78375 6.558125 12.5675 6.99125 13.375 7.4375 C16.62820139 9.52884375 17.44419458 11.19656017 18.63671875 14.80078125 C19.30701325 19.08922453 18.14930324 23.0043274 17 27.125 C16.87109375 27.86234375 16.7421875 28.5996875 16.609375 29.359375 C16.40828125 29.94203125 16.2071875 30.5246875 16 31.125 C15.01 31.455 14.02 31.785 13 32.125 C12.34 31.465 11.68 30.805 11 30.125 C11.515625 29.155625 12.03125 28.18625 12.5625 27.1875 C14.47466604 22.68935702 14.26871213 18.79965074 13 14.125 C10.87233303 10.29519945 8.52446336 6.15348507 4.3125 4.4375 C-3.01328284 3.44752935 -6.96912135 3.86790919 -13 8.125 C-14.76323505 10.25103185 -14.76323505 10.25103185 -16 12.125 C-16.66 12.125 -17.32 12.125 -18 12.125 C-18 10.805 -18 9.485 -18 8.125 C-15.38369776 6.21580647 -13.07366722 5.14955574 -10 4.125 C-10 3.135 -10 2.145 -10 1.125 C-6.84150315 -0.45424842 -3.4634872 -0.01816514 0 0 Z " fill="#5DA257" transform="translate(243,150.875)"/>
<path d="M0 0 C2.45840605 -0.02691685 4.91651882 -0.04679802 7.375 -0.0625 C8.07367188 -0.07087891 8.77234375 -0.07925781 9.4921875 -0.08789062 C14.7734375 -0.11328125 14.7734375 -0.11328125 17 1 C17 4.96 17 8.92 17 13 C16.67 13 16.34 13 16 13 C16 9.37 16 5.74 16 2 C11.05 2 6.1 2 1 2 C1 2.66 1 3.32 1 4 C0.2575 4.45375 -0.485 4.9075 -1.25 5.375 C-4.93753603 8.89492076 -5.67127323 12.48275 -7.0078125 17.3203125 C-8 20 -8 20 -11 22 C-14.1875 22.125 -14.1875 22.125 -17 22 C-17.38878143 8.65183752 -17.38878143 8.65183752 -15 4 C-14.01 3.67 -13.02 3.34 -12 3 C-12.66 7.62 -13.32 12.24 -14 17 C-12.68 17 -11.36 17 -10 17 C-9.34 13.04 -8.68 9.08 -8 5 C-7.01 4.67 -6.02 4.34 -5 4 C-5 3.34 -5 2.68 -5 2 C-3.35 2 -1.7 2 0 2 C0 1.34 0 0.68 0 0 Z " fill="#719B64" transform="translate(276,55)"/>
<path d="M0 0 C1.16660156 0.00322266 2.33320313 0.00644531 3.53515625 0.00976562 C4.75847656 0.01814453 5.98179687 0.02652344 7.2421875 0.03515625 C8.47324219 0.03966797 9.70429688 0.04417969 10.97265625 0.04882812 C14.02088142 0.06064295 17.06901064 0.07711597 20.1171875 0.09765625 C20.26330937 4.59731062 20.3515398 9.09634863 20.4296875 13.59765625 C20.47158203 14.86609375 20.51347656 16.13453125 20.55664062 17.44140625 C20.65512821 25.00525297 20.28611873 30.33707273 15.1171875 36.09765625 C14.63290283 36.65646484 14.14861816 37.21527344 13.6496582 37.79101562 C11.29052178 39.80250171 9.09480554 39.29616412 6.1171875 39.09765625 C7.39781235 37.39015645 8.73486307 35.72392029 10.1171875 34.09765625 C10.7771875 34.09765625 11.4371875 34.09765625 12.1171875 34.09765625 C12.2203125 33.49953125 12.3234375 32.90140625 12.4296875 32.28515625 C13.1171875 30.09765625 13.1171875 30.09765625 14.6171875 28.66015625 C17.48598541 25.6718251 17.25404948 21.20999822 17.43359375 17.234375 C17.47170166 16.43475342 17.50980957 15.63513184 17.54907227 14.8112793 C17.61372681 13.31334839 17.61372681 13.31334839 17.6796875 11.78515625 C17.8240625 8.58828125 17.9684375 5.39140625 18.1171875 2.09765625 C9.5371875 2.42765625 0.9571875 2.75765625 -7.8828125 3.09765625 C-7.8828125 2.43765625 -7.8828125 1.77765625 -7.8828125 1.09765625 C-5.16879956 -0.25935022 -3.03434934 -0.01472985 0 0 Z " fill="#698E5D" transform="translate(280.8828125,46.90234375)"/>
<path d="M0 0 C7.52190167 4.35781301 12.79265393 10.77113011 15.79296875 18.93359375 C16.27481793 22.04319403 16.26738881 25.04401275 16.16796875 28.18359375 C16.16667969 28.9725 16.16539062 29.76140625 16.1640625 30.57421875 C16.10470411 34.47868188 16.04264375 37.58607735 13.79296875 40.93359375 C13.13296875 40.93359375 12.47296875 40.93359375 11.79296875 40.93359375 C11.79296875 39.28359375 11.79296875 37.63359375 11.79296875 35.93359375 C12.45296875 35.93359375 13.11296875 35.93359375 13.79296875 35.93359375 C13.705513 33.53609991 13.598598 31.14211154 13.48046875 28.74609375 C13.44663086 27.73579102 13.44663086 27.73579102 13.41210938 26.70507812 C13.17444261 22.2758338 12.29240933 19.56388662 9.79296875 15.93359375 C9.46296875 14.90234375 9.13296875 13.87109375 8.79296875 12.80859375 C7.7988809 9.95059118 6.96719977 8.9101674 4.79296875 6.93359375 C4.79296875 6.27359375 4.79296875 5.61359375 4.79296875 4.93359375 C1.82296875 4.43859375 1.82296875 4.43859375 -1.20703125 3.93359375 C-1.53703125 2.94359375 -1.86703125 1.95359375 -2.20703125 0.93359375 C-7.1970925 0.06575701 -11.90866155 -0.12971978 -16.97265625 -0.00390625 C-19.20703125 -0.06640625 -19.20703125 -0.06640625 -22.20703125 -1.06640625 C-22.20703125 -1.72640625 -22.20703125 -2.38640625 -22.20703125 -3.06640625 C-14.57919023 -5.60901992 -7.01902562 -3.3914938 0 0 Z " fill="#63935A" transform="translate(257.20703125,143.06640625)"/>
<path d="M0 0 C0.99 0.33 1.98 0.66 3 1 C4.09947346 3.27404756 5.01166551 5.45008454 5.875 7.8125 C6.39324408 9.18147755 6.91279431 10.54996129 7.43359375 11.91796875 C7.69253418 12.6042334 7.95147461 13.29049805 8.21826172 13.99755859 C9.7291404 17.86771067 11.48527589 21.63757489 13.21484375 25.4140625 C14 28 14 28 13 33 C8.38 33 3.76 33 -1 33 C-3.25 27.375 -3.25 27.375 -2 24 C0 26 0 26 0 30 C2.97 30 5.94 30 9 30 C8.81535634 25.65815798 8.81535634 25.65815798 7 22 C6.95936168 20.33382885 6.957279 18.66611905 7 17 C6.34 17 5.68 17 5 17 C4.15838146 14.91999989 3.32699237 12.83585854 2.5 10.75 C2.0359375 9.58984375 1.571875 8.4296875 1.09375 7.234375 C0 4 0 4 0 0 Z " fill="#74C878" transform="translate(151,169)"/>
<path d="M0 0 C1.97909398 -0.02686553 3.95828971 -0.04633375 5.9375 -0.0625 C7.03964844 -0.07410156 8.14179688 -0.08570313 9.27734375 -0.09765625 C12 0 12 0 13 1 C13.08851529 3.59359322 13.11525945 6.16039691 13.09765625 8.75390625 C13.0962413 9.52935287 13.09482635 10.3047995 13.09336853 11.10374451 C13.08775345 13.59003494 13.07519846 16.0762366 13.0625 18.5625 C13.05748694 20.24413933 13.0529237 21.92578006 13.04882812 23.60742188 C13.03777913 27.73831566 13.02050445 31.86914276 13 36 C12.34 36 11.68 36 11 36 C11 24.78 11 13.56 11 2 C3.71626405 2.07908908 3.71626405 2.07908908 2 4 C1.84174742 5.99782126 1.74880829 8.00088834 1.68359375 10.00390625 C1.64169922 11.21884766 1.59980469 12.43378906 1.55664062 13.68554688 C1.51732422 14.96494141 1.47800781 16.24433594 1.4375 17.5625 C1.39431641 18.84576172 1.35113281 20.12902344 1.30664062 21.45117188 C1.200152 24.63399853 1.09814038 27.81690674 1 31 C0.34 31.33 -0.32 31.66 -1 32 C-1.02469321 27.7641643 -1.04285671 23.52836658 -1.05493164 19.29248047 C-1.05996474 17.8510668 -1.06679173 16.40965824 -1.07543945 14.96826172 C-1.08754983 12.89809915 -1.09323847 10.82800399 -1.09765625 8.7578125 C-1.10289307 7.5114502 -1.10812988 6.26508789 -1.11352539 4.98095703 C-1 2 -1 2 0 0 Z " fill="#668D5A" transform="translate(372,140)"/>
<path d="M0 0 C1.95766281 -0.08082094 3.91626728 -0.13910778 5.875 -0.1875 C7.51082031 -0.23970703 7.51082031 -0.23970703 9.1796875 -0.29296875 C10.11039062 -0.19628906 11.04109375 -0.09960938 12 0 C14.42130331 3.63195496 14.21022785 5.38349348 14.125 9.6875 C14.10695313 10.86699219 14.08890625 12.04648438 14.0703125 13.26171875 C14.04710937 14.16535156 14.02390625 15.06898438 14 16 C13.34 16 12.68 16 12 16 C12 11.38 12 6.76 12 2 C8.37 2 4.74 2 1 2 C1 12.23 1 22.46 1 33 C0.01 33.495 0.01 33.495 -1 34 C-2.75944009 28.72167974 -2.18463933 23.08645495 -2.1875 17.5625 C-2.19974609 16.32177734 -2.21199219 15.08105469 -2.22460938 13.80273438 C-2.22654297 12.61099609 -2.22847656 11.41925781 -2.23046875 10.19140625 C-2.23457764 9.10029541 -2.23868652 8.00918457 -2.24291992 6.88500977 C-2.00407609 4.0484092 -1.46930571 2.40468239 0 0 Z " fill="#71A069" transform="translate(315,140)"/>
<path d="M0 0 C3.2578125 -0.29296875 3.2578125 -0.29296875 7.125 -0.1875 C9.04699219 -0.14689453 9.04699219 -0.14689453 11.0078125 -0.10546875 C11.99523437 -0.07066406 12.98265625 -0.03585938 14 0 C15.2168228 4.73029789 14.4634897 6.76279771 12 11 C10.89155081 7.67465243 11.15545644 5.37817425 12 2 C8.7 2.33 5.4 2.66 2 3 C1.01 5.64 0.02 8.28 -1 11 C-1.66 11 -2.32 11 -3 11 C-2.6596875 12.6396875 -2.6596875 12.6396875 -2.3125 14.3125 C-2 18 -2 18 -3.3125 19.9375 C-5 21 -5 21 -7 21 C-7.144375 21.763125 -7.28875 22.52625 -7.4375 23.3125 C-8 26 -8 26 -9 29 C-9.66 29 -10.32 29 -11 29 C-10.37596301 23.19165571 -8.25440018 18.17004717 -6.0625 12.8125 C-5.70220703 11.91080078 -5.34191406 11.00910156 -4.97070312 10.08007812 C-3.5079469 6.46224828 -2.17320329 3.25980493 0 0 Z " fill="#5F8B52" transform="translate(199,140)"/>
<path d="M0 0 C0.33 0.66 0.66 1.32 1 2 C3.02463255 2.65213292 3.02463255 2.65213292 5 3 C4.34 3.66 3.68 4.32 3 5 C1.8695769 10.59713912 1.80604662 16.18393491 1.71875 21.87890625 C1.70034058 22.80920151 1.68193115 23.73949677 1.66296387 24.69798279 C1.58482662 28.65198067 1.51666765 32.60613504 1.44775391 36.56030273 C1.39580485 39.4582498 1.33865387 42.35606292 1.28125 45.25390625 C1.26767456 46.14155167 1.25409912 47.02919708 1.2401123 47.94374084 C1.15129976 52.39482742 0.88413184 56.61826767 0 61 C-0.33 61 -0.66 61 -1 61 C-1.02312792 53.19424805 -1.04091738 45.38850405 -1.05181217 37.58272648 C-1.05704002 33.9585404 -1.06413587 30.3343777 -1.07543945 26.71020508 C-1.08627184 23.21540025 -1.09227758 19.72061796 -1.09487724 16.22579765 C-1.09763551 14.23760611 -1.10544688 12.24942369 -1.11329651 10.26124573 C-1.11337204 9.06007614 -1.11344757 7.85890656 -1.11352539 6.62133789 C-1.115746 5.55766495 -1.11796661 4.493992 -1.12025452 3.39808655 C-1 1 -1 1 0 0 Z " fill="#3E6F35" transform="translate(278,140)"/>
<path d="M0 0 C0.33 0 0.66 0 1 0 C1.02888514 3.14581423 1.04675923 6.29159469 1.0625 9.4375 C1.07087891 10.33533203 1.07925781 11.23316406 1.08789062 12.15820312 C1.09272461 13.43920898 1.09272461 13.43920898 1.09765625 14.74609375 C1.10551147 15.93223267 1.10551147 15.93223267 1.11352539 17.14233398 C1 19 1 19 0 20 C-3.68756404 20.28967149 -7.37551835 20.44915778 -11.0703125 20.62109375 C-15.02023282 21.00195088 -18.2422616 21.7945956 -22 23 C-22.33 21.68 -22.66 20.36 -23 19 C-18.29538677 17.13867327 -14.1242304 16.7490504 -9.125 16.875 C-8.09246094 16.88853516 -8.09246094 16.88853516 -7.0390625 16.90234375 C-5.35922162 16.92567487 -3.67956254 16.96153674 -2 17 C-2.02320313 16.10796875 -2.04640625 15.2159375 -2.0703125 14.296875 C-2.09738281 12.54117188 -2.09738281 12.54117188 -2.125 10.75 C-2.14820313 9.58984375 -2.17140625 8.4296875 -2.1953125 7.234375 C-2.0103949 4.17213954 -1.60823023 2.55797249 0 0 Z " fill="#76A160" transform="translate(229,30)"/>
<path d="M0 0 C0.33 0.66 0.66 1.32 1 2 C3.02463255 2.65213292 3.02463255 2.65213292 5 3 C5 3.66 5 4.32 5 5 C5.66 5 6.32 5 7 5 C7.103125 5.639375 7.20625 6.27875 7.3125 6.9375 C7.539375 7.618125 7.76625 8.29875 8 9 C8.99 9.33 9.98 9.66 11 10 C11 10.66 11 11.32 11 12 C12.32 12.33 13.64 12.66 15 13 C15 13.66 15 14.32 15 15 C15.721875 15.28875 16.44375 15.5775 17.1875 15.875 C18.87272467 16.54908987 20.5457475 17.25728096 22.1875 18.03125 C25.71209953 19.24527873 29.12245915 19.4555053 32.8125 19.625 C33.85180664 19.68300781 33.85180664 19.68300781 34.91210938 19.7421875 C36.60767015 19.83573568 38.30379712 19.91892364 40 20 C40 20.33 40 20.66 40 21 C26.13586216 21.50774055 16.36026625 21.73707346 5.73046875 11.87109375 C2.49447605 8.37213099 0 4.90726935 0 0 Z " fill="#549D57" transform="translate(211,181)"/>
<path d="M0 0 C0.66 0 1.32 0 2 0 C2.02472039 4.64477144 2.04286968 9.28950457 2.05493164 13.93432617 C2.05996014 15.51441108 2.06678378 17.09449134 2.07543945 18.67456055 C2.08756992 20.94581246 2.09324313 23.21700285 2.09765625 25.48828125 C2.10281754 26.19463211 2.10797882 26.90098297 2.11329651 27.6287384 C2.11364803 30.70254391 1.9803186 33.0590442 1 36 C-3.29 36 -7.58 36 -12 36 C-12 33.69 -12 31.38 -12 29 C-11.34 29.99 -10.68 30.98 -10 32 C-7.03 32 -4.06 32 -1 32 C-0.67 21.44 -0.34 10.88 0 0 Z " fill="#7BA67B" transform="translate(290,166)"/>
<path d="M0 0 C0 0.99 0 1.98 0 3 C-1.25321045 3.029729 -1.25321045 3.029729 -2.53173828 3.06005859 C-5.70415045 3.13929229 -8.87625603 3.22600283 -12.04833984 3.31738281 C-14.06723624 3.37339734 -16.08635538 3.42119483 -18.10546875 3.46875 C-32.75749169 3.84875169 -32.75749169 3.84875169 -47 7 C-46.05758564 4.42977902 -45.42511784 3.23474416 -42.99536133 1.89306641 C-38.89585872 0.67080049 -35.01950926 0.64385769 -30.76171875 0.5859375 C-29.88095169 0.56657135 -29.00018463 0.5472052 -28.09272766 0.5272522 C-25.29108234 0.46767149 -22.48939544 0.42115735 -19.6875 0.375 C-17.78318562 0.33680041 -15.87888815 0.29774753 -13.97460938 0.2578125 C-9.31654428 0.16198767 -4.65839832 0.0778774 0 0 Z " fill="#668A5C" transform="translate(283,78)"/>
<path d="M0 0 C3.63 0 7.26 0 11 0 C12.10603595 11.8035358 12.11719619 23.53172588 12.0625 35.375 C12.05747156 37.28645715 12.05291104 39.19791559 12.04882812 41.109375 C12.03793688 45.73961587 12.02074751 50.36979323 12 55 C11.67 55 11.34 55 11 55 C10.98018066 54.13536133 10.96036133 53.27072266 10.93994141 52.37988281 C10.84274619 48.3363469 10.73731878 44.29314133 10.625 40.25 C10.60487854 39.52391541 10.58475708 38.79783081 10.56402588 38.04974365 C10.27999971 28.20377602 9.77496914 18.44978921 8.57275391 8.66503906 C7.91028221 3.17943557 7.91028221 3.17943557 9 1 C6.69 1.66 4.38 2.32 2 3 C1.67 4.65 1.34 6.3 1 8 C0.67 8 0.34 8 0 8 C0 5.36 0 2.72 0 0 Z " fill="#518E42" transform="translate(316,142)"/>
<path d="M0 0 C0.99 0 1.98 0 3 0 C2.48943423 4.18663928 1.36739471 6.17881988 -1.625 9.125 C-2.27726562 9.78757813 -2.92953125 10.45015625 -3.6015625 11.1328125 C-9.31896016 15.58381589 -14.6453245 16.46664478 -21.625 16.3125 C-22.36234375 16.31572266 -23.0996875 16.31894531 -23.859375 16.32226562 C-27.97520443 16.28169741 -31.35301452 15.97719711 -35 14 C-35.33 13.34 -35.66 12.68 -36 12 C-32 13 -32 13 -30.12890625 13.52734375 C-24.34995304 14.8103774 -17.71318079 14.28255079 -12 13 C-11.34 12.01 -10.68 11.02 -10 10 C-9.34 10 -8.68 10 -8 10 C-8 9.34 -8 8.68 -8 8 C-7.05125 7.79375 -6.1025 7.5875 -5.125 7.375 C-1.70833333 6.29166667 -1.70833333 6.29166667 -0.625 2.875 C-0.41875 1.92625 -0.2125 0.9775 0 0 Z " fill="#579F5A" transform="translate(266,185)"/>
<path d="M0 0 C0.66 0.33 1.32 0.66 2 1 C1.96519531 1.64066406 1.93039063 2.28132812 1.89453125 2.94140625 C1.6730025 10.01977711 2.15097259 14.89958782 7.125 20.3125 C12.81580091 23.65275271 18.5568669 24.65208541 25 23 C25 23.66 25 24.32 25 25 C21.2801102 26.8599449 17.05895312 26.44506065 13 26 C10.12298839 24.96760298 7.61569829 23.56485007 5 22 C4.30648437 21.70867187 3.61296875 21.41734375 2.8984375 21.1171875 C0.44427577 19.67296887 -0.10107936 18.69676192 -1 16 C-1.23046875 12.87109375 -1.23046875 12.87109375 -1.1875 9.4375 C-1.18105469 8.30183594 -1.17460937 7.16617188 -1.16796875 5.99609375 C-1 3 -1 3 0 0 Z " fill="#6AA168" transform="translate(224,164)"/>
<path d="M0 0 C0.66 0 1.32 0 2 0 C2 8.25 2 16.5 2 25 C-0.64458379 26.32229189 -2.67761301 26.09677194 -5.625 26.0625 C-6.62789063 26.05347656 -7.63078125 26.04445312 -8.6640625 26.03515625 C-9.43492187 26.02355469 -10.20578125 26.01195312 -11 26 C-11.66 24.02 -12.32 22.04 -13 20 C-12.34 20 -11.68 20 -11 20 C-10.67 20.66 -10.34 21.32 -10 22 C-6.7 22.33 -3.4 22.66 0 23 C0 15.41 0 7.82 0 0 Z " fill="#78AC7A" transform="translate(383,176)"/>
<path d="M0 0 C0.66 0 1.32 0 2 0 C1.25 5.75 1.25 5.75 -1 8 C-1.71927295 10.31765729 -2.3909893 12.65095874 -3 15 C-3.66 15 -4.32 15 -5 15 C-5.33 17.97 -5.66 20.94 -6 24 C-5.34 24.33 -4.68 24.66 -4 25 C-5.98 25.33 -7.96 25.66 -10 26 C-9.44295796 20.23881183 -7.82294417 15.4956306 -5.5625 10.1875 C-5.24990234 9.42501953 -4.93730469 8.66253906 -4.61523438 7.87695312 C-2.27056421 2.27056421 -2.27056421 2.27056421 0 0 Z " fill="#507A51" transform="translate(114,175)"/>
<path d="M0 0 C0.33 0.99 0.66 1.98 1 3 C0.67 3.66 0.34 4.32 0 5 C-0.22467831 6.53668865 -0.40796805 8.07968054 -0.5625 9.625 C-0.64628906 10.44226563 -0.73007812 11.25953125 -0.81640625 12.1015625 C-0.87699219 12.72804688 -0.93757813 13.35453125 -1 14 C0.32 14 1.64 14 3 14 C3.33 13.34 3.66 12.68 4 12 C4.66 12 5.32 12 6 12 C5.6875 14.375 5.6875 14.375 5 17 C1.5647952 19.29013653 0.014669 19.17842973 -4 19 C-4.38167939 5.8956743 -4.38167939 5.8956743 -2 1 C-1.34 0.67 -0.68 0.34 0 0 Z " fill="#657D5E" transform="translate(263,58)"/>
<path d="M0 0 C0.99 0.33 1.98 0.66 3 1 C4.16523893 3.37791762 5.14092777 5.65490359 6.0625 8.125 C6.31837891 8.77726563 6.57425781 9.42953125 6.83789062 10.1015625 C8.47552567 14.34510011 9.80870798 18.61102941 11 23 C10.34 23.66 9.68 24.32 9 25 C6.8480563 21.77208445 6.79913557 20.71599191 7 17 C6.34 17 5.68 17 5 17 C4.15838146 14.91999989 3.32699237 12.83585854 2.5 10.75 C2.0359375 9.58984375 1.571875 8.4296875 1.09375 7.234375 C0 4 0 4 0 0 Z " fill="#62A962" transform="translate(151,169)"/>
<path d="M0 0 C1.58179615 -0.10867302 3.16577153 -0.18589827 4.75 -0.25 C5.63171875 -0.29640625 6.5134375 -0.3428125 7.421875 -0.390625 C10.84953614 0.1287176 11.75396615 1.40336844 14 4 C15.28027344 6.44189453 15.28027344 6.44189453 16.359375 9.1328125 C16.75253906 10.10347656 17.14570313 11.07414063 17.55078125 12.07421875 C17.94652344 13.08097656 18.34226563 14.08773437 18.75 15.125 C19.16121094 16.13949219 19.57242188 17.15398437 19.99609375 18.19921875 C23 25.69401474 23 25.69401474 23 28 C22.34 28 21.68 28 21 28 C18.34267914 25.10481155 17.3634474 22.40286537 16.4375 18.625 C15.43565778 14.68617823 14.34847337 10.83796265 13 7 C12.34 7 11.68 7 11 7 C11 6.01 11 5.02 11 4 C10.34 4 9.68 4 9 4 C9 3.01 9 2.02 9 1 C6.03 1 3.06 1 0 1 C0 0.67 0 0.34 0 0 Z " fill="#709B64" transform="translate(130,141)"/>
<path d="M0 0 C0.33 0 0.66 0 1 0 C1.33 6.27 1.66 12.54 2 19 C9.26 19 16.52 19 24 19 C24.33 19.66 24.66 20.32 25 21 C16.75 21 8.5 21 0 21 C0 14.07 0 7.14 0 0 Z " fill="#76A768" transform="translate(229,99)"/>
<path d="M0 0 C0.99 0 1.98 0 3 0 C2.67 0.66 2.34 1.32 2 2 C1.85595264 4.39404487 1.76613535 6.76390911 1.71875 9.16015625 C1.70034058 9.86522812 1.68193115 10.57029999 1.66296387 11.29673767 C1.58417898 14.31851853 1.51639985 17.3405233 1.44775391 20.36254883 C1.39614116 22.56603408 1.33885725 24.76932092 1.28125 26.97265625 C1.26767456 27.66118179 1.25409912 28.34970734 1.2401123 29.05909729 C1.11283078 33.88716922 1.11283078 33.88716922 0 35 C-2.01964199 35.07244053 -4.04167124 35.08377188 -6.0625 35.0625 C-7.16722656 35.05347656 -8.27195312 35.04445312 -9.41015625 35.03515625 C-10.69212891 35.01775391 -10.69212891 35.01775391 -12 35 C-12 34.34 -12 33.68 -12 33 C-8.37 33 -4.74 33 -1 33 C-0.67 22.11 -0.34 11.22 0 0 Z " fill="#629164" transform="translate(347,167)"/>
<path d="M0 0 C0.66 0 1.32 0 2 0 C2.05855176 3.52076232 2.0937806 7.0413976 2.125 10.5625 C2.14175781 11.55314453 2.15851563 12.54378906 2.17578125 13.56445312 C2.21274359 19.12728491 1.87082551 23.74843075 0 29 C-0.66 29 -1.32 29 -2 29 C-2.33 29.66 -2.66 30.32 -3 31 C-2.86722656 29.93523438 -2.73445313 28.87046875 -2.59765625 27.7734375 C-1.46493598 18.52217487 -0.56044105 9.30627113 0 0 Z " fill="#7FA66B" transform="translate(268,17)"/>
<path d="M0 0 C1.25167969 0.01804687 2.50335938 0.03609375 3.79296875 0.0546875 C6.86278242 0.10155488 9.93098174 0.1671569 13 0.25 C13 0.58 13 0.91 13 1.25 C12.29915283 1.27505615 11.59830566 1.3001123 10.8762207 1.32592773 C7.68814512 1.44226545 4.50033758 1.56482044 1.3125 1.6875 C-0.34168945 1.74647461 -0.34168945 1.74647461 -2.02929688 1.80664062 C-3.09599609 1.84853516 -4.16269531 1.89042969 -5.26171875 1.93359375 C-6.73064575 1.98858032 -6.73064575 1.98858032 -8.22924805 2.04467773 C-10.89465177 2.24219333 -13.39469788 2.66573033 -16 3.25 C-16.33 4.24 -16.66 5.23 -17 6.25 C-18.62890625 7.63671875 -18.62890625 7.63671875 -20.5625 8.9375 C-21.52349609 9.59298828 -21.52349609 9.59298828 -22.50390625 10.26171875 C-22.99761719 10.58785156 -23.49132812 10.91398437 -24 11.25 C-24.33 10.26 -24.66 9.27 -25 8.25 C-24.67 7.59 -24.34 6.93 -24 6.25 C-23.34 6.25 -22.68 6.25 -22 6.25 C-22 5.59 -22 4.93 -22 4.25 C-14.73103699 -0.36579151 -8.45366809 -0.23209648 0 0 Z " fill="#678359" transform="translate(256,15.75)"/>
<path d="M0 0 C2.34130595 3.68316114 2.23524892 6.82759764 2.1875 11.125 C2.17783203 12.15560547 2.17783203 12.15560547 2.16796875 13.20703125 C2.04911055 21.48253331 1.53519062 29.74277324 1 38 C-1.97 38 -4.94 38 -8 38 C-8 37.67 -8 37.34 -8 37 C-5.36 37 -2.72 37 0 37 C-0.05329468 35.58521362 -0.05329468 35.58521362 -0.10766602 34.1418457 C-0.23719613 30.62896316 -0.36145079 27.11597507 -0.48217773 23.6027832 C-0.5354146 22.08480439 -0.59072853 20.5668969 -0.64819336 19.04907227 C-0.73061847 16.86229831 -0.80547122 14.67537334 -0.87890625 12.48828125 C-0.9260376 11.17384033 -0.97316895 9.85939941 -1.02172852 8.50512695 C-1.00297596 5.48006575 -0.72984472 2.92183626 0 0 Z " fill="#54B950" transform="translate(325,161)"/>
<path d="M0 0 C2 3 2 3 1.75 5.3125 C0.93116583 8.24665579 0.00329153 11.12389762 -1 14 C2.63 14 6.26 14 10 14 C9.67 14.99 9.34 15.98 9 17 C4.71 17 0.42 17 -4 17 C-4.56131481 10.54487966 -2.63463787 5.84560277 0 0 Z " fill="#66A160" transform="translate(131,160)"/>
<path d="M0 0 C3.81545183 1.27181728 4.26169294 2.60556072 6.3125 6 C9.06947821 10.4991538 11.92952298 14.88518592 14.93359375 19.22265625 C16 21 16 21 16 23 C16.66 23 17.32 23 18 23 C18 23.66 18 24.32 18 25 C16.68 24.67 15.36 24.34 14 24 C13.67 22.35 13.34 20.7 13 19 C12.34 19 11.68 19 11 19 C11 18.34 11 17.68 11 17 C10.34 17 9.68 17 9 17 C8.67 16.01 8.34 15.02 8 14 C7.00279719 12.99721062 6.00243604 11.99755801 5 11 C4.0561681 9.50847973 3.16145329 7.98499142 2.3125 6.4375 C1.87550781 5.65246094 1.43851562 4.86742187 0.98828125 4.05859375 C0 2 0 2 0 0 Z " fill="#68975F" transform="translate(353,151)"/>
<path d="M0 0 C3.80410414 -0.55720151 7.21484524 -0.75804847 11 0 C16.07154767 4.25902859 19.6156069 10.53949885 21 17 C20.01 16.67 19.02 16.34 18 16 C18 14.68 18 13.36 18 12 C17.01 11.67 16.02 11.34 15 11 C15 10.01 15 9.02 15 8 C14.01 7.67 13.02 7.34 12 7 C12 6.01 12 5.02 12 4 C6.06 3.01 6.06 3.01 0 2 C0 1.34 0 0.68 0 0 Z " fill="#6C955D" transform="translate(279,140)"/>
<path d="M0 0 C1.32 0.33 2.64 0.66 4 1 C3.67 1.33 3.34 1.66 3 2 C2.84174742 3.99782126 2.74880829 6.00088834 2.68359375 8.00390625 C2.64169922 9.21884766 2.59980469 10.43378906 2.55664062 11.68554688 C2.51732422 12.96494141 2.47800781 14.24433594 2.4375 15.5625 C2.39431641 16.84576172 2.35113281 18.12902344 2.30664062 19.45117188 C2.200152 22.63399853 2.09814038 25.81690674 2 29 C1.34 29.33 0.68 29.66 0 30 C0 20.1 0 10.2 0 0 Z " fill="#5FA551" transform="translate(371,142)"/>
<path d="M0 0 C0.99 0 1.98 0 3 0 C3 0.99 3 1.98 3 3 C4.32 3.33 5.64 3.66 7 4 C7 4.99 7 5.98 7 7 C7.66 7 8.32 7 9 7 C9 7.99 9 8.98 9 10 C8.01 10.33 7.02 10.66 6 11 C3 7.375 3 7.375 3 4 C2.34 4 1.68 4 1 4 C1 10.27 1 16.54 1 23 C0.67 23 0.34 23 0 23 C-0.19635974 19.54210946 -0.38058252 16.08367803 -0.5625 12.625 C-0.61857422 11.64015625 -0.67464844 10.6553125 -0.73242188 9.640625 C-0.80493164 8.22910156 -0.80493164 8.22910156 -0.87890625 6.7890625 C-0.9260376 5.91975098 -0.97316895 5.05043945 -1.02172852 4.15478516 C-1 2 -1 2 0 0 Z " fill="#5AAE52" transform="translate(289,162)"/>
<path d="M0 0 C0.33 0 0.66 0 1 0 C1 9.57 1 19.14 1 29 C-2.3 29 -5.6 29 -9 29 C-9.33 28.01 -9.66 27.02 -10 26 C-9.01 26 -8.02 26 -7 26 C-7 26.66 -7 27.32 -7 28 C-3.95756127 27.26374886 -3.95756127 27.26374886 -2.35546875 25.14453125 C-0.31668942 20.41479821 -0.42672192 15.78832441 -0.3125 10.6875 C-0.27833984 9.66076172 -0.24417969 8.63402344 -0.20898438 7.57617188 C-0.12676591 5.05089037 -0.05753064 2.5259446 0 0 Z " fill="#51C352" transform="translate(382,170)"/>
<path d="M0 0 C0.061875 0.53625 0.12375 1.0725 0.1875 1.625 C0.9279403 4.30496915 0.9279403 4.30496915 3.625 6.875 C6 10 6 10 5.8125 13.375 C5.544375 14.24125 5.27625 15.1075 5 16 C0.79759989 12.28249221 -1.99782679 7.68339021 -5 3 C-2 1 -2 1 0 0 Z " fill="#52914F" transform="translate(366,184)"/>
<path d="M0 0 C4.29 0 8.58 0 13 0 C13 0.33 13 0.66 13 1 C9.37 1 5.74 1 2 1 C2.51577905 4.78237972 3.26452937 7.63114524 5 11 C7.17708333 17.64583333 7.17708333 17.64583333 6 20 C3.87729253 16.8159388 2.2572964 13.50655761 0.75 10 C0.39421875 9.175 0.0384375 8.35 -0.328125 7.5 C-1 5 -1 5 0 0 Z " fill="#5A7252" transform="translate(153,140)"/>
<path d="M0 0 C0.99 0.66 1.98 1.32 3 2 C3 2.66 3 3.32 3 4 C2.01 4 1.02 4 0 4 C0 3.34 0 2.68 0 2 C-4.99006125 1.13216326 -9.7016303 0.93668647 -14.765625 1.0625 C-17 1 -17 1 -20 0 C-20 -0.66 -20 -1.32 -20 -2 C-13.05539025 -4.31486992 -6.62819529 -2.52613037 0 0 Z " fill="#6C9761" transform="translate(255,142)"/>
<path d="M0 0 C0.33 0 0.66 0 1 0 C1.125 4.75 1.125 4.75 0 7 C0.66 7.66 1.32 8.32 2 9 C-3.29230769 13.06153846 -3.29230769 13.06153846 -6.875 12.75 C-7.57625 12.5025 -8.2775 12.255 -9 12 C-6.2534186 7.72754004 -3.36007505 3.81413925 0 0 Z " fill="#67785E" transform="translate(250,94)"/>
<path d="M0 0 C-0.59699131 3.33135891 -1.72012281 5.21275667 -3.9375 7.75 C-4.46214844 8.36359375 -4.98679688 8.9771875 -5.52734375 9.609375 C-7 11 -7 11 -9 11 C-9 9.35 -9 7.7 -9 6 C-9.66 5.67 -10.32 5.34 -11 5 C-9.73461631 4.15841464 -8.46246221 3.32700252 -7.1875 2.5 C-6.47980469 2.0359375 -5.77210938 1.571875 -5.04296875 1.09375 C-3 0 -3 0 0 0 Z " fill="#6A8658" transform="translate(256,29)"/>
<path d="M0 0 C0.66 0 1.32 0 2 0 C3.33855096 4.01565287 2.23071006 5.67187183 0.6875 9.5625 C0.23761719 10.71878906 -0.21226562 11.87507812 -0.67578125 13.06640625 C-2 16 -2 16 -4 18 C-7.2578125 18.1953125 -7.2578125 18.1953125 -11.125 18.125 C-13.04699219 18.09792969 -13.04699219 18.09792969 -15.0078125 18.0703125 C-16.48894531 18.03550781 -16.48894531 18.03550781 -18 18 C-18 17.67 -18 17.34 -18 17 C-17.25234375 16.93941406 -16.5046875 16.87882812 -15.734375 16.81640625 C-14.25710937 16.69072266 -14.25710937 16.69072266 -12.75 16.5625 C-11.77546875 16.48128906 -10.8009375 16.40007812 -9.796875 16.31640625 C-7.43538247 16.04925416 -5.28098935 15.64628032 -3 15 C-3 12.36 -3 9.72 -3 7 C-2.34 7 -1.68 7 -1 7 C-0.67 4.69 -0.34 2.38 0 0 Z " fill="#528857" transform="translate(194,184)"/>
<path d="M0 0 C0.66 0.33 1.32 0.66 2 1 C2 5.62 2 10.24 2 15 C5.63 15.33 9.26 15.66 13 16 C13 16.33 13 16.66 13 17 C8.38 17 3.76 17 -1 17 C-1.02691685 14.54159395 -1.04679802 12.08348118 -1.0625 9.625 C-1.07087891 8.92632812 -1.07925781 8.22765625 -1.08789062 7.5078125 C-1.11328125 2.2265625 -1.11328125 2.2265625 0 0 Z " fill="#8BB173" transform="translate(205,64)"/>
<path d="M0 0 C0.33 0 0.66 0 1 0 C1.06058594 1.13179687 1.12117188 2.26359375 1.18359375 3.4296875 C1.26799917 4.91147145 1.35264717 6.3932416 1.4375 7.875 C1.47681641 8.62136719 1.51613281 9.36773437 1.55664062 10.13671875 C1.71573624 14.19986864 1.71573624 14.19986864 3 18 C2.34 18.99 1.68 19.98 1 21 C-1.6015625 21.29296875 -1.6015625 21.29296875 -4.625 21.1875 C-6.12933594 21.14689453 -6.12933594 21.14689453 -7.6640625 21.10546875 C-8.43492187 21.07066406 -9.20578125 21.03585938 -10 21 C-10 20.34 -10 19.68 -10 19 C-8 18 -8 18 0 18 C0 12.06 0 6.12 0 0 Z " fill="#67A86B" transform="translate(326,181)"/>
<path d="M0 0 C1.32 0.66 2.64 1.32 4 2 C3.38144369 3.6274637 2.75492695 5.25190356 2.125 6.875 C1.77695313 7.77992188 1.42890625 8.68484375 1.0703125 9.6171875 C0 12 0 12 -2 14 C-5.0390625 14.1953125 -5.0390625 14.1953125 -8.625 14.125 C-9.81351562 14.10695312 -11.00203125 14.08890625 -12.2265625 14.0703125 C-13.14179687 14.04710937 -14.05703125 14.02390625 -15 14 C-15 13.67 -15 13.34 -15 13 C-11.04 13 -7.08 13 -3 13 C-3 12.34 -3 11.68 -3 11 C-2.34 11 -1.68 11 -1 11 C-1.20625 9.9275 -1.4125 8.855 -1.625 7.75 C-1.9876191 4.12380904 -1.98362069 2.91708924 0 0 Z " fill="#529057" transform="translate(121,188)"/>
<path d="M0 0 C0.66 0.33 1.32 0.66 2 1 C1.12008445 2.1581019 0.22025664 3.3010893 -0.6875 4.4375 C-1.43580078 5.39462891 -1.43580078 5.39462891 -2.19921875 6.37109375 C-5.51073636 9.36654461 -9.7907349 9.12398322 -14.08203125 9.09765625 C-15.01337891 9.09443359 -15.94472656 9.09121094 -16.90429688 9.08789062 C-17.86400391 9.07951172 -18.82371094 9.07113281 -19.8125 9.0625 C-21.28106445 9.05573242 -21.28106445 9.05573242 -22.77929688 9.04882812 C-25.18626111 9.03708684 -27.59309857 9.02066419 -30 9 C-30 8.67 -30 8.34 -30 8 C-22.41 7.67 -14.82 7.34 -7 7 C-6.34 5.68 -5.68 4.36 -5 3 C-2.375 2.25 -2.375 2.25 0 2 C0 1.34 0 0.68 0 0 Z " fill="#78B55C" transform="translate(266,46)"/>
<path d="M0 0 C0.66 0.33 1.32 0.66 2 1 C1.67 2.32 1.34 3.64 1 5 C1.66 4.67 2.32 4.34 3 4 C3.33 3.01 3.66 2.02 4 1 C5.65 1.33 7.3 1.66 9 2 C8.67 4.31 8.34 6.62 8 9 C7.34 8.01 6.68 7.02 6 6 C5.2575 6.515625 4.515 7.03125 3.75 7.5625 C1 9 1 9 -3 8 C-2.01 5.36 -1.02 2.72 0 0 Z " fill="#648A59" transform="translate(252,93)"/>
<path d="M0 0 C0.66 0.33 1.32 0.66 2 1 C0.71950156 4.31692698 -0.57624035 7.62768519 -1.875 10.9375 C-2.23980469 11.88302734 -2.60460937 12.82855469 -2.98046875 13.80273438 C-3.33496094 14.70185547 -3.68945312 15.60097656 -4.0546875 16.52734375 C-4.37937012 17.35999756 -4.70405273 18.19265137 -5.03857422 19.05053711 C-6 21 -6 21 -8 22 C-8.25 14.375 -8.25 14.375 -6 11 C-5.34 11 -4.68 11 -4 11 C-4 9.35 -4 7.7 -4 6 C-3.34 6 -2.68 6 -2 6 C-2 4.68 -2 3.36 -2 2 C-1.34 2 -0.68 2 0 2 C0 1.34 0 0.68 0 0 Z " fill="#6A9B66" transform="translate(204,164)"/>
<path d="M0 0 C0.89203125 0.00902344 1.7840625 0.01804688 2.703125 0.02734375 C3.37859375 0.03894531 4.0540625 0.05054688 4.75 0.0625 C5.08 0.7225 5.41 1.3825 5.75 2.0625 C4.68072266 2.10117188 4.68072266 2.10117188 3.58984375 2.140625 C-2.81622937 2.51998868 -7.03380706 3.25902598 -12.25 7.0625 C-14.01323505 9.18853185 -14.01323505 9.18853185 -15.25 11.0625 C-15.91 11.0625 -16.57 11.0625 -17.25 11.0625 C-17.25 9.7425 -17.25 8.4225 -17.25 7.0625 C-14.63369776 5.15330647 -12.32366722 4.08705574 -9.25 3.0625 C-9.25 2.4025 -9.25 1.7425 -9.25 1.0625 C-6.09493858 0.12630187 -3.28413498 -0.0432123 0 0 Z " fill="#6B8C60" transform="translate(242.25,151.9375)"/>
<path d="M0 0 C4.62 0 9.24 0 14 0 C14 0.99 14 1.98 14 3 C13.67 2.34 13.34 1.68 13 1 C11.3745692 1.14095064 9.74965949 1.28792087 8.125 1.4375 C7.22007812 1.51871094 6.31515625 1.59992188 5.3828125 1.68359375 C2.98889139 1.86989285 2.98889139 1.86989285 1 3 C0.20006976 4.98133725 0.20006976 4.98133725 -0.4375 7.3125 C-1.50286959 10.72603113 -2.54890342 13.31546565 -5 16 C-4.48643537 9.96561558 -2.60780809 5.4679847 0 0 Z " fill="#5F7654" transform="translate(127,140)"/>
<path d="M0 0 C0.66 0.33 1.32 0.66 2 1 C1.67 1.66 1.34 2.32 1 3 C8.04207705 2.2812193 8.04207705 2.2812193 15 1 C15 1.99 15 2.98 15 4 C14 5 14 5 10.18359375 5.09765625 C8.60153318 5.09098089 7.01948841 5.07901875 5.4375 5.0625 C4.63119141 5.05798828 3.82488281 5.05347656 2.99414062 5.04882812 C0.99606244 5.03700518 -1.00197783 5.01906914 -3 5 C-1.125 1.125 -1.125 1.125 0 0 Z " fill="#799E61" transform="translate(242,44)"/>
<path d="M0 0 C0.99 0 1.98 0 3 0 C5.4021604 4.8043208 5.61122229 9.73103895 6 15 C4 12 4 12 1 4 C-5.27 3.67 -11.54 3.34 -18 3 C-18 2.67 -18 2.34 -18 2 C-12.06 1.67 -6.12 1.34 0 1 C0 0.67 0 0.34 0 0 Z " fill="#4E734D" transform="translate(143,186)"/>
<path d="M0 0 C0.66 0 1.32 0 2 0 C7 11.36363636 7 11.36363636 7 17 C7.66 17 8.32 17 9 17 C9 17.66 9 18.32 9 19 C8.01 19 7.02 19 6 19 C4.99141578 16.58660204 3.99297327 14.16981325 3 11.75 C2.57074219 10.72712891 2.57074219 10.72712891 2.1328125 9.68359375 C0.70654506 6.18584265 0 3.83099811 0 0 Z " fill="#689866" transform="translate(160,161)"/>
<path d="M0 0 C0.99 0 1.98 0 3 0 C3.66 2.64 4.32 5.28 5 8 C4.34 8 3.68 8 3 8 C3 7.01 3 6.02 3 5 C2.01 5 1.02 5 0 5 C0 12.26 0 19.52 0 27 C-0.33 27 -0.66 27 -1 27 C-1.02886537 22.68751391 -1.04675255 18.37505238 -1.0625 14.0625 C-1.07087891 12.83080078 -1.07925781 11.59910156 -1.08789062 10.33007812 C-1.09111328 9.16025391 -1.09433594 7.99042969 -1.09765625 6.78515625 C-1.10289307 5.70113525 -1.10812988 4.61711426 -1.11352539 3.50024414 C-1 1 -1 1 0 0 Z " fill="#6CB265" transform="translate(347,162)"/>
<path d="M0 0 C0.66 0 1.32 0 2 0 C2.05404449 2.75026417 2.09369306 5.49946203 2.125 8.25 C2.15013672 9.41595703 2.15013672 9.41595703 2.17578125 10.60546875 C2.23662606 17.72431144 2.23662606 17.72431144 0 21 C-0.66 21 -1.32 21 -2 21 C-2 19.35 -2 17.7 -2 16 C-1.34 16 -0.68 16 0 16 C0 10.72 0 5.44 0 0 Z " fill="#699D66" transform="translate(271,163)"/>
<path d="M0 0 C0.33 0.66 0.66 1.32 1 2 C1.66 2.33 2.32 2.66 3 3 C0.56592995 3.86524753 -1.87143184 4.71742865 -4.3125 5.5625 C-5.00279297 5.80935547 -5.69308594 6.05621094 -6.40429688 6.31054688 C-11.66015625 8.11328125 -11.66015625 8.11328125 -15 7 C-13.44333045 6.0115904 -11.87937574 5.03464918 -10.3125 4.0625 C-9.44238281 3.51722656 -8.57226562 2.97195312 -7.67578125 2.41015625 C-5.05375311 1.02832828 -2.91689925 0.41519827 0 0 Z " fill="#59844C" transform="translate(234,140)"/>
<path d="M0 0 C7.59 0 15.18 0 23 0 C23 4.62 23 9.24 23 14 C22.67 14 22.34 14 22 14 C21.67 10.37 21.34 6.74 21 3 C14.07 2.34 7.14 1.68 0 1 C0 0.67 0 0.34 0 0 Z " fill="#7AB259" transform="translate(245,17)"/>
<path d="M0 0 C0.33 0 0.66 0 1 0 C1.33 5.61 1.66 11.22 2 17 C3.98 17 5.96 17 8 17 C9.73956658 15.26043342 9.37190386 12.8063378 9.5625 10.4375 C9.64628906 9.42558594 9.73007812 8.41367188 9.81640625 7.37109375 C9.87699219 6.58863281 9.93757813 5.80617187 10 5 C10.33 5 10.66 5 11 5 C11.02685938 7.14576637 11.04633088 9.29162645 11.0625 11.4375 C11.07410156 12.63246094 11.08570313 13.82742187 11.09765625 15.05859375 C11 18 11 18 10 19 C8.50261876 19.0979057 7.00057108 19.12974864 5.5 19.125 C4.6853125 19.12757813 3.870625 19.13015625 3.03125 19.1328125 C1 19 1 19 0 18 C-0.08631874 16.65732587 -0.10706473 15.31025678 -0.09765625 13.96484375 C-0.09443359 13.15595703 -0.09121094 12.34707031 -0.08789062 11.51367188 C-0.07951172 10.66353516 -0.07113281 9.81339844 -0.0625 8.9375 C-0.05798828 8.08349609 -0.05347656 7.22949219 -0.04882812 6.34960938 C-0.03700373 4.23304337 -0.01906769 2.11651315 0 0 Z " fill="#4FC151" transform="translate(279,180)"/>
<path d="M0 0 C6.93 0 13.86 0 21 0 C21.33 0.66 21.66 1.32 22 2 C11.605 2.495 11.605 2.495 1 3 C0.67 2.01 0.34 1.02 0 0 Z " fill="#7CCA79" transform="translate(122,186)"/>
<path d="M0 0 C1.98 5.28 3.96 10.56 6 16 C5.34 16 4.68 16 4 16 C1 10.25 1 10.25 1 8 C0.34 8 -0.32 8 -1 8 C-1 6.02 -1 4.04 -1 2 C-4.96 2 -8.92 2 -13 2 C-13 1.67 -13 1.34 -13 1 C-11.20843648 0.83222817 -9.4167455 0.66581706 -7.625 0.5 C-6.62726563 0.4071875 -5.62953125 0.314375 -4.6015625 0.21875 C-2 0 -2 0 0 0 Z " fill="#779E67" transform="translate(168,140)"/>
<path d="M0 0 C0.66 0.33 1.32 0.66 2 1 C1.67 2.65 1.34 4.3 1 6 C1.77085937 6.04898438 2.54171875 6.09796875 3.3359375 6.1484375 C4.33882812 6.22320312 5.34171875 6.29796875 6.375 6.375 C7.87160156 6.47941406 7.87160156 6.47941406 9.3984375 6.5859375 C12 7 12 7 14 9 C9.05 9 4.1 9 -1 9 C-1.33 6.69 -1.66 4.38 -2 2 C-1.34 2 -0.68 2 0 2 C0 1.34 0 0.68 0 0 Z " fill="#74BE77" transform="translate(175,192)"/>
<path d="M0 0 C6.93 0.495 6.93 0.495 14 1 C14 1.33 14 1.66 14 2 C10.04 2 6.08 2 2 2 C2.02320313 2.91523437 2.04640625 3.83046875 2.0703125 4.7734375 C2.08835937 5.96195312 2.10640625 7.15046875 2.125 8.375 C2.14820313 9.55835937 2.17140625 10.74171875 2.1953125 11.9609375 C2 15 2 15 0 17 C0 11.39 0 5.78 0 0 Z " fill="#627F5C" transform="translate(268,88)"/>
<path d="M0 0 C-1.32 2.31 -2.64 4.62 -4 7 C-4.66 7 -5.32 7 -6 7 C-5.67 9.64 -5.34 12.28 -5 15 C-5.66 15 -6.32 15 -7 15 C-7.02693575 12.87506859 -7.04636628 10.75004088 -7.0625 8.625 C-7.07410156 7.44164062 -7.08570313 6.25828125 -7.09765625 5.0390625 C-7 2 -7 2 -6 0 C-3 -1 -3 -1 0 0 Z " fill="#82B069" transform="translate(243,27)"/>
<path d="M0 0 C2.56904115 0.44040705 4.80907824 0.91272148 7.1875 2 C10.71135774 3.25292719 14.11289578 3.45506603 17.8125 3.625 C18.85180664 3.68300781 18.85180664 3.68300781 19.91210938 3.7421875 C21.60767015 3.83573568 23.30379712 3.91892364 25 4 C25 4.33 25 4.66 25 5 C21.95809137 5.05421223 18.91716001 5.09377548 15.875 5.125 C15.0190625 5.14175781 14.163125 5.15851563 13.28125 5.17578125 C8.43412707 5.21306681 4.55292095 4.89580643 0 3 C0 2.01 0 1.02 0 0 Z " fill="#4A734D" transform="translate(226,197)"/>
<path d="M0 0 C-1.40214934 1.36919284 -2.82228473 2.71998709 -4.25 4.0625 C-5.43335938 5.19365234 -5.43335938 5.19365234 -6.640625 6.34765625 C-9 8 -9 8 -11.296875 7.74609375 C-11.85890625 7.49988281 -12.4209375 7.25367188 -13 7 C-11.30121834 3.30265167 -10.15614325 2.08364817 -6.5 0.125 C-3 -1 -3 -1 0 0 Z " fill="#68A257" transform="translate(227,147)"/>
<path d="M0 0 C0.33 0.99 0.66 1.98 1 3 C0.67 3.66 0.34 4.32 0 5 C-0.22467831 6.53668865 -0.40796805 8.07968054 -0.5625 9.625 C-0.64628906 10.44226563 -0.73007812 11.25953125 -0.81640625 12.1015625 C-0.87699219 12.72804688 -0.93757813 13.35453125 -1 14 C0.32 14 1.64 14 3 14 C3.33 13.34 3.66 12.68 4 12 C4.66 12 5.32 12 6 12 C5.67 13.65 5.34 15.3 5 17 C2.69 16.34 0.38 15.68 -2 15 C-2.33 10.71 -2.66 6.42 -3 2 C-2.01 1.34 -1.02 0.68 0 0 Z " fill="#619154" transform="translate(263,58)"/>
<path d="M0 0 C-0.75 5.75 -0.75 5.75 -3 8 C-3.71927295 10.31765729 -4.3909893 12.65095874 -5 15 C-6.28019851 11.15940447 -5.8970553 7.876839 -5 4 C-2.7 0 -2.7 0 0 0 Z " fill="#5EA55E" transform="translate(116,175)"/>
<path d="M0 0 C-0.55550695 3.59905908 -1.74887248 4.99909799 -4.5625 7.25 C-5.20316406 7.77078125 -5.84382812 8.2915625 -6.50390625 8.828125 C-6.99761719 9.21484375 -7.49132812 9.6015625 -8 10 C-8.609375 8.16796875 -8.609375 8.16796875 -9 6 C-6.54554586 2.23065971 -4.74506825 0 0 0 Z " fill="#709C5B" transform="translate(213,56)"/>
<path d="M0 0 C0.99 0 1.98 0 3 0 C4.38123963 1.96722008 5.71488126 3.96868328 7 6 C7.66 6.33 8.32 6.66 9 7 C8.67 8.32 8.34 9.64 8 11 C4.50892621 9.83630874 4.14777237 9.11026462 2.3125 6.0625 C1.87550781 5.35222656 1.43851562 4.64195312 0.98828125 3.91015625 C0 2 0 2 0 0 Z " fill="#6EA968" transform="translate(296,172)"/>
<path d="M0 0 C0.763125 0.309375 1.52625 0.61875 2.3125 0.9375 C7.17314841 2.33802581 11.96858173 2.65979734 17 3 C16.01 4.485 16.01 4.485 15 6 C8.98366062 6.84228751 5.04838912 4.93724458 0 2 C0 1.34 0 0.68 0 0 Z " fill="#51C354" transform="translate(231,187)"/>
<path d="M0 0 C1.4583982 0.00399197 2.91679743 0.01875035 4.375 0.04296875 C5.11234375 0.04361328 5.8496875 0.04425781 6.609375 0.04492188 C12.09398191 0.08995971 12.09398191 0.08995971 14.375 1.23046875 C14.375 2.22046875 14.375 3.21046875 14.375 4.23046875 C11.735 4.23046875 9.095 4.23046875 6.375 4.23046875 C7.035 3.57046875 7.695 2.91046875 8.375 2.23046875 C3.755 2.23046875 -0.865 2.23046875 -5.625 2.23046875 C-3.625 0.23046875 -3.625 0.23046875 0 0 Z " fill="#589B48" transform="translate(238.625,150.76953125)"/>
<path d="M0 0 C4 1 4 1 5.89746094 1.52905273 C9.31236881 2.2939572 12.76898277 2.10247635 16.25 2.0625 C17.36761719 2.05573242 17.36761719 2.05573242 18.5078125 2.04882812 C20.3385764 2.03709246 22.16929873 2.0191585 24 2 C23.67 2.66 23.34 3.32 23 4 C20.27056463 4.05416741 17.54221436 4.09375225 14.8125 4.125 C13.65911133 4.15013672 13.65911133 4.15013672 12.48242188 4.17578125 C8.23366116 4.2122513 4.81598599 4.11916892 1 2 C0.67 1.34 0.34 0.68 0 0 Z " fill="#63C269" transform="translate(230,197)"/>
<path d="M0 0 C0.99 0.33 1.98 0.66 3 1 C2.360625 1.598125 1.72125 2.19625 1.0625 2.8125 C-2.32829524 6.40879798 -2.23238441 9.92440363 -2.5625 14.6875 C-2.64628906 15.86699219 -2.73007813 17.04648438 -2.81640625 18.26171875 C-2.87699219 19.16535156 -2.93757812 20.06898437 -3 21 C-3.33 21 -3.66 21 -4 21 C-4 14.73 -4 8.46 -4 2 C-2.68 1.34 -1.36 0.68 0 0 Z " fill="#647E5A" transform="translate(241,90)"/>
<path d="M0 0 C0.33 0 0.66 0 1 0 C1.33 5.61 1.66 11.22 2 17 C0.02 17.99 0.02 17.99 -2 19 C-2.66 18.34 -3.32 17.68 -4 17 C-3.51917969 16.30519531 -3.03835937 15.61039063 -2.54296875 14.89453125 C-0.8061222 11.63629506 -0.51385179 9.35210254 -0.3125 5.6875 C-0.21388672 4.08455078 -0.21388672 4.08455078 -0.11328125 2.44921875 C-0.05720703 1.23685547 -0.05720703 1.23685547 0 0 Z " fill="#5E7B4E" transform="translate(259,27)"/>
<path d="M0 0 C0.66 0.33 1.32 0.66 2 1 C-0.56428003 5.17882671 -3.01930733 8.12505529 -7 11 C-7.66 10.01 -8.32 9.02 -9 8 C-7.68 7.67 -6.36 7.34 -5 7 C-5 5.68 -5 4.36 -5 3 C-4.360625 2.87625 -3.72125 2.7525 -3.0625 2.625 C-2.0415625 2.315625 -2.0415625 2.315625 -1 2 C-0.67 1.34 -0.34 0.68 0 0 Z " fill="#678256" transform="translate(235,76)"/>
<path d="M0 0 C0.66 0 1.32 0 2 0 C2 6.27 2 12.54 2 19 C1.67 19 1.34 19 1 19 C0.63923999 16.02149379 0.28609584 13.04243216 -0.0625 10.0625 C-0.16626953 9.21236328 -0.27003906 8.36222656 -0.37695312 7.48632812 C-0.47041016 6.67744141 -0.56386719 5.86855469 -0.66015625 5.03515625 C-0.74918213 4.2862915 -0.83820801 3.53742676 -0.92993164 2.76586914 C-0.9530542 2.18313232 -0.97617676 1.60039551 -1 1 C-0.67 0.67 -0.34 0.34 0 0 Z " fill="#85B769" transform="translate(260,24)"/>
<path d="M0 0 C2.13262124 3.19893186 2.59021548 5.22998243 3 9 C2 10 2 10 -1.16015625 10.09765625 C-3.09181641 10.08025391 -3.09181641 10.08025391 -5.0625 10.0625 C-6.35285156 10.05347656 -7.64320313 10.04445312 -8.97265625 10.03515625 C-9.97167969 10.02355469 -10.97070312 10.01195312 -12 10 C-12 9.67 -12 9.34 -12 9 C-6.555 8.505 -6.555 8.505 -1 8 C-0.67 5.36 -0.34 2.72 0 0 Z " fill="#547A57" transform="translate(162,192)"/>
<path d="M0 0 C1.98 0.495 1.98 0.495 4 1 C4 1.66 4 2.32 4 3 C5.65 2.67 7.3 2.34 9 2 C9.33 2.66 9.66 3.32 10 4 C7.36095629 5.41377341 4.92879371 6.37240135 2 7 C0.4375 4.625 0.4375 4.625 -1 2 C-0.67 1.34 -0.34 0.68 0 0 Z " fill="#53A659" transform="translate(312,194)"/>
<path d="M0 0 C0 0.66 0 1.32 0 2 C-0.66 2 -1.32 2 -2 2 C-2 2.66 -2 3.32 -2 4 C-5.96 4 -9.92 4 -14 4 C-12.68 3.67 -11.36 3.34 -10 3 C-10 2.34 -10 1.68 -10 1 C-2.25 0 -2.25 0 0 0 Z " fill="#73CE7D" transform="translate(120,197)"/>
<path d="M0 0 C9.08595492 -0.62422591 9.08595492 -0.62422591 12.5625 1.75 C13.93759565 3.90232362 14.6406828 5.4847796 15 8 C14.01 8.495 14.01 8.495 13 9 C13 8.34 13 7.68 13 7 C12.34 7 11.68 7 11 7 C11 6.01 11 5.02 11 4 C10.34 4 9.68 4 9 4 C9 3.01 9 2.02 9 1 C6.03 1 3.06 1 0 1 C0 0.67 0 0.34 0 0 Z " fill="#679956" transform="translate(130,141)"/>
<path d="M0 0 C2.475 0.99 2.475 0.99 5 2 C3.35 3.98 1.7 5.96 0 8 C-0.66 7.01 -1.32 6.02 -2 5 C-2.66 4.67 -3.32 4.34 -4 4 C-2.68 2.68 -1.36 1.36 0 0 Z " fill="#588B48" transform="translate(235,83)"/>
<path d="M0 0 C0.33 0 0.66 0 1 0 C1.33 4.29 1.66 8.58 2 13 C1.34 13 0.68 13 0 13 C-0.66 14.32 -1.32 15.64 -2 17 C-3 14 -3 14 -2.125 11.875 C-0.60146821 7.98152986 -0.342989 4.14294608 0 0 Z " fill="#79AD5C" transform="translate(235,63)"/>
<path d="M0 0 C0.33 0.99 0.66 1.98 1 3 C0.67 3.66 0.34 4.32 0 5 C-5.61 5 -11.22 5 -17 5 C-17 4.67 -17 4.34 -17 4 C-16.27554688 3.96261719 -15.55109375 3.92523438 -14.8046875 3.88671875 C-9.13808848 3.50139002 -4.85096382 3.015464 0 0 Z " fill="#59784F" transform="translate(255,107)"/>
<path d="M0 0 C3.63 0 7.26 0 11 0 C11 5 11 5 9 8 C9.66 8.33 10.32 8.66 11 9 C10.01 9 9.02 9 8 9 C7.61866701 7.0085944 7.28674418 5.00720923 7 3 C7.33 2.67 7.66 2.34 8 2 C5.36 1.67 2.72 1.34 0 1 C0 0.67 0 0.34 0 0 Z " fill="#53734A" transform="translate(245,89)"/>
<path d="M0 0 C1.18851563 0.10183594 2.37703125 0.20367187 3.6015625 0.30859375 C4.51679688 0.39238281 5.43203125 0.47617188 6.375 0.5625 C6.375 0.8925 6.375 1.2225 6.375 1.5625 C5.39917969 1.69527344 4.42335937 1.82804687 3.41796875 1.96484375 C1.50951172 2.22974609 1.50951172 2.22974609 -0.4375 2.5 C-2.33435547 2.76103516 -2.33435547 2.76103516 -4.26953125 3.02734375 C-7.60821703 3.46642455 -7.60821703 3.46642455 -10.625 4.5625 C-8.09584379 -1.03777447 -5.89585339 -0.52022236 0 0 Z " fill="#6A935E" transform="translate(246.625,80.4375)"/>
<path d="M0 0 C0.33 0 0.66 0 1 0 C0.67 2.31 0.34 4.62 0 7 C4.82194643 6.67495741 4.82194643 6.67495741 8.9375 4.4375 C9.288125 3.963125 9.63875 3.48875 10 3 C9.67 4.65 9.34 6.3 9 8 C5.7 8.33 2.4 8.66 -1 9 C-0.67 6.03 -0.34 3.06 0 0 Z " fill="#4AC951" transform="translate(109,190)"/>
<path d="M0 0 C0.66 0.33 1.32 0.66 2 1 C2 1.66 2 2.32 2 3 C2.66 3 3.32 3 4 3 C4.66 4.65 5.32 6.3 6 8 C5.01 8.33 4.02 8.66 3 9 C0.525 5.04 0.525 5.04 -2 1 C-1.34 0.67 -0.68 0.34 0 0 Z " fill="#5F8F5C" transform="translate(352,169)"/>
<path d="M0 0 C0.99 0 1.98 0 3 0 C2.58578031 4.83256305 0.53586014 6.82679218 -3 10 C-3.66 9.67 -4.32 9.34 -5 9 C-4.54625 8.62875 -4.0925 8.2575 -3.625 7.875 C-1.52970606 5.45735315 -0.87986715 3.04569398 0 0 Z " fill="#79B27B" transform="translate(266,185)"/>
<path d="M0 0 C0.99 0 1.98 0 3 0 C4.60355101 3.50776784 5.22036864 6.14354879 5 10 C1.94597912 8.47298956 1.34130519 6.04842088 0 3 C0 2.01 0 1.02 0 0 Z " fill="#589354" transform="translate(137,167)"/>
<path d="M0 0 C0.99 0.33 1.98 0.66 3 1 C3 1.99 3 2.98 3 4 C3.66 4 4.32 4 5 4 C5 4.99 5 5.98 5 7 C4.01 7.33 3.02 7.66 2 8 C0.4375 6.25 0.4375 6.25 -1 4 C-0.6875 1.75 -0.6875 1.75 0 0 Z " fill="#5A9153" transform="translate(293,165)"/>
<path d="M0 0 C0.99 0.33 1.98 0.66 3 1 C2.1875 4.4375 2.1875 4.4375 1 8 C0.01 8.33 -0.98 8.66 -2 9 C-2.33 9.66 -2.66 10.32 -3 11 C-2.67 9.02 -2.34 7.04 -2 5 C-1.34 5 -0.68 5 0 5 C0 3.35 0 1.7 0 0 Z " fill="#639C59" transform="translate(206,155)"/>
<path d="M0 0 C1.96565364 3.51009579 3.06019273 7.09618518 4 11 C3.67 11.66 3.34 12.32 3 13 C0.25002755 9.05438736 -0.631726 5.78756196 -1 1 C-0.67 0.67 -0.34 0.34 0 0 Z " fill="#68905E" transform="translate(156,147)"/>
<path d="M0 0 C1.65322266 0.01740234 1.65322266 0.01740234 3.33984375 0.03515625 C4.99693359 0.04869141 4.99693359 0.04869141 6.6875 0.0625 C7.54214844 0.07410156 8.39679688 0.08570313 9.27734375 0.09765625 C9.27734375 0.42765625 9.27734375 0.75765625 9.27734375 1.09765625 C8.66246094 1.20722656 8.04757813 1.31679687 7.4140625 1.4296875 C6.60582031 1.58824219 5.79757813 1.74679688 4.96484375 1.91015625 C3.76408203 2.13638672 3.76408203 2.13638672 2.5390625 2.3671875 C0.04288788 3.17337861 -1.04687731 4.11817627 -2.72265625 6.09765625 C-3.10484392 4.44150968 -3.43660727 2.77308601 -3.72265625 1.09765625 C-2.72265625 0.09765625 -2.72265625 0.09765625 0 0 Z " fill="#59A041" transform="translate(157.72265625,141.90234375)"/>
<path d="M0 0 C0.185625 0.9590625 0.185625 0.9590625 0.375 1.9375 C0.684375 2.9584375 0.684375 2.9584375 1 4 C1.66 4.33 2.32 4.66 3 5 C1.02 9.455 1.02 9.455 -1 14 C-1.33 14 -1.66 14 -2 14 C-1.67 11.03 -1.34 8.06 -1 5 C-1.66 4.67 -2.32 4.34 -3 4 C-2.01 2.68 -1.02 1.36 0 0 Z " fill="#5B8C4D" transform="translate(264,54)"/>
<path d="M0 0 C0.33 0.66 0.66 1.32 1 2 C3.02463255 2.65213292 3.02463255 2.65213292 5 3 C5.625 5.375 5.625 5.375 6 8 C5.34 8.66 4.68 9.32 4 10 C0 3.375 0 3.375 0 0 Z " fill="#528351" transform="translate(211,181)"/>
<path d="M0 0 C0.25532751 3.06393013 0.21861333 4.63233212 -1.375 7.3125 C-2.179375 8.1478125 -2.179375 8.1478125 -3 9 C-3.66 9 -4.32 9 -5 9 C-5.625 7.125 -5.625 7.125 -6 5 C-5.34 4.34 -4.68 3.68 -4 3 C-3.2265625 2.195625 -3.2265625 2.195625 -2.4375 1.375 C-1 0 -1 0 0 0 Z " fill="#589A48" transform="translate(126,151)"/>
<path d="M0 0 C1 2 1 2 0.44140625 3.9453125 C0.15136719 4.66460937 -0.13867188 5.38390625 -0.4375 6.125 C-0.72496094 6.84945312 -1.01242188 7.57390625 -1.30859375 8.3203125 C-1.53675781 8.87460938 -1.76492187 9.42890625 -2 10 C-2.66 9.34 -3.32 8.68 -4 8 C-3.8125 5 -3.8125 5 -3 2 C-2.01 1.34 -1.02 0.68 0 0 Z " fill="#769E6B" transform="translate(233,87)"/>
<path d="M0 0 C-0.33 1.32 -0.66 2.64 -1 4 C-3.875 4.1875 -3.875 4.1875 -7 4 C-7.66 3.01 -8.32 2.02 -9 1 C-2.25 -1.125 -2.25 -1.125 0 0 Z " fill="#7BAE61" transform="translate(227,84)"/>
<path d="M0 0 C-0.33 1.32 -0.66 2.64 -1 4 C-2.65 4.33 -4.3 4.66 -6 5 C-6.33 4.01 -6.66 3.02 -7 2 C-4.35261084 0.5393715 -3.10551666 0 0 0 Z " fill="#7F8B71" transform="translate(256,29)"/>
<path d="M0 0 C4.62 0 9.24 0 14 0 C14 0.33 14 0.66 14 1 C12.44033408 1.36644578 10.87707349 1.71760862 9.3125 2.0625 C8.44238281 2.25972656 7.57226562 2.45695312 6.67578125 2.66015625 C3.83998724 3.02032279 1.75210018 2.70909969 -1 2 C-0.67 1.34 -0.34 0.68 0 0 Z " fill="#7CB363" transform="translate(245,23)"/>
<path d="M0 0 C1.32 0.99 2.64 1.98 4 3 C3.67 4.98 3.34 6.96 3 9 C0.9375 7.3125 0.9375 7.3125 -1 5 C-0.75 2.25 -0.75 2.25 0 0 Z " fill="#559F59" transform="translate(368,191)"/>
<path d="M0 0 C1.12377697 3.30435084 0.89554742 5.0506862 -0.4375 8.25 C-0.72496094 8.95640625 -1.01242188 9.6628125 -1.30859375 10.390625 C-1.53675781 10.92171875 -1.76492187 11.4528125 -2 12 C-2.66 12 -3.32 12 -4 12 C-3.45660208 7.43545749 -2.20536179 4.0271824 0 0 Z " fill="#6F9267" transform="translate(192,157)"/>
<path d="M0 0 C0.625 1.8125 0.625 1.8125 1 4 C0.01 5.485 0.01 5.485 -1 7 C-1.38499891 8.65549531 -1.72793135 10.3222433 -2 12 C-2.66 12 -3.32 12 -4 12 C-3.28571429 3.42857143 -3.28571429 3.42857143 0 0 Z " fill="#6F8D67" transform="translate(214,154)"/>
<path d="M0 0 C0.66 0 1.32 0 2 0 C0.92289822 4.30840713 -0.03947516 7.63576723 -3 11 C-2.53199289 6.94393835 -2.12046792 3.53411321 0 0 Z " fill="#6D9162" transform="translate(125,145)"/>
<path d="M0 0 C0.33 0 0.66 0 1 0 C1.125 4.75 1.125 4.75 0 7 C0.66 7.66 1.32 8.32 2 9 C1.01 9.33 0.02 9.66 -1 10 C-1.66 9.01 -2.32 8.02 -3 7 C-3.66 6.67 -4.32 6.34 -5 6 C-3.35830472 3.97945196 -1.69088222 1.97956942 0 0 Z " fill="#4D6745" transform="translate(250,94)"/>
<path d="M0 0 C2.625 0.375 2.625 0.375 5 1 C0.25 5.875 0.25 5.875 -2 7 C-2.125 4.625 -2.125 4.625 -2 2 C-1.34 1.34 -0.68 0.68 0 0 Z " fill="#739E62" transform="translate(267,51)"/>
<path d="M0 0 C3.25666272 0.56149357 4.95623323 1.37229986 7 4 C7.6875 6.1875 7.6875 6.1875 8 8 C4.63820226 6.55922954 2.40843732 4.75249979 0 2 C0 1.34 0 0.68 0 0 Z " fill="#6D8C67" transform="translate(249,154)"/>
<path d="M0 0 C3.53600465 1.91135386 5.78972846 3.62642766 8 7 C7.01 7 6.02 7 5 7 C4.67 6.01 4.34 5.02 4 4 C1.03 3.505 1.03 3.505 -2 3 C-1.34 2.67 -0.68 2.34 0 2 C0 1.34 0 0.68 0 0 Z " fill="#5F8956" transform="translate(258,144)"/>
<path d="M0 0 C1.50433594 0.01353516 1.50433594 0.01353516 3.0390625 0.02734375 C3.80992187 0.03894531 4.58078125 0.05054688 5.375 0.0625 C5.375 0.3925 5.375 0.7225 5.375 1.0625 C2.375 2.0625 -0.625 3.0625 -3.625 4.0625 C-5.8125 2.625 -5.8125 2.625 -7.625 1.0625 C-4.98041621 -0.25979189 -2.94738699 -0.03427194 0 0 Z " fill="#629253" transform="translate(275.625,48.9375)"/>
<path d="M0 0 C0.33 0 0.66 0 1 0 C1.125 5.75 1.125 5.75 0 8 C-1.32 7.34 -2.64 6.68 -4 6 C-2.69593116 3.98079663 -1.36176581 1.98075027 0 0 Z " fill="#638B5A" transform="translate(292,68)"/>
<path d="M0 0 C0.99 0 1.98 0 3 0 C3.33 1.98 3.66 3.96 4 6 C2.02 6.99 2.02 6.99 0 8 C0.33 6.35 0.66 4.7 1 3 C0.34 3 -0.32 3 -1 3 C-0.67 2.01 -0.34 1.02 0 0 Z " fill="#8CB375" transform="translate(244,35)"/>
<path d="M0 0 C0 0.66 0 1.32 0 2 C-1.65 2.33 -3.3 2.66 -5 3 C-5.33 3.99 -5.66 4.98 -6 6 C-6.66 6 -7.32 6 -8 6 C-8 4.68 -8 3.36 -8 2 C-5.09399739 0.74335022 -3.20395416 0 0 0 Z " fill="#81A16C" transform="translate(245,16)"/>
<path d="M0 0 C-0.39803561 2.88575819 -0.79009069 3.82189513 -3.0625 5.75 C-3.701875 6.1625 -4.34125 6.575 -5 7 C-5 3 -5 3 -3.625 1.25 C-2 0 -2 0 0 0 Z " fill="#76BB77" transform="translate(256,182)"/>
<path d="M0 0 C0.99 0 1.98 0 3 0 C2.67 1.98 2.34 3.96 2 6 C1.01 6.33 0.02 6.66 -1 7 C-0.67 4.69 -0.34 2.38 0 0 Z " fill="#618E52" transform="translate(196,145)"/>
<path d="M0 0 C0.99 0.33 1.98 0.66 3 1 C3 2.32 3 3.64 3 5 C2.34 5 1.68 5 1 5 C0.67 5.66 0.34 6.32 0 7 C-0.99 7.495 -0.99 7.495 -2 8 C-1.125 2.25 -1.125 2.25 0 0 Z " fill="#5F824D" transform="translate(230,25)"/>
<path d="M0 0 C0 0.66 0 1.32 0 2 C-4.35294118 6 -4.35294118 6 -8 6 C-6.98565881 3.46414701 -6.34981128 2.21863205 -4 0.75 C-2 0 -2 0 0 0 Z " fill="#5CA949" transform="translate(233,153)"/>
<path d="M0 0 C0 3.13751221 -0.35179805 4.39757586 -2 7 C-2.99 7.33 -3.98 7.66 -5 8 C-4.45773019 4.20411134 -2.79872437 2.52788007 0 0 Z " fill="#829C6E" transform="translate(204,51)"/>
<path d="M0 0 C-2.93828597 2.50298434 -5.17902761 3.46930939 -9 4 C-9 3.01 -9 2.02 -9 1 C-3.375 -1.125 -3.375 -1.125 0 0 Z " fill="#839D6E" transform="translate(215,48)"/>
<path d="M0 0 C0.185625 0.9590625 0.185625 0.9590625 0.375 1.9375 C0.684375 2.9584375 0.684375 2.9584375 1 4 C1.66 4.33 2.32 4.66 3 5 C1.02 5.33 -0.96 5.66 -3 6 C-3 4.68 -3 3.36 -3 2 C-2.01 1.34 -1.02 0.68 0 0 Z " fill="#569D5C" transform="translate(107,195)"/>
<path d="M0 0 C0.93065133 2.60582371 1.14917407 3.64198224 0.0625 6.25 C-0.4634375 7.11625 -0.4634375 7.11625 -1 8 C-1.99 7.67 -2.98 7.34 -4 7 C-3.67 5.35 -3.34 3.7 -3 2 C-2.01 2.33 -1.02 2.66 0 3 C0 2.01 0 1.02 0 0 Z " fill="#4F924A" transform="translate(190,166)"/>
<path d="M0 0 C0.66 0 1.32 0 2 0 C3.25 6.625 3.25 6.625 1 10 C-1.125 3.375 -1.125 3.375 0 0 Z " fill="#588751" transform="translate(256,159)"/>
<path d="M0 0 C0.66 0.33 1.32 0.66 2 1 C0.38405168 3.04119788 -1.2856382 5.04072937 -3 7 C-3.66 7 -4.32 7 -5 7 C-5 5.68 -5 4.36 -5 3 C-2.625 1.1875 -2.625 1.1875 0 0 Z " fill="#79A273" transform="translate(230,156)"/>
<path d="M0 0 C2.64 0 5.28 0 8 0 C8.66 1.32 9.32 2.64 10 4 C9.34 4.66 8.68 5.32 8 6 C7.67 4.68 7.34 3.36 7 2 C4.69 1.67 2.38 1.34 0 1 C0 0.67 0 0.34 0 0 Z " fill="#5E914C" transform="translate(284,142)"/>
<path d="M0 0 C2.6875 0.3125 2.6875 0.3125 5 1 C3.8125 2.5625 3.8125 2.5625 2 4 C-0.6875 3.6875 -0.6875 3.6875 -3 3 C-1.8125 1.4375 -1.8125 1.4375 0 0 Z " fill="#57794D" transform="translate(256,116)"/>
<path d="M0 0 C1.98 0.99 1.98 0.99 4 2 C3.01 3.98 2.02 5.96 1 8 C0.67 8 0.34 8 0 8 C0 5.36 0 2.72 0 0 Z " fill="#77AF76" transform="translate(196,178)"/>
<path d="M0 0 C2.9375 0.8125 2.9375 0.8125 6 2 C6.33 2.99 6.66 3.98 7 5 C6.01 5 5.02 5 4 5 C4 4.34 4 3.68 4 3 C2.68 3 1.36 3 0 3 C0 2.01 0 1.02 0 0 Z " fill="#779866" transform="translate(251,141)"/>
<path d="M0 0 C2.64 0 5.28 0 8 0 C8.33 0.99 8.66 1.98 9 3 C8.01 3 7.02 3 6 3 C5.67 3.66 5.34 4.32 5 5 C4.34 4.01 3.68 3.02 3 2 C2.01 1.34 1.02 0.68 0 0 Z " fill="#5A9546" transform="translate(341,142)"/>
<path d="M0 0 C1.2077558 3.62326739 0.54311128 4.64146369 -1 8 C-1.66 7.34 -2.32 6.68 -3 6 C-2.75 3.4375 -2.75 3.4375 -2 1 C-1.34 0.67 -0.68 0.34 0 0 Z " fill="#6E8E61" transform="translate(263,58)"/>
<path d="M0 0 C0.66 0.33 1.32 0.66 2 1 C0.02 3.31 -1.96 5.62 -4 8 C-4.33 7.01 -4.66 6.02 -5 5 C-3.625 3.5 -3.625 3.5 -2 2 C-1.34 2 -0.68 2 0 2 C0 1.34 0 0.68 0 0 Z " fill="#637758" transform="translate(266,46)"/>
<path d="M0 0 C0.33 0 0.66 0 1 0 C1 1.98 1 3.96 1 6 C-0.98 6 -2.96 6 -5 6 C-3.35830472 3.97945196 -1.69088222 1.97956942 0 0 Z " fill="#50C559" transform="translate(190,193)"/>
<path d="M0 0 C0.99 0.33 1.98 0.66 3 1 C3.33 2.65 3.66 4.3 4 6 C3.01 6.495 3.01 6.495 2 7 C2 6.01 2 5.02 2 4 C1.34 4 0.68 4 0 4 C0 2.68 0 1.36 0 0 Z " fill="#5C9D56" transform="translate(151,169)"/>
<path d="M0 0 C0.33 0 0.66 0 1 0 C1 2.64 1 5.28 1 8 C0.01 8.33 -0.98 8.66 -2 9 C-1.41196203 5.97580475 -0.77321882 2.98241547 0 0 Z " fill="#8EB17E" transform="translate(228,67)"/>
</svg>
