<svg width="847" height="443" viewBox="0 0 847 443" fill="none" xmlns="http://www.w3.org/2000/svg">
<g clip-path="url(#clip0_1907_4)">
<path d="M0 151V438.721H645.208C624.589 443.017 844.818 515.906 861.948 438.721C865.27 423.75 860.952 403.135 845.756 375.279C724.787 303.849 578.189 257.395 349.066 223.928C72.8923 183.588 88.558 151 0 151Z" fill="url(#paint0_linear_1907_4)" fill-opacity="0.1"/>
<rect x="856" y="438" width="5.00004" height="856" transform="rotate(90 856 438)" fill="#FFC43B"/>
<path d="M141.43 90.48C139.39 90.48 137.6 90.04 136.06 89.16C134.54 88.28 133.36 87 132.52 85.32C131.7 83.64 131.29 81.65 131.29 79.35C131.29 77.19 131.73 75.29 132.61 73.65C133.51 71.99 134.74 70.72 136.3 69.84C137.86 68.94 139.61 68.49 141.55 68.49C143.23 68.49 144.73 68.81 146.05 69.45C147.39 70.07 148.46 70.96 149.26 72.12C150.08 73.26 150.56 74.58 150.7 76.08H147.16C146.94 74.6 146.34 73.44 145.36 72.6C144.38 71.74 143.09 71.31 141.49 71.31C140.17 71.31 139 71.64 137.98 72.3C136.96 72.94 136.16 73.87 135.58 75.09C135.02 76.29 134.74 77.71 134.74 79.35C134.74 81.03 135.02 82.5 135.58 83.76C136.16 85 136.96 85.96 137.98 86.64C139 87.32 140.16 87.66 141.46 87.66C143.06 87.66 144.38 87.22 145.42 86.34C146.48 85.44 147.13 84.26 147.37 82.8H150.76C150.48 85.16 149.51 87.03 147.85 88.41C146.21 89.79 144.07 90.48 141.43 90.48ZM153.778 69H156.898V90H153.778V69ZM160.985 75.45H164.105V90H160.985V75.45ZM160.865 69.51H164.255V72.96H160.865V69.51ZM174.552 90.48C172.332 90.48 170.572 89.8 169.272 88.44C167.972 87.08 167.322 85.16 167.322 82.68C167.322 81.2 167.622 79.88 168.222 78.72C168.842 77.54 169.692 76.62 170.772 75.96C171.852 75.3 173.072 74.97 174.432 74.97C176.592 74.97 178.272 75.67 179.472 77.07C180.692 78.47 181.302 80.36 181.302 82.74V83.4H170.472C170.492 84.8 170.882 85.93 171.642 86.79C172.402 87.63 173.382 88.05 174.582 88.05C175.482 88.05 176.242 87.83 176.862 87.39C177.502 86.93 177.892 86.26 178.032 85.38H181.182C181.082 86.32 180.752 87.18 180.192 87.96C179.652 88.72 178.902 89.33 177.942 89.79C176.982 90.25 175.852 90.48 174.552 90.48ZM178.032 81.18C178.012 80.02 177.682 79.09 177.042 78.39C176.402 77.69 175.522 77.34 174.402 77.34C173.322 77.34 172.422 77.7 171.702 78.42C171.002 79.14 170.602 80.06 170.502 81.18H178.032ZM184.54 75.45H187.66V76.26C187.66 76.46 187.64 76.86 187.6 77.46C188.02 76.74 188.62 76.15 189.4 75.69C190.18 75.21 191.07 74.97 192.07 74.97C193.71 74.97 194.99 75.49 195.91 76.53C196.85 77.55 197.32 78.98 197.32 80.82V90H194.2V81.24C194.2 80 193.95 79.06 193.45 78.42C192.97 77.76 192.23 77.43 191.23 77.43C190.17 77.43 189.31 77.81 188.65 78.57C187.99 79.33 187.66 80.26 187.66 81.36V90H184.54V75.45ZM206.913 90.24C205.533 90.24 204.443 89.88 203.643 89.16C202.863 88.42 202.473 87.27 202.473 85.71V77.97H199.443V75.45H202.473V70.41H205.593V75.45H208.893V77.97H205.593V85.29C205.593 86.09 205.763 86.68 206.103 87.06C206.463 87.44 207.003 87.63 207.723 87.63C208.083 87.63 208.453 87.6 208.833 87.54V90.03C208.313 90.17 207.673 90.24 206.913 90.24ZM222.695 90.48C221.795 90.48 220.965 90.3 220.205 89.94C219.445 89.58 218.835 89.06 218.375 88.38C217.915 87.7 217.685 86.91 217.685 86.01C217.685 83.37 219.435 81.81 222.935 81.33L225.545 80.94C226.105 80.86 226.495 80.72 226.715 80.52C226.955 80.3 227.075 79.98 227.075 79.56C227.075 78.9 226.835 78.37 226.355 77.97C225.875 77.55 225.235 77.34 224.435 77.34C223.455 77.34 222.685 77.59 222.125 78.09C221.585 78.57 221.295 79.23 221.255 80.07H218.075C218.135 79.11 218.415 78.25 218.915 77.49C219.415 76.71 220.125 76.1 221.045 75.66C221.965 75.2 223.025 74.97 224.225 74.97C226.205 74.97 227.685 75.49 228.665 76.53C229.665 77.57 230.165 79.04 230.165 80.94V90H227.255V89.34C227.255 89.06 227.275 88.62 227.315 88.02C226.915 88.78 226.325 89.38 225.545 89.82C224.785 90.26 223.835 90.48 222.695 90.48ZM220.895 85.92C220.895 86.6 221.125 87.14 221.585 87.54C222.065 87.94 222.665 88.14 223.385 88.14C224.465 88.14 225.355 87.8 226.055 87.12C226.775 86.42 227.135 85.52 227.135 84.42V82.56C226.915 82.82 226.365 83.03 225.485 83.19L223.835 83.52C222.915 83.7 222.195 83.98 221.675 84.36C221.155 84.74 220.895 85.26 220.895 85.92ZM232.048 75.45H235.408L238.858 85.5C239.018 85.92 239.188 86.47 239.368 87.15C239.468 86.77 239.638 86.22 239.878 85.5L243.268 75.45H246.508L241.078 90H237.568L232.048 75.45ZM254.913 96.66C252.893 96.66 251.293 96.16 250.113 95.16C248.953 94.16 248.373 92.84 248.373 91.2H251.493C251.513 92.12 251.833 92.85 252.453 93.39C253.073 93.95 253.913 94.23 254.973 94.23C256.173 94.23 257.123 93.89 257.823 93.21C258.543 92.55 258.903 91.58 258.903 90.3V88.62C258.903 88.3 258.923 87.84 258.963 87.24C258.543 87.96 257.923 88.54 257.103 88.98C256.303 89.42 255.373 89.64 254.313 89.64C253.013 89.64 251.863 89.35 250.863 88.77C249.883 88.17 249.113 87.32 248.553 86.22C248.013 85.12 247.743 83.82 247.743 82.32C247.743 80.86 248.033 79.58 248.613 78.48C249.213 77.36 250.013 76.5 251.013 75.9C252.013 75.28 253.103 74.97 254.283 74.97C256.403 74.97 257.963 75.8 258.963 77.46C258.923 76.9 258.903 76.47 258.903 76.17V75.45H262.023V89.4C262.023 91.8 261.403 93.61 260.163 94.83C258.943 96.05 257.193 96.66 254.913 96.66ZM250.953 82.32C250.953 83.76 251.333 84.93 252.093 85.83C252.853 86.73 253.833 87.18 255.033 87.18C256.233 87.18 257.213 86.73 257.973 85.83C258.733 84.93 259.113 83.76 259.113 82.32C259.113 80.9 258.723 79.73 257.943 78.81C257.183 77.89 256.213 77.43 255.033 77.43C253.833 77.43 252.853 77.89 252.093 78.81C251.333 79.71 250.953 80.88 250.953 82.32ZM265.833 86.01H269.823V90H265.833V86.01ZM130.33 115.45H133.6L136.51 125.77C136.65 126.33 136.76 126.8 136.84 127.18L137.2 125.77L139.99 115.45H144.04L146.92 125.77C147.08 126.29 147.19 126.75 147.25 127.15C147.43 126.41 147.55 125.94 147.61 125.74L150.49 115.45H153.55L149.05 130H145.3L142.36 119.53L142.03 118.09C141.95 118.61 141.83 119.09 141.67 119.53L138.76 130H134.92L130.33 115.45ZM162.189 130.48C159.969 130.48 158.209 129.8 156.909 128.44C155.609 127.08 154.959 125.16 154.959 122.68C154.959 121.2 155.259 119.88 155.859 118.72C156.479 117.54 157.329 116.62 158.409 115.96C159.489 115.3 160.709 114.97 162.069 114.97C164.229 114.97 165.909 115.67 167.109 117.07C168.329 118.47 168.939 120.36 168.939 122.74V123.4H158.109C158.129 124.8 158.519 125.93 159.279 126.79C160.039 127.63 161.019 128.05 162.219 128.05C163.119 128.05 163.879 127.83 164.499 127.39C165.139 126.93 165.529 126.26 165.669 125.38H168.819C168.719 126.32 168.389 127.18 167.829 127.96C167.289 128.72 166.539 129.33 165.579 129.79C164.619 130.25 163.489 130.48 162.189 130.48ZM165.669 121.18C165.649 120.02 165.319 119.09 164.679 118.39C164.039 117.69 163.159 117.34 162.039 117.34C160.959 117.34 160.059 117.7 159.339 118.42C158.639 119.14 158.239 120.06 158.139 121.18H165.669ZM172.177 115.45H175.297V130H172.177V115.45ZM172.057 109.51H175.447V112.96H172.057V109.51ZM185.714 136.66C183.694 136.66 182.094 136.16 180.914 135.16C179.754 134.16 179.174 132.84 179.174 131.2H182.294C182.314 132.12 182.634 132.85 183.254 133.39C183.874 133.95 184.714 134.23 185.774 134.23C186.974 134.23 187.924 133.89 188.624 133.21C189.344 132.55 189.704 131.58 189.704 130.3V128.62C189.704 128.3 189.724 127.84 189.764 127.24C189.344 127.96 188.724 128.54 187.904 128.98C187.104 129.42 186.174 129.64 185.114 129.64C183.814 129.64 182.664 129.35 181.664 128.77C180.684 128.17 179.914 127.32 179.354 126.22C178.814 125.12 178.544 123.82 178.544 122.32C178.544 120.86 178.834 119.58 179.414 118.48C180.014 117.36 180.814 116.5 181.814 115.9C182.814 115.28 183.904 114.97 185.084 114.97C187.204 114.97 188.764 115.8 189.764 117.46C189.724 116.9 189.704 116.47 189.704 116.17V115.45H192.824V129.4C192.824 131.8 192.204 133.61 190.964 134.83C189.744 136.05 187.994 136.66 185.714 136.66ZM181.754 122.32C181.754 123.76 182.134 124.93 182.894 125.83C183.654 126.73 184.634 127.18 185.834 127.18C187.034 127.18 188.014 126.73 188.774 125.83C189.534 124.93 189.914 123.76 189.914 122.32C189.914 120.9 189.524 119.73 188.744 118.81C187.984 117.89 187.014 117.43 185.834 117.43C184.634 117.43 183.654 117.89 182.894 118.81C182.134 119.71 181.754 120.88 181.754 122.32ZM196.903 109H200.023V116.14C200.023 116.7 200.003 117.14 199.963 117.46C200.383 116.72 200.973 116.12 201.733 115.66C202.513 115.2 203.413 114.97 204.433 114.97C206.073 114.97 207.353 115.49 208.273 116.53C209.213 117.55 209.683 118.98 209.683 120.82V130H206.563V121.24C206.563 120 206.313 119.06 205.813 118.42C205.313 117.76 204.563 117.43 203.563 117.43C202.523 117.43 201.673 117.81 201.013 118.57C200.353 119.33 200.023 120.26 200.023 121.36V130H196.903V109ZM219.276 130.24C217.896 130.24 216.806 129.88 216.006 129.16C215.226 128.42 214.836 127.27 214.836 125.71V117.97H211.806V115.45H214.836V110.41H217.956V115.45H221.256V117.97H217.956V125.29C217.956 126.09 218.126 126.68 218.466 127.06C218.826 127.44 219.366 127.63 220.086 127.63C220.446 127.63 220.816 127.6 221.196 127.54V130.03C220.676 130.17 220.036 130.24 219.276 130.24Z" fill="black"/>
<path d="M91.5858 376.414C92.3669 377.195 93.6332 377.195 94.4142 376.414L107.142 363.686C107.923 362.905 107.923 361.639 107.142 360.858C106.361 360.077 105.095 360.077 104.314 360.858L93 372.172L81.6863 360.858C80.9053 360.077 79.6389 360.077 78.8579 360.858C78.0768 361.639 78.0768 362.905 78.8579 363.686L91.5858 376.414ZM91 8.74228e-08L91 375L95 375L95 -8.74228e-08L91 8.74228e-08Z" fill="#FFC43B"/>
<line opacity="0.5" y1="80.5" x2="849" y2="80.5" stroke="#434343" stroke-dasharray="10 10"/>
<line opacity="0.5" y1="193.5" x2="849" y2="193.5" stroke="#434343" stroke-dasharray="10 10"/>
<line opacity="0.5" y1="316.5" x2="849" y2="316.5" stroke="#434343" stroke-dasharray="10 10"/>
<path d="M0 149C94.0475 176.554 295.802 219.287 363.409 228.871C465.85 243.393 658.142 264.059 847 378" stroke="#21694A" stroke-width="7"/>
<circle cx="701.601" cy="312.321" r="21.768" fill="white"/>
<circle cx="701.601" cy="312.879" r="16.7447" fill="#21694A"/>
<path d="M1 145C81.9217 158.461 261.534 185.604 332.609 186.489C421.453 187.596 767.21 190.915 847 197" stroke="#1FADD1" stroke-width="7"/>
<circle cx="701.601" cy="191.76" r="21.768" fill="white"/>
<circle cx="701.601" cy="192.318" r="16.7447" fill="#1FADD1"/>
</g>
<defs>
<linearGradient id="paint0_linear_1907_4" x1="546" y1="176" x2="548" y2="446.5" gradientUnits="userSpaceOnUse">
<stop stop-color="#21694A"/>
<stop offset="0.756335" stop-color="#1FADD1" stop-opacity="0.1"/>
</linearGradient>
<clipPath id="clip0_1907_4">
<rect width="847" height="443" fill="white"/>
</clipPath>
</defs>
</svg>
